<svg width="40" height="40" viewBox="0 0 40 40" fill="none" xmlns="http://www.w3.org/2000/svg">
<path d="M20.0001 38.3327C30.1253 38.3327 38.3334 30.1246 38.3334 19.9993C38.3334 9.87413 30.1253 1.66602 20.0001 1.66602C9.87487 1.66602 1.66675 9.87413 1.66675 19.9993C1.66675 30.1246 9.87487 38.3327 20.0001 38.3327Z" stroke="#491475" stroke-width="1.5" stroke-miterlimit="10" stroke-linecap="round" stroke-linejoin="round"/>
<path d="M26.92 16.7609C28.0616 16.7609 28.987 15.8355 28.987 14.6939C28.987 13.5524 28.0616 12.627 26.92 12.627C25.7785 12.627 24.853 13.5524 24.853 14.6939C24.853 15.8355 25.7785 16.7609 26.92 16.7609Z" fill="#491475"/>
<path d="M13.7091 16.7609C14.8507 16.7609 15.7761 15.8355 15.7761 14.6939C15.7761 13.5524 14.8507 12.627 13.7091 12.627C12.5675 12.627 11.6421 13.5524 11.6421 14.6939C11.6421 15.8355 12.5675 16.7609 13.7091 16.7609Z" fill="#491475"/>
<path d="M13.4397 24.4011C17.7534 21.1658 22.2469 21.1658 26.8302 24.4011" stroke="#491475" stroke-width="1.5" stroke-miterlimit="10" stroke-linecap="round" stroke-linejoin="round"/>
</svg>
