<svg width="50" height="50" viewBox="0 0 50 50" fill="none" xmlns="http://www.w3.org/2000/svg">
<g clip-path="url(#clip0_23186_5937)">
<path d="M28.1374 50.0004C40.2119 50.0004 50.0001 39.9048 50.0001 27.4514C50.0001 14.9979 40.2119 4.90234 28.1374 4.90234C16.0629 4.90234 6.27466 14.9979 6.27466 27.4514C6.27466 39.9048 16.0629 50.0004 28.1374 50.0004Z" fill="#E9DAF4"/>
<path d="M24.1177 48.6275C36.8961 48.6275 47.255 37.9614 47.255 24.804C47.255 11.6466 36.8961 0.980469 24.1177 0.980469C11.3394 0.980469 0.980469 11.6466 0.980469 24.804C0.980469 37.9614 11.3394 48.6275 24.1177 48.6275Z" stroke="#491475" stroke-width="2" stroke-miterlimit="10" stroke-linecap="round" stroke-linejoin="round"/>
<path d="M32.8432 20.6867C34.251 20.6867 35.3922 19.5016 35.3922 18.0396C35.3922 16.5777 34.251 15.3926 32.8432 15.3926C31.4354 15.3926 30.2942 16.5777 30.2942 18.0396C30.2942 19.5016 31.4354 20.6867 32.8432 20.6867Z" fill="#491475"/>
<path d="M16.1765 20.6867C17.5842 20.6867 18.7255 19.5016 18.7255 18.0396C18.7255 16.5777 17.5842 15.3926 16.1765 15.3926C14.7687 15.3926 13.6274 16.5777 13.6274 18.0396C13.6274 19.5016 14.7687 20.6867 16.1765 20.6867Z" fill="#491475"/>
<path d="M15.8823 30.6869C21.3725 26.4712 27.0588 26.3732 32.8431 30.6869" stroke="#491475" stroke-width="2" stroke-miterlimit="10" stroke-linecap="round" stroke-linejoin="round"/>
</g>
<defs>
<clipPath id="clip0_23186_5937">
<rect width="50" height="50" fill="white"/>
</clipPath>
</defs>
</svg>
