<svg width="40" height="40" viewBox="0 0 40 40" fill="none" xmlns="http://www.w3.org/2000/svg">
<path d="M20.0001 38.3327C30.1253 38.3327 38.3334 30.1246 38.3334 19.9993C38.3334 9.87413 30.1253 1.66602 20.0001 1.66602C9.87486 1.66602 1.66675 9.87413 1.66675 19.9993C1.66675 30.1246 9.87486 38.3327 20.0001 38.3327Z" stroke="#491475" stroke-width="1.5" stroke-miterlimit="10" stroke-linecap="round" stroke-linejoin="round"/>
<path d="M26.8302 16.7609C27.9717 16.7609 28.8972 15.8355 28.8972 14.6939C28.8972 13.5524 27.9717 12.627 26.8302 12.627C25.6886 12.627 24.7632 13.5524 24.7632 14.6939C24.7632 15.8355 25.6886 16.7609 26.8302 16.7609Z" fill="#491475"/>
<path d="M13.7091 16.7609C14.8506 16.7609 15.7761 15.8355 15.7761 14.6939C15.7761 13.5524 14.8506 12.627 13.7091 12.627C12.5675 12.627 11.6421 13.5524 11.6421 14.6939C11.6421 15.8355 12.5675 16.7609 13.7091 16.7609Z" fill="#491475"/>
<path d="M25.9313 22.6055C25.9313 26.0205 23.1453 28.8065 19.7303 28.8065C16.3152 28.8065 13.5293 26.0205 13.5293 22.6055" stroke="#491475" stroke-width="1.5" stroke-miterlimit="10" stroke-linecap="round" stroke-linejoin="round"/>
</svg>
