<svg width="40" height="40" viewBox="0 0 40 40" fill="none" xmlns="http://www.w3.org/2000/svg">
<path d="M20.0001 38.3327C30.1253 38.3327 38.3334 30.1246 38.3334 19.9993C38.3334 9.87413 30.1253 1.66602 20.0001 1.66602C9.87486 1.66602 1.66675 9.87413 1.66675 19.9993C1.66675 30.1246 9.87486 38.3327 20.0001 38.3327Z" stroke="#491475" stroke-width="1.5" stroke-miterlimit="10"/>
<path d="M20.8089 31.1436H19.1014C13.3497 31.1436 8.67651 26.4704 8.67651 20.7188H31.1438C31.2337 26.5603 26.5605 31.1436 20.8089 31.1436Z" stroke="#491475" stroke-width="1.5" stroke-miterlimit="10"/>
<path d="M26.8299 16.7609C27.9715 16.7609 28.8969 15.8355 28.8969 14.6939C28.8969 13.5524 27.9715 12.627 26.8299 12.627C25.6884 12.627 24.7629 13.5524 24.7629 14.6939C24.7629 15.8355 25.6884 16.7609 26.8299 16.7609Z" fill="#491475"/>
<path d="M13.6192 16.7609C14.7608 16.7609 15.6862 15.8355 15.6862 14.6939C15.6862 13.5524 14.7608 12.627 13.6192 12.627C12.4777 12.627 11.5522 13.5524 11.5522 14.6939C11.5522 15.8355 12.4777 16.7609 13.6192 16.7609Z" fill="#491475"/>
</svg>
