<svg width="50" height="50" viewBox="0 0 50 50" fill="none" xmlns="http://www.w3.org/2000/svg">
<g clip-path="url(#clip0_23186_5911)">
<path d="M27.8291 50.0001C40.1375 50.0001 50.1155 39.9291 50.1155 27.5059C50.1155 15.0827 40.1375 5.01172 27.8291 5.01172C15.5207 5.01172 5.54272 15.0827 5.54272 27.5059C5.54272 39.9291 15.5207 50.0001 27.8291 50.0001Z" fill="#E9DAF4"/>
<path d="M24.7114 48.7185C37.7213 48.7185 48.2679 38.0735 48.2679 24.9422C48.2679 11.811 37.7213 1.16602 24.7114 1.16602C11.7014 1.16602 1.15479 11.811 1.15479 24.9422C1.15479 38.0735 11.7014 48.7185 24.7114 48.7185Z" stroke="#491475" stroke-width="2" stroke-miterlimit="10"/>
<path d="M25.7505 39.3948H23.5565C16.1662 39.3948 10.1616 33.3342 10.1616 25.875H39.03C39.1455 33.4508 33.1408 39.3948 25.7505 39.3948Z" stroke="#491475" stroke-width="2" stroke-miterlimit="10"/>
<path d="M33.4874 20.7461C34.9542 20.7461 36.1433 19.5459 36.1433 18.0654C36.1433 16.5849 34.9542 15.3848 33.4874 15.3848C32.0206 15.3848 30.8315 16.5849 30.8315 18.0654C30.8315 19.5459 32.0206 20.7461 33.4874 20.7461Z" fill="#491475"/>
<path d="M16.5128 20.7461C17.9796 20.7461 19.1687 19.5459 19.1687 18.0654C19.1687 16.5849 17.9796 15.3848 16.5128 15.3848C15.046 15.3848 13.8569 16.5849 13.8569 18.0654C13.8569 19.5459 15.046 20.7461 16.5128 20.7461Z" fill="#491475"/>
</g>
<defs>
<clipPath id="clip0_23186_5911">
<rect width="50" height="50" fill="white"/>
</clipPath>
</defs>
</svg>
