<svg width="50" height="50" viewBox="0 0 50 50" fill="none" xmlns="http://www.w3.org/2000/svg">
<g clip-path="url(#clip0_23186_5919)">
<path d="M27.7451 50.0004C40.0362 50.0004 50 39.9048 50 27.4514C50 14.9979 40.0362 4.90234 27.7451 4.90234C15.4541 4.90234 5.49023 14.9979 5.49023 27.4514C5.49023 39.9048 15.4541 50.0004 27.7451 50.0004Z" fill="#E9DAF4"/>
<path d="M24.5099 48.6275C37.5048 48.6275 48.0393 37.9614 48.0393 24.804C48.0393 11.6466 37.5048 0.980469 24.5099 0.980469C11.5149 0.980469 0.980469 11.6466 0.980469 24.804C0.980469 37.9614 11.5149 48.6275 24.5099 48.6275Z" stroke="#491475" stroke-width="2" stroke-miterlimit="10" stroke-linecap="round" stroke-linejoin="round"/>
<path d="M33.3333 20.6867C34.7953 20.6867 35.9804 19.5016 35.9804 18.0396C35.9804 16.5777 34.7953 15.3926 33.3333 15.3926C31.8714 15.3926 30.6863 16.5777 30.6863 18.0396C30.6863 19.5016 31.8714 20.6867 33.3333 20.6867Z" fill="#491475"/>
<path d="M16.3726 20.6867C17.8346 20.6867 19.0197 19.5016 19.0197 18.0396C19.0197 16.5777 17.8346 15.3926 16.3726 15.3926C14.9107 15.3926 13.7256 16.5777 13.7256 18.0396C13.7256 19.5016 14.9107 20.6867 16.3726 20.6867Z" fill="#491475"/>
<path d="M32.157 28.334C32.157 32.8438 28.5296 36.4712 24.1178 36.4712C19.7061 36.4712 16.0786 32.8438 16.0786 28.334" stroke="#491475" stroke-width="2" stroke-miterlimit="10" stroke-linecap="round" stroke-linejoin="round"/>
</g>
<defs>
<clipPath id="clip0_23186_5919">
<rect width="50" height="50" fill="white"/>
</clipPath>
</defs>
</svg>
