<svg width="40" height="40" viewBox="0 0 40 40" fill="none" xmlns="http://www.w3.org/2000/svg">
<path d="M20.3956 38.3327C30.3023 38.3327 38.3333 30.1246 38.3333 19.9993C38.3333 9.87413 30.3023 1.66602 20.3956 1.66602C10.489 1.66602 2.45801 9.87413 2.45801 19.9993C2.45801 30.1246 10.489 38.3327 20.3956 38.3327Z" stroke="#491475" stroke-width="1.5" stroke-miterlimit="10" stroke-linecap="round" stroke-linejoin="round"/>
<path d="M27.0785 16.7629C28.1955 16.7629 29.1009 15.8375 29.1009 14.6959C29.1009 13.5543 28.1955 12.6289 27.0785 12.6289C25.9616 12.6289 25.0562 13.5543 25.0562 14.6959C25.0562 15.8375 25.9616 16.7629 27.0785 16.7629Z" fill="#491475"/>
<path d="M14.2406 16.7629C15.3576 16.7629 16.263 15.8375 16.263 14.6959C16.263 13.5543 15.3576 12.6289 14.2406 12.6289C13.1237 12.6289 12.2183 13.5543 12.2183 14.6959C12.2183 15.8375 13.1237 16.7629 14.2406 16.7629Z" fill="#491475"/>
<path d="M24.8801 10.832L31.2111 13.7078" stroke="#491475" stroke-width="1.5" stroke-miterlimit="10" stroke-linecap="round" stroke-linejoin="round"/>
<path d="M15.9115 10.832L9.58057 13.7078" stroke="#491475" stroke-width="1.5" stroke-miterlimit="10" stroke-linecap="round" stroke-linejoin="round"/>
<path d="M5.88736 20C5.88736 20 10.3718 24.8529 10.4597 27.2794C10.5476 29.3464 8.43733 31.683 6.06323 31.683C3.68913 31.683 1.66675 30.0654 1.66675 27.4592C1.66675 24.8529 5.88736 20 5.88736 20Z" fill="white"/>
<path d="M5.88736 20C5.88736 20 10.3718 24.8529 10.4597 27.2794C10.5476 29.3464 8.43733 31.683 6.06323 31.683C3.68913 31.683 1.66675 30.0654 1.66675 27.4592C1.66675 24.8529 5.88736 20 5.88736 20Z" stroke="#491475" stroke-width="1.5" stroke-miterlimit="10" stroke-linecap="round" stroke-linejoin="round"/>
<path d="M15.7356 25.5699L16.7908 24.4016C19.0769 21.9751 22.8579 21.9751 25.1441 24.3117L26.2872 25.48" stroke="#491475" stroke-width="1.5" stroke-miterlimit="10" stroke-linecap="round" stroke-linejoin="round"/>
</svg>
