<svg width="50" height="50" viewBox="0 0 50 50" fill="none" xmlns="http://www.w3.org/2000/svg">
<g clip-path="url(#clip0_23186_5946)">
<path d="M27.1569 50.098C39.3938 50.098 49.3137 40.0025 49.3137 27.549C49.3137 15.0955 39.3938 5 27.1569 5C14.92 5 5 15.0955 5 27.549C5 40.0025 14.92 50.098 27.1569 50.098Z" fill="#E9DAF4"/>
<path d="M1.4902 29.9216C1.19608 28.3529 1 26.5882 1 24.8235C1 11.6863 11.4902 1 24.4314 1C37.3725 1 47.8627 11.6863 47.8627 24.8235C47.8627 37.9608 37.4706 48.7451 24.4314 48.7451C17.3725 48.7451 11.098 45.6078 6.78431 40.6078" stroke="#491475" stroke-width="2" stroke-miterlimit="10" stroke-linecap="round" stroke-linejoin="round"/>
<path d="M33.255 20.7062C34.7169 20.7062 35.902 19.5211 35.902 18.0592C35.902 16.5972 34.7169 15.4121 33.255 15.4121C31.793 15.4121 30.6079 16.5972 30.6079 18.0592C30.6079 19.5211 31.793 20.7062 33.255 20.7062Z" fill="#491475"/>
<path d="M16.3922 20.7062C17.8541 20.7062 19.0392 19.5211 19.0392 18.0592C19.0392 16.5972 17.8541 15.4121 16.3922 15.4121C14.9302 15.4121 13.7451 16.5972 13.7451 18.0592C13.7451 19.5211 14.9302 20.7062 16.3922 20.7062Z" fill="#491475"/>
<path d="M30.4119 12.9609L38.6472 16.6864" stroke="#491475" stroke-width="2" stroke-miterlimit="10" stroke-linecap="round" stroke-linejoin="round"/>
<path d="M18.5491 12.9609L10.4119 16.6864" stroke="#491475" stroke-width="2" stroke-miterlimit="10" stroke-linecap="round" stroke-linejoin="round"/>
<path d="M7.0785 23.9414C7.0785 23.9414 13.1569 30.51 13.255 33.7453C13.353 36.5885 10.5099 39.7257 7.27458 39.7257C4.03929 39.7257 1.29419 37.4708 1.29419 34.0394C1.29419 30.6081 7.0785 23.9414 7.0785 23.9414Z" stroke="#491475" stroke-width="2" stroke-miterlimit="10" stroke-linecap="round" stroke-linejoin="round"/>
<path d="M18.353 32.1759L19.7256 30.7053C22.7648 27.568 27.6668 27.47 30.706 30.6072L32.1766 32.0778" stroke="#491475" stroke-width="2" stroke-miterlimit="10" stroke-linecap="round" stroke-linejoin="round"/>
</g>
<defs>
<clipPath id="clip0_23186_5946">
<rect width="50" height="50" fill="white"/>
</clipPath>
</defs>
</svg>
