<svg width="48" height="40" viewBox="0 0 48 40" fill="none" xmlns="http://www.w3.org/2000/svg">
<g clip-path="url(#clip0_22459_5898)">
<path d="M33.9819 14.0207C29.4198 14.0207 25.793 11.4528 23.8076 10.041C23.3487 9.71448 22.8281 9.34386 22.6605 9.28209C21.9192 9.22033 18.566 11.1793 17.463 11.8235C16.7483 12.2382 16.3953 12.4411 16.1835 12.5294C15.91 12.6529 15.5835 12.6176 15.3364 12.45C15.0893 12.2823 14.9393 11.9911 14.9481 11.6911L15.0011 10.1116C15.0011 4.54351 19.5543 -0.00976562 25.1489 -0.00976562C30.7434 -0.00976562 35.2967 4.54351 35.2967 10.138L35.3496 13.1118C35.3496 13.5883 34.9878 13.9854 34.5025 14.0119C34.326 14.0119 34.1495 14.0207 33.9731 14.0207H33.9819ZM22.7222 7.54373C22.9164 7.54373 23.084 7.5702 23.2429 7.62315C23.6488 7.76434 24.1164 8.09965 24.8312 8.60263C26.5872 9.84684 29.7463 12.0882 33.576 12.247L33.5407 10.1557C33.5407 5.51417 29.7816 1.75507 25.1577 1.75507C20.5338 1.75507 16.7747 5.51417 16.7747 10.138V10.1822C19.722 8.47027 21.5751 7.53491 22.7222 7.53491V7.54373Z" fill="#2C0B4A"/>
<path d="M28.7316 17.4619C27.9992 17.4619 27.2668 17.1619 26.755 16.5706C26.6932 16.5001 26.6138 16.3853 26.5785 16.3059C26.3844 15.8559 26.5785 15.3353 27.0374 15.1411C27.4256 14.9735 27.8668 15.1058 28.1051 15.4323C28.4139 15.7676 28.961 15.7941 29.3317 15.4853L29.5434 15.3C29.9141 14.9823 30.47 15.0264 30.7877 15.397C31.1053 15.7676 31.0612 16.3236 30.6906 16.6412L30.4788 16.8265C29.9758 17.2589 29.3493 17.4707 28.7404 17.4707L28.7316 17.4619Z" fill="#2C0B4A"/>
<path d="M21.1782 17.4619C20.4457 17.4619 19.7133 17.1619 19.2015 16.5706C19.1398 16.5001 19.0603 16.3853 19.0251 16.3059C18.8309 15.8559 19.0251 15.3353 19.4839 15.1411C19.8722 14.9735 20.3134 15.1058 20.5516 15.4323C20.8605 15.7676 21.4076 15.7941 21.7782 15.4853L21.99 15.3C22.3606 14.9823 22.9165 15.0264 23.2342 15.397C23.5519 15.7676 23.5077 16.3236 23.1371 16.6412L22.9253 16.8265C22.4224 17.2589 21.7958 17.4707 21.187 17.4707L21.1782 17.4619Z" fill="#2C0B4A"/>
<path d="M9.11545 39.8134H6.38878C5.94757 39.8134 5.57695 39.4869 5.51518 39.0457C5.12692 36.169 5.8858 33.3277 7.66828 31.0422C9.45077 28.7479 12.0186 27.3096 14.8953 26.9742C16.1748 26.8242 17.3749 26.6919 18.3455 26.586C19.3427 26.4801 20.128 25.7036 20.2604 24.7153C20.278 24.5829 20.3222 24.4594 20.3927 24.3446L20.5428 24.1152C20.8075 23.7093 21.3546 23.5946 21.7605 23.8593C22.1664 24.124 22.2811 24.6711 22.0164 25.077L21.9723 25.1476C21.6546 26.8419 20.2692 28.139 18.5397 28.3243C17.569 28.4302 16.3689 28.5714 15.0894 28.7126C12.6804 28.9862 10.5361 30.1951 9.05368 32.1099C7.72123 33.8218 7.07706 35.8955 7.18295 38.0309H9.10662C9.59195 38.0309 9.98904 38.428 9.98904 38.9134C9.98904 39.3987 9.59195 39.7958 9.10662 39.7958L9.11545 39.8134Z" fill="#2C0B4A"/>
<path d="M29.9051 39.8137H20.2779C19.7926 39.8137 19.3955 39.4166 19.3955 38.9312C19.3955 38.4459 19.7926 38.0488 20.2779 38.0488H29.9051C30.3904 38.0488 30.7875 38.4459 30.7875 38.9312C30.7875 39.4166 30.3904 39.8137 29.9051 39.8137Z" fill="#2C0B4A"/>
<path d="M42.674 39.8124H34.8116C34.3263 39.8124 33.9292 39.4153 33.9292 38.93C33.9292 38.4447 34.3263 38.0476 34.8116 38.0476H41.9239C42.021 37.1652 41.9768 36.2916 41.7827 35.4268C41.6768 34.9503 41.9768 34.4826 42.4534 34.3767C42.9299 34.2708 43.3975 34.5709 43.5034 35.0474C43.8035 36.3886 43.8123 37.7476 43.5476 39.1065C43.4681 39.5212 43.1063 39.8212 42.6828 39.8212L42.674 39.8124Z" fill="#2C0B4A"/>
<path d="M37.8116 29.9754C37.6792 29.9754 37.5469 29.9489 37.4233 29.8872C36.7086 29.5342 35.9497 29.2959 35.1555 29.1636L31.1934 28.5106C29.6227 28.2547 28.405 26.9928 28.1932 25.431L28.0785 25.0956C27.9285 24.6368 28.1756 24.1338 28.6344 23.975C29.1021 23.8161 29.5963 24.072 29.7551 24.5309L29.8963 24.9544C29.9139 25.0162 29.9316 25.078 29.9404 25.1398C30.0287 25.9692 30.664 26.6399 31.4846 26.7722L35.4467 27.4252C36.4085 27.5841 37.3439 27.8753 38.2087 28.3076C38.6499 28.5194 38.8264 29.0489 38.6146 29.4901C38.4646 29.7989 38.1469 29.9842 37.8204 29.9842L37.8116 29.9754Z" fill="#2C0B4A"/>
<path d="M25.2726 30.4158C25.1844 30.4158 25.0961 30.4158 25.0079 30.4158C22.5371 30.3364 20.4105 29.1716 19.3339 27.3009C19.0868 26.8773 19.2369 26.3391 19.6604 26.092C20.084 25.8449 20.6223 25.9949 20.8693 26.4185C21.6459 27.7597 23.2166 28.5892 25.0785 28.651C26.9139 28.7128 28.5464 28.0068 29.3405 26.8156C29.6141 26.4096 30.1612 26.3038 30.5671 26.5685C30.973 26.842 31.0789 27.3891 30.8142 27.795C29.7288 29.4275 27.6286 30.4246 25.2902 30.4246L25.2726 30.4158Z" fill="#2C0B4A"/>
<path d="M24.7431 25.9247C19.7486 25.9247 15.6895 21.8656 15.6895 16.8711V11.3648C15.6895 10.8795 16.0865 10.4824 16.5719 10.4824C17.0572 10.4824 17.4543 10.8795 17.4543 11.3648V16.8711C17.4543 20.895 20.7281 24.1599 24.7431 24.1599C28.7581 24.1599 32.0318 20.8861 32.0318 16.8711V13.0591C32.0318 12.5738 32.4289 12.1767 32.9142 12.1767C33.3996 12.1767 33.7967 12.5738 33.7967 13.0591V16.8711C33.7967 21.8656 29.7375 25.9247 24.7431 25.9247Z" fill="#2C0B4A"/>
<path d="M41.5267 19.2277H36.0733C35.588 19.2277 35.1909 18.8306 35.1909 18.3453C35.1909 17.86 35.588 17.4629 36.0733 17.4629H41.5267C42.012 17.4629 42.4091 17.86 42.4091 18.3453C42.4091 18.8306 42.012 19.2277 41.5267 19.2277Z" fill="#C090FC"/>
<path d="M43.5299 16.4301H37.2735C36.7882 16.4301 36.3911 16.033 36.3911 15.5477C36.3911 15.0623 36.7882 14.6652 37.2735 14.6652H43.5299C44.4476 14.6652 45.2859 14.3034 45.8153 13.6681C46.3095 13.0857 46.2389 12.6357 46.1418 12.3445C45.9212 11.6827 45.4888 11.3826 45.1888 11.4356C44.8888 11.4797 44.5888 11.9209 44.5888 12.7945C44.5888 13.2798 44.1917 13.6769 43.7064 13.6769C43.221 13.6769 42.8239 13.2798 42.8239 12.7945C42.8239 10.7561 43.9446 9.84724 44.9064 9.69723C46.1507 9.5031 47.3419 10.359 47.8184 11.7886C48.1714 12.8386 47.942 13.8799 47.1654 14.7976C46.2918 15.83 44.9682 16.4213 43.5299 16.4213V16.4301Z" fill="#C090FC"/>
<path d="M45.2682 27.0181C45.1535 27.0181 45.0299 27.0093 44.9152 26.9916C43.9534 26.8328 42.8327 25.9327 42.8327 23.8943C42.8327 23.409 43.2298 23.0119 43.7151 23.0119C44.2005 23.0119 44.5976 23.409 44.5976 23.8943C44.5976 24.7679 44.8976 25.2003 45.1976 25.2532C45.5065 25.3062 45.93 25.0062 46.1506 24.3443C46.2477 24.062 46.3183 23.6119 45.8241 23.0295C45.2947 22.3942 44.4564 22.0324 43.5387 22.0324H37.2823C36.797 22.0324 36.3999 21.6353 36.3999 21.15C36.3999 20.6647 36.797 20.2676 37.2823 20.2676H43.5387C44.977 20.2676 46.3095 20.8588 47.1742 21.8912C47.9508 22.8178 48.1714 23.859 47.8272 24.9003C47.3948 26.1974 46.38 27.0269 45.277 27.0269L45.2682 27.0181Z" fill="#C090FC"/>
<path d="M12.5218 18.6086H7.07724C6.59191 18.6086 6.19482 18.2115 6.19482 17.7262C6.19482 17.2408 6.59191 16.8438 7.07724 16.8438H12.5306C13.0159 16.8438 13.413 17.2408 13.413 17.7262C13.413 18.2115 13.0159 18.6086 12.5306 18.6086H12.5218Z" fill="#C090FC"/>
<path d="M11.3304 15.8032H5.07402C3.62685 15.8032 2.30322 15.212 1.43845 14.1796C0.661926 13.2531 0.441321 12.2118 0.785464 11.1617C1.26197 9.73221 2.46206 8.86744 3.69744 9.0704C4.65928 9.22923 5.77995 10.1293 5.77995 12.1677C5.77995 12.653 5.38286 13.0501 4.89753 13.0501C4.4122 13.0501 4.01511 12.653 4.01511 12.1677C4.01511 11.2941 3.71509 10.8617 3.41507 10.8088C3.11505 10.7646 2.68266 11.0558 2.46206 11.7176C2.36499 12 2.2944 12.4501 2.78855 13.0325C3.318 13.6678 4.1563 14.0296 5.07402 14.0296H11.3304C11.8157 14.0296 12.2128 14.4267 12.2128 14.912C12.2128 15.3973 11.8157 15.7944 11.3304 15.7944V15.8032Z" fill="#C090FC"/>
<path d="M3.34444 26.3921C2.24141 26.3921 1.22663 25.5627 0.794248 24.2655C0.441281 23.2154 0.67071 22.1742 1.44724 21.2565C2.31201 20.224 3.64446 19.6328 5.0828 19.6328H11.3391C11.8245 19.6328 12.2216 20.0299 12.2216 20.5152C12.2216 21.0006 11.8245 21.3976 11.3391 21.3976H5.07397C4.15626 21.3976 3.31796 21.7594 2.78851 22.3948C2.29436 22.9772 2.36495 23.4272 2.46202 23.7096C2.68262 24.3714 3.11501 24.6714 3.41503 24.6185C3.71505 24.5744 4.01507 24.1331 4.01507 23.2596C4.01507 22.7742 4.41216 22.3771 4.89749 22.3771C5.38282 22.3771 5.77991 22.7742 5.77991 23.2596C5.77991 25.2979 4.65924 26.2068 3.6974 26.3568C3.57386 26.3745 3.45915 26.3833 3.34444 26.3833V26.3921Z" fill="#C090FC"/>
<path d="M40.7588 32.9327C41.2413 32.9327 41.6324 32.5416 41.6324 32.0591C41.6324 31.5767 41.2413 31.1855 40.7588 31.1855C40.2764 31.1855 39.8853 31.5767 39.8853 32.0591C39.8853 32.5416 40.2764 32.9327 40.7588 32.9327Z" fill="#2C0B4A"/>
<path d="M31.7316 40.0007C30.6815 40.0007 29.6491 39.736 28.7225 39.2242C28.3872 39.0388 27.7783 38.5976 26.4371 37.0005C25.7664 36.2063 25.5988 35.1209 25.9959 34.1591C26.3929 33.2061 27.2665 32.5619 28.2813 32.4737C28.5549 32.456 28.8372 32.5178 29.0755 32.6501C30.6109 33.5149 32.411 33.7708 34.2023 33.4002C35.9848 33.0296 37.4055 33.2237 38.4291 33.9914C38.8939 34.3385 38.3026 36.0739 36.6555 39.1977L36.426 39.6212L32.2434 39.9742C32.0669 39.9919 31.8904 40.0007 31.7139 40.0007H31.7316ZM28.3254 34.2473C28.0166 34.3091 27.7607 34.5209 27.6372 34.8385C27.4871 35.1915 27.5489 35.5798 27.796 35.871C28.9961 37.2917 29.4726 37.6182 29.5873 37.6887C30.355 38.1123 31.2286 38.3064 32.1198 38.227L35.3407 37.9535C35.8966 36.8857 36.4613 35.7915 36.7878 35.1121C36.0907 34.9003 35.2348 34.9885 34.573 35.1297C32.3934 35.5798 30.1785 35.2709 28.3254 34.2473Z" fill="#2C0B4A"/>
<path d="M18.7426 39.9993C18.5661 39.9993 18.3897 39.9993 18.2132 39.9728L14.0305 39.6198L13.8011 39.1963C12.1539 36.0725 11.5627 34.3371 12.0274 33.99C13.051 33.2223 14.4805 33.0282 16.2542 33.3988C18.0367 33.7694 19.8456 33.5135 21.3369 32.6752C21.6193 32.5164 21.9017 32.4458 22.1752 32.4722C23.19 32.5605 24.0724 33.2046 24.4607 34.1577C24.8578 35.1195 24.6901 36.2049 24.0283 36.999C22.687 38.5962 22.0782 39.0286 21.7428 39.2227C20.8163 39.7345 19.7927 39.9993 18.7338 39.9993H18.7426ZM15.1424 37.9432L18.3632 38.2168C19.2456 38.2962 20.128 38.1021 20.8957 37.6785C21.0104 37.6167 21.4958 37.2902 22.687 35.8607C22.9341 35.5695 22.9871 35.1813 22.8459 34.8283C22.7135 34.5194 22.4664 34.3077 22.1488 34.2371C20.2692 35.2607 18.0632 35.5695 15.9012 35.1195C15.2394 34.9783 14.3923 34.8901 13.6864 35.1018C14.0129 35.7813 14.5776 36.8755 15.1335 37.9432H15.1424Z" fill="#2C0B4A"/>
<path d="M24.9282 21.5666C24.1958 21.5666 23.4634 21.2666 22.9516 20.6754C22.8898 20.6048 22.8015 20.4812 22.7663 20.393C22.5809 19.943 22.7927 19.4223 23.2428 19.237C23.631 19.0782 24.0634 19.2105 24.2928 19.537C24.6105 19.8812 25.1488 19.8988 25.5194 19.59L25.7312 19.4047C26.1018 19.087 26.6577 19.1311 26.9754 19.5017C27.2931 19.8724 27.2489 20.4283 26.8783 20.746L26.6665 20.9313C26.1636 21.3636 25.537 21.5754 24.9282 21.5754V21.5666Z" fill="#2C0B4A"/>
</g>
<defs>
<clipPath id="clip0_22459_5898">
<rect width="47.3505" height="40" fill="white" transform="translate(0.626465)"/>
</clipPath>
</defs>
</svg>
