<svg width="40" height="40" viewBox="0 0 40 40" fill="none" xmlns="http://www.w3.org/2000/svg">
<g clip-path="url(#clip0_24916_7463)">
<path d="M10.1992 18.0432C10.757 17.8036 14.7411 15.1689 15.6972 15.4883C16.6534 15.8076 20 19.3206 24.6215 19.0811L24.5418 16.7657C24.5418 12.7737 21.3546 9.58008 17.3705 9.58008C13.3865 9.58008 10.1992 12.7737 10.1992 16.7657V18.0432Z" stroke="#2C0B4A" stroke-width="1.5" stroke-miterlimit="10" stroke-linecap="round" stroke-linejoin="round"/>
<path d="M19.1235 21.3164C19.6016 21.8753 20.4781 21.9551 21.0359 21.4761L21.1952 21.3164" stroke="#2C0B4A" stroke-width="1.5" stroke-miterlimit="10" stroke-linecap="round" stroke-linejoin="round"/>
<path d="M13.2271 21.3164C13.7051 21.8753 14.5816 21.9551 15.1394 21.4761L15.2988 21.3164" stroke="#2C0B4A" stroke-width="1.5" stroke-miterlimit="10" stroke-linecap="round" stroke-linejoin="round"/>
<path d="M30.9163 36.247C31.1553 37.1252 31.1553 38.1632 30.9163 39.1212H24.8605C24.8605 39.1212 21.1155 39.0414 21.0358 39.1212H13.6254H4.94017H2.86846C2.31069 34.8897 5.2589 31.0574 9.56168 30.5783C10.5179 30.4985 11.474 30.3388 12.1912 30.259C13.3067 30.0993 14.1035 29.3009 14.2629 28.1831L14.3426 28.0234" stroke="#2C0B4A" stroke-width="1.5" stroke-miterlimit="10" stroke-linecap="round" stroke-linejoin="round"/>
<path d="M20.239 28.1836L20.3187 28.503C20.3984 29.461 21.1155 30.1796 22.0717 30.3393L25.0996 30.8183C25.8167 30.8982 26.4542 31.1377 27.0119 31.457" stroke="#2C0B4A" stroke-width="1.5" stroke-miterlimit="10" stroke-linecap="round" stroke-linejoin="round"/>
<path d="M13.4661 29.7793C15.0597 32.4939 19.6015 32.4939 21.1951 30.0987" stroke="#2C0B4A" stroke-width="1.5" stroke-miterlimit="10" stroke-linecap="round" stroke-linejoin="round"/>
<path d="M23.3465 19.0802V22.0343C23.3465 25.5472 20.478 28.3417 17.0517 28.3417C13.5457 28.3417 10.7568 25.4674 10.7568 22.0343V17.8027" stroke="#2C0B4A" stroke-width="1.5" stroke-miterlimit="10" stroke-linecap="round" stroke-linejoin="round"/>
<path d="M29.4023 34.4903C29.7544 34.4903 30.0398 34.2044 30.0398 33.8516C30.0398 33.4989 29.7544 33.2129 29.4023 33.2129C29.0503 33.2129 28.7649 33.4989 28.7649 33.8516C28.7649 34.2044 29.0503 34.4903 29.4023 34.4903Z" fill="#2C0B4A"/>
<path d="M16.1753 24.9899C16.6534 24.431 17.5299 24.3511 18.0876 24.8302L18.247 24.9899" stroke="#2C0B4A" stroke-width="1.5" stroke-miterlimit="10" stroke-linecap="round" stroke-linejoin="round"/>
<path d="M33.7052 7.26507C33.7052 7.26507 37.769 8.62235 34.8208 9.18124C31.8726 9.74012 28.2072 8.14331 31.3945 6.62635C34.5817 5.10938 38.8048 6.30698 35.9363 3.91177C33.0678 1.51657 29.4025 -1.19801 29.7212 2.95369C30.0399 7.10539 29.4025 13.9717 33.5459 11.7361C37.6893 9.5006 41.3546 8.86187 37.6893 6.86587C34.024 4.86986 30.1196 2.55449 28.0479 5.26906C25.9762 7.98363 25.02 10.0595 28.2072 12.1353C31.3945 14.2112 39.3626 15.6483 35.5379 16.9257C32.51 17.9637 28.9244 13.6523 27.2511 15.6483" stroke="#EFA0EB" stroke-width="1.5" stroke-miterlimit="10" stroke-linecap="round" stroke-linejoin="round"/>
<path d="M26.7729 36.8065L22.5498 25.549L26.5339 23.6328L32.6693 33.9322C33.7052 35.6887 32.9881 38.0041 31.0757 38.7226C29.3227 39.4412 27.4104 38.563 26.7729 36.8065Z" fill="white" stroke="#2C0B4A" stroke-width="1.5" stroke-miterlimit="10" stroke-linecap="round" stroke-linejoin="round"/>
<path d="M26.2151 23.9515C26.2151 23.9515 27.7291 19.6402 25.5777 17.9635C23.4263 16.2869 21.6733 17.0853 22.2311 18.8418C22.7092 20.6781 23.0279 21.1571 23.0279 21.1571C23.0279 21.1571 22.1514 24.3508 23.1076 24.9096C24.3028 24.6701 26.2151 23.9515 26.2151 23.9515Z" fill="white" stroke="#2C0B4A" stroke-width="1.5" stroke-miterlimit="10" stroke-linecap="round" stroke-linejoin="round"/>
<path d="M1.27487 34.1724C0.239016 35.9289 0.956148 38.2443 2.8685 38.9629C4.62149 39.6814 6.53384 38.8032 7.25097 37.0467L11.3944 25.7892L7.41033 23.873L4.22308 29.1425" fill="white"/>
<path d="M1.27487 34.1724C0.239016 35.9289 0.956148 38.2443 2.8685 38.9629C4.62149 39.6814 6.53384 38.8032 7.25097 37.0467L11.3944 25.7892L7.41033 23.873L4.22308 29.1425" stroke="#2C0B4A" stroke-width="1.5" stroke-miterlimit="10" stroke-linecap="round" stroke-linejoin="round"/>
<path d="M7.7291 24.1117C7.7291 24.1117 6.21515 19.8003 8.36655 18.1237C10.5179 16.447 12.2709 17.2454 11.7132 19.0019C11.1554 20.7584 10.9163 21.3173 10.9163 21.3173C10.9163 21.3173 11.7928 24.5109 10.8367 25.0698C9.64145 24.8303 7.7291 24.1117 7.7291 24.1117Z" fill="white" stroke="#2C0B4A" stroke-width="1.5" stroke-miterlimit="10" stroke-linecap="round" stroke-linejoin="round"/>
<path d="M2.86844 32.735C3.35251 32.735 3.74493 32.3418 3.74493 31.8568C3.74493 31.3717 3.35251 30.9785 2.86844 30.9785C2.38436 30.9785 1.99194 31.3717 1.99194 31.8568C1.99194 32.3418 2.38436 32.735 2.86844 32.735Z" fill="#2C0B4A"/>
</g>
<defs>
<clipPath id="clip0_24916_7463">
<rect width="40" height="40" fill="white"/>
</clipPath>
</defs>
</svg>
