<svg width="40" height="40" viewBox="0 0 40 40" fill="none" xmlns="http://www.w3.org/2000/svg">
<g clip-path="url(#clip0_24916_7258)">
<path d="M12.9438 16.162C13.5398 15.8641 17.9345 13.0335 18.9774 13.406C20.0202 13.7784 23.7446 17.5773 28.7353 17.3538L28.6608 14.8212C28.6608 10.5009 25.1599 7 20.8396 7C16.5193 7 13.0183 10.5009 13.0183 14.8212L12.9438 16.162Z" stroke="#2C0B4A" stroke-width="1.5" stroke-miterlimit="10" stroke-linecap="round" stroke-linejoin="round"/>
<path d="M22.7019 19.7383C23.2978 20.4087 24.1917 20.4087 24.7876 19.8873L24.9365 19.7383" stroke="#2C0B4A" stroke-width="1.5" stroke-miterlimit="10" stroke-linecap="round" stroke-linejoin="round"/>
<path d="M16.3704 19.7383C16.9663 20.4087 17.8601 20.4087 18.456 19.8873L18.605 19.7383" stroke="#2C0B4A" stroke-width="1.5" stroke-miterlimit="10" stroke-linecap="round" stroke-linejoin="round"/>
<path d="M7.28289 39.1044H4.97377C4.37786 34.4862 7.65533 30.3148 12.2736 29.7189C13.3909 29.57 14.3592 29.4955 15.1786 29.421C16.3704 29.272 17.2643 28.3782 17.4132 27.1864L17.5622 26.9629" stroke="#2C0B4A" stroke-width="1.5" stroke-miterlimit="10" stroke-linecap="round" stroke-linejoin="round"/>
<path d="M24.8621 39.1035H16.7429" stroke="#2C0B4A" stroke-width="1.5" stroke-miterlimit="10" stroke-linecap="round" stroke-linejoin="round"/>
<path d="M35.5884 35.9766C35.8119 36.9449 35.8119 38.0622 35.5884 39.1051H28.959" stroke="#2C0B4A" stroke-width="1.5" stroke-miterlimit="10" stroke-linecap="round" stroke-linejoin="round"/>
<path d="M24.0427 27.1855L24.1917 27.558C24.2662 28.6008 25.0856 29.4202 26.1284 29.5692L29.4803 30.0906C30.2252 30.2396 30.9701 30.463 31.6405 30.761" stroke="#2C0B4A" stroke-width="1.5" stroke-miterlimit="10" stroke-linecap="round" stroke-linejoin="round"/>
<path d="M16.5938 28.9004C18.307 31.8799 23.2977 31.8054 25.0109 29.2728" stroke="#2C0B4A" stroke-width="1.5" stroke-miterlimit="10" stroke-linecap="round" stroke-linejoin="round"/>
<path d="M27.3945 17.2786V20.4815C27.3945 24.2804 24.3405 27.4089 20.4672 27.4089C16.6683 27.4089 13.5398 24.3549 13.5398 20.4815V15.8633" stroke="#2C0B4A" stroke-width="1.5" stroke-miterlimit="10" stroke-linecap="round" stroke-linejoin="round"/>
<path d="M34.0242 34.0386C34.4356 34.0386 34.7691 33.7051 34.7691 33.2937C34.7691 32.8823 34.4356 32.5488 34.0242 32.5488C33.6128 32.5488 33.2793 32.8823 33.2793 33.2937C33.2793 33.7051 33.6128 34.0386 34.0242 34.0386Z" fill="#2C0B4A"/>
<path d="M31.6403 35.5294C31.7148 35.6039 29.9271 38.9559 29.9271 38.9559L26.7986 39.2538C25.9048 39.3283 25.0109 39.1048 24.266 38.7324C23.8191 38.5089 23.1487 37.7641 22.5528 37.0192C21.7334 36.0508 22.3293 34.4866 23.5956 34.4121C23.6701 34.4121 23.7446 34.4121 23.8191 34.4866C25.3089 35.306 27.0221 35.5294 28.6608 35.157C29.6292 34.9335 30.821 34.9335 31.6403 35.5294Z" stroke="#2C0B4A" stroke-width="1.5" stroke-miterlimit="10"/>
<path d="M10.1878 35.5294C10.1133 35.6039 11.901 38.9559 11.901 38.9559L15.0295 39.2538C15.9234 39.3283 16.8172 39.1048 17.5621 38.7324C18.009 38.5089 18.6794 37.7641 19.2753 37.0192C20.0947 36.0508 19.4988 34.4866 18.2325 34.4121C18.158 34.4121 18.0835 34.4121 18.009 34.4866C16.5193 35.306 14.8061 35.5294 13.1673 35.157C12.1245 34.9335 11.0072 34.9335 10.1878 35.5294Z" stroke="#2C0B4A" stroke-width="1.5" stroke-miterlimit="10"/>
<path d="M19.499 23.1641C20.0949 23.8345 20.9888 23.8345 21.5847 23.313L21.7337 23.1641" stroke="#2C0B4A" stroke-width="1.5" stroke-miterlimit="10" stroke-linecap="round" stroke-linejoin="round"/>
<path d="M30.0762 18.75H34.6944" stroke="#C090FC" stroke-width="1.5" stroke-miterlimit="10" stroke-linecap="round" stroke-linejoin="round"/>
<path d="M31.0444 16.3657H36.3331C37.3014 16.3657 38.1953 15.9933 38.8657 15.2484C39.2381 14.8015 39.5361 14.1311 39.3126 13.3862C38.7167 11.524 36.5565 11.5985 36.5565 13.9821" stroke="#C090FC" stroke-width="1.5" stroke-miterlimit="10" stroke-linecap="round" stroke-linejoin="round"/>
<path d="M31.0444 21.1328H36.3331C37.3014 21.1328 38.1953 21.5053 38.8657 22.2501C39.2381 22.6971 39.5361 23.3674 39.3126 24.1123C38.7167 25.9745 36.5565 25.9 36.5565 23.5164" stroke="#C090FC" stroke-width="1.5" stroke-miterlimit="10" stroke-linecap="round" stroke-linejoin="round"/>
<path d="M10.1881 18.2285H5.56982" stroke="#C090FC" stroke-width="1.5" stroke-miterlimit="10" stroke-linecap="round" stroke-linejoin="round"/>
<path d="M9.14513 15.844H3.85649C2.88815 15.844 1.99429 15.4715 1.3239 14.7266C0.951462 14.2797 0.727998 13.6838 0.951462 12.9389C1.54737 11.0767 3.70751 11.1512 3.70751 13.5348" stroke="#C090FC" stroke-width="1.5" stroke-miterlimit="10" stroke-linecap="round" stroke-linejoin="round"/>
<path d="M9.14518 20.5371H3.85654C2.8882 20.5371 1.99434 20.9095 1.32395 21.6544C0.95151 22.1014 0.653559 22.7717 0.877023 23.5166C1.47293 25.3788 3.63307 25.3043 3.63307 22.9207" stroke="#C090FC" stroke-width="1.5" stroke-miterlimit="10" stroke-linecap="round" stroke-linejoin="round"/>
</g>
<defs>
<clipPath id="clip0_24916_7258">
<rect width="40" height="40" fill="white"/>
</clipPath>
</defs>
</svg>
