<svg width="40" height="40" viewBox="0 0 40 40" fill="none" xmlns="http://www.w3.org/2000/svg">
<g clip-path="url(#clip0_24916_7230)">
<path d="M34.1023 13.8L38.7374 4.4C39.5263 2.9 38.4415 1 36.765 1H3.23497C1.55847 1 0.473677 2.9 1.26262 4.4L18.2249 37.8C19.1124 39.4 21.282 39.4 22.1696 37.8L28.1853 25.6" stroke="#2C0B4A" stroke-width="1.5" stroke-linecap="round" stroke-linejoin="round"/>
<path d="M11.5663 4.30078H9.06634C7.46634 4.30078 6.46634 6.00078 7.16634 7.30078L9.66634 12.0008" stroke="#C090FC" stroke-width="1.5" stroke-linecap="round" stroke-linejoin="round"/>
<path d="M31 21C31.5523 21 32 20.5523 32 20C32 19.4477 31.5523 19 31 19C30.4477 19 30 19.4477 30 20C30 20.5523 30.4477 21 31 21Z" fill="#2C0B4A"/>
<path d="M11.0663 15.4992C11.5633 15.4992 11.9663 15.0963 11.9663 14.5992C11.9663 14.1022 11.5633 13.6992 11.0663 13.6992C10.5692 13.6992 10.1663 14.1022 10.1663 14.5992C10.1663 15.0963 10.5692 15.4992 11.0663 15.4992Z" fill="#C090FC"/>
</g>
<defs>
<clipPath id="clip0_24916_7230">
<rect width="40" height="40" fill="white"/>
</clipPath>
</defs>
</svg>
