<svg width="41" height="40" viewBox="0 0 41 40" fill="none" xmlns="http://www.w3.org/2000/svg">
<path d="M22.8695 19.2466L23.6099 19.5783C23.7135 19.6247 23.8221 19.6467 23.9288 19.6467C24.2273 19.6467 24.5123 19.4747 24.6422 19.1846C24.8187 18.7908 24.6424 18.3286 24.2486 18.1522L23.5083 17.8206C23.1145 17.6438 22.6523 17.8204 22.4759 18.2142C22.2995 18.608 22.4758 19.0702 22.8695 19.2466Z" fill="#2C0B4A"/>
<path d="M18.0273 19.6485C18.134 19.6485 18.2425 19.6264 18.3462 19.58L19.0865 19.2484C19.4803 19.072 19.6565 18.6098 19.4801 18.216C19.3037 17.8222 18.8414 17.6459 18.4478 17.8224L17.7074 18.1541C17.3137 18.3305 17.1374 18.7927 17.3138 19.1864C17.4438 19.4764 17.7288 19.6485 18.0273 19.6485Z" fill="#2C0B4A"/>
<path d="M39.0403 30.2653C38.8257 29.8909 38.3482 29.7617 37.974 29.9762C37.5997 30.1908 37.4703 30.6682 37.6849 31.0425L38.9557 33.2587C39.4427 34.1081 39.5481 35.0898 39.2523 36.0232C38.9565 36.9565 38.3049 37.6984 37.4176 38.1122C36.5304 38.526 35.543 38.5483 34.638 38.1748C33.7328 37.8015 33.0484 37.0897 32.7108 36.1707L27.5884 22.2247L31.5651 20.3703L34.1872 24.9428C34.4018 25.3171 34.8792 25.4468 35.2535 25.2319C35.6278 25.0173 35.7572 24.5399 35.5426 24.1656L32.5633 18.9702C32.4002 18.6856 32.0831 18.5406 31.7732 18.5858L32.0347 15.597C32.1557 14.2133 31.6506 12.8679 30.649 11.9058L30.1688 11.4445C29.2063 7.17716 25.3773 4.10352 20.9771 4.10352C16.5833 4.10352 12.7477 7.17958 11.7854 11.4445L11.3053 11.9057C10.3037 12.8678 9.7986 14.2132 9.91962 15.597L10.1811 18.5858C9.87134 18.5407 9.55414 18.6857 9.39094 18.9702L1.64324 32.4815C0.946273 33.6968 0.789318 35.1598 1.21253 36.4953C1.63582 37.8308 2.60677 38.9363 3.87648 39.5284C4.54641 39.8408 5.2722 39.9975 5.99878 39.9975H6.00049L5.99878 39.9995H35.9556L35.9544 39.9975H35.9556C36.6821 39.9975 37.408 39.8407 38.0779 39.5284C39.3476 38.9363 40.3185 37.8308 40.7418 36.4953C41.165 35.1597 41.0081 33.6968 40.3111 32.4815L39.0403 30.2653ZM32.32 38.437H9.63438C10.1026 37.9447 10.472 37.3583 10.7103 36.7095L13.0601 30.3118L15.3418 29.9557C15.6056 29.9146 15.8581 29.8451 16.097 29.7513C17.4125 30.9871 19.1595 31.6858 20.9771 31.6858C22.7948 31.6858 24.5416 30.9871 25.8573 29.7513C26.096 29.8452 26.3486 29.9146 26.6125 29.9557L28.8941 30.3118L31.244 36.7095C31.4824 37.3583 31.8518 37.9447 32.32 38.437ZM15.796 17.9891L15.653 16.3543L16.5814 13.8886C16.6546 13.6944 16.7032 13.4931 16.7293 13.2896C17.3404 12.9006 17.9962 12.5991 18.6875 12.3913C20.8015 14.1828 23.3373 15.3317 26.0689 15.737L26.3014 16.3543L26.1583 17.9891C26.0693 19.0073 26.1881 20.0371 26.5019 21.0072L26.2772 21.112C25.9093 21.2836 25.7341 21.7083 25.8741 22.0894L26.3092 23.2741C25.0886 25.0178 23.1199 26.0495 20.9772 26.0495C18.834 26.0495 16.8657 25.018 15.6453 23.2741L16.0804 22.0895C16.2204 21.7085 16.0452 21.2836 15.6773 21.1121L15.4526 21.0073C15.7663 20.0371 15.8851 19.0073 15.796 17.9891ZM25.205 26.4219C25.8422 26.03 26.4257 25.5479 26.9376 24.9853L28.2779 28.6342L26.8533 28.412C26.5746 28.3684 26.3192 28.2673 26.0959 28.1236C26.0948 28.1229 26.0937 28.1222 26.0926 28.1216C25.5544 27.7734 25.205 27.1031 25.205 26.4219ZM18.2486 27.1416C19.1091 27.4489 20.0292 27.612 20.9771 27.612C21.925 27.612 22.8451 27.4489 23.7057 27.1415C23.8245 27.7832 24.1169 28.3644 24.5365 28.833C23.5431 29.6597 22.2839 30.1234 20.9771 30.1234C19.6704 30.1234 18.4112 29.6597 17.4177 28.833C17.8374 28.3644 18.1297 27.7832 18.2486 27.1416ZM16.7493 26.4221C16.7493 27.3868 16.054 28.2631 15.1009 28.4119L13.6763 28.6342L15.0166 24.9853C15.5286 25.548 16.1121 26.0301 16.7493 26.4221ZM30.4781 15.4608L30.1413 19.3102L27.9311 20.3408C27.7242 19.6239 27.6496 18.8706 27.7148 18.1253L27.8733 16.3135C27.8836 16.1969 27.8675 16.0796 27.8262 15.97L26.8352 13.3382C26.7284 13.0544 26.7429 12.7354 26.8751 12.4626C27.0319 12.139 27.3248 11.9172 27.6787 11.8538C27.7457 11.8418 27.8126 11.8359 27.8789 11.8359C28.1625 11.8359 28.4334 11.9441 28.6436 12.1461L29.5664 13.0326C30.2255 13.6655 30.5577 14.5506 30.4781 15.4608ZM20.9771 5.66604C24.1071 5.66604 26.8897 7.53029 28.1396 10.2859C27.8982 10.2628 27.6512 10.2714 27.4035 10.3158C26.5516 10.4683 25.8465 11.0025 25.4691 11.7813C25.151 12.4378 25.1159 13.2058 25.373 13.8888L25.4273 14.033C23.1935 13.5477 21.1325 12.4941 19.4073 10.946C19.2149 10.7734 18.9494 10.707 18.6986 10.7689C17.8999 10.9658 17.1372 11.2636 16.4205 11.6569C16.0304 10.9459 15.3566 10.46 14.5509 10.3157C14.3032 10.2714 14.0562 10.2628 13.8148 10.2859C15.0656 7.53146 17.8519 5.66604 20.9771 5.66604ZM12.3878 13.0326L13.3106 12.1461C13.5698 11.897 13.9216 11.7906 14.2755 11.8538C14.6294 11.9172 14.9223 12.139 15.0791 12.4626C15.2112 12.7353 15.2258 13.0544 15.1191 13.338L14.128 15.97C14.0868 16.0795 14.0707 16.1968 14.0809 16.3134L14.2394 18.1252C14.3046 18.8705 14.2301 19.6238 14.0231 20.3407L11.8129 19.3101L11.476 15.4607C11.3967 14.5506 11.7288 13.6655 12.3878 13.0326ZM4.53688 38.1123C3.64952 37.6985 2.99795 36.9566 2.70216 36.0232C2.40637 35.0899 2.51169 34.1081 2.99873 33.2587L10.3894 20.3703L14.3661 22.2247L9.24367 36.1707C8.90609 37.0898 8.2217 37.8016 7.31653 38.1749C6.41144 38.5484 5.42423 38.5261 4.53688 38.1123Z" fill="#2C0B4A"/>
<path d="M19.1817 22.9935C19.4869 23.2986 19.9815 23.2986 20.2866 22.9935C20.4713 22.8088 20.7169 22.7071 20.9781 22.7071C21.2393 22.7071 21.4848 22.8088 21.6696 22.9935C21.8221 23.1461 22.0221 23.2223 22.222 23.2223C22.4219 23.2223 22.6219 23.146 22.7744 22.9935C23.0795 22.6884 23.0795 22.1937 22.7744 21.8886C22.2946 21.4088 21.6567 21.1445 20.9781 21.1445C20.2994 21.1445 19.6615 21.4088 19.1818 21.8886C18.8766 22.1937 18.8766 22.6883 19.1817 22.9935Z" fill="#2C0B4A"/>
<path d="M35.9305 10.8046L37.1957 11.535L34.3602 13.1495C33.9852 13.363 33.8543 13.84 34.0678 14.215C34.2119 14.468 34.4759 14.6099 34.7474 14.6099C34.8785 14.6099 35.0114 14.5768 35.1333 14.5074L39.1529 12.2187C39.3962 12.0802 39.5468 11.8221 39.5476 11.5422C39.5485 11.2622 39.3995 11.0032 39.157 10.8632L37.9986 10.1944L40.5338 8.98678C40.9233 8.80123 41.0888 8.33504 40.9032 7.94542C40.7177 7.55588 40.2513 7.39064 39.8619 7.57604L35.9852 9.42257C35.7232 9.54734 35.5519 9.80711 35.5405 10.097C35.5291 10.387 35.6793 10.6595 35.9305 10.8046Z" fill="#C090FC"/>
<path d="M31.2647 8.56973C31.4084 8.68402 31.58 8.73957 31.7505 8.73957C31.9804 8.73957 32.2082 8.63855 32.3624 8.44457L35.2416 4.82443C35.4158 4.60529 35.4596 4.30974 35.3562 4.04958C35.2529 3.78941 35.0181 3.60449 34.741 3.5648L33.4169 3.37511L35.3206 1.31086C35.6131 0.993667 35.593 0.49944 35.2759 0.206936C34.9587 -0.0855692 34.4645 -0.0655688 34.1719 0.251624L31.2609 3.40824C31.0641 3.62152 31.0019 3.92629 31.0991 4.19973C31.1964 4.47318 31.4372 4.67013 31.7245 4.71123L33.1707 4.91834L31.1397 7.47205C30.8709 7.80971 30.927 8.30113 31.2647 8.56973Z" fill="#C090FC"/>
<path d="M1.42262 8.98685L3.95776 10.1945L2.79937 10.8633C2.55687 11.0033 2.40788 11.2623 2.40874 11.5422C2.4096 11.8222 2.56015 12.0803 2.80344 12.2188L6.82307 14.5075C6.9451 14.577 7.07792 14.61 7.20894 14.61C7.48059 14.61 7.7445 14.4681 7.88857 14.2151C8.10201 13.8402 7.97115 13.3631 7.59621 13.1496L4.76067 11.5351L6.02586 10.8046C6.2772 10.6595 6.42736 10.3871 6.41587 10.0971C6.40447 9.80718 6.23313 9.54741 5.97117 9.42264L2.09443 7.57611C1.70497 7.39056 1.23871 7.55595 1.05316 7.94549C0.867604 8.33503 1.033 8.80129 1.42262 8.98685Z" fill="#C090FC"/>
<path d="M8.53845 3.37522L7.21437 3.56491C6.93725 3.6046 6.70248 3.78953 6.59912 4.04969C6.49576 4.30985 6.53943 4.60548 6.71373 4.82454L9.59292 8.44468C9.74714 8.63859 9.97496 8.73968 10.2049 8.73968C10.3753 8.73968 10.5469 8.68421 10.6907 8.56984C11.0283 8.30124 11.0844 7.80975 10.8158 7.47208L8.7847 4.91837L10.2309 4.71126C10.5182 4.67009 10.759 4.47313 10.8562 4.19977C10.9534 3.92633 10.8911 3.62163 10.6945 3.40827L7.78336 0.251658C7.49093 -0.0654568 6.99663 -0.0856915 6.67936 0.206969C6.36217 0.499474 6.34216 0.993701 6.63467 1.31089L8.53845 3.37522Z" fill="#C090FC"/>
<path d="M36.6236 28.3809C37.055 28.3809 37.4048 28.0311 37.4048 27.5996C37.4048 27.1681 37.055 26.8184 36.6236 26.8184C36.1921 26.8184 35.8423 27.1681 35.8423 27.5996C35.8423 28.0311 36.1921 28.3809 36.6236 28.3809Z" fill="#2C0B4A"/>
</svg>
