<svg width="40" height="40" viewBox="0 0 40 40" fill="none" xmlns="http://www.w3.org/2000/svg">
<g clip-path="url(#clip0_24916_7236)">
<path d="M22.0635 23.2344C22.0635 23.3142 22.0635 23.3142 22.0635 23.2344C22.3809 24.1126 23.254 24.5118 24.127 24.2723L24.3651 24.1925" stroke="#2C0B4A" stroke-width="1.5" stroke-miterlimit="10" stroke-linecap="round" stroke-linejoin="round"/>
<path d="M15 24.1129C15.7937 24.5919 16.746 24.3524 17.2222 23.554L17.381 23.3145" stroke="#2C0B4A" stroke-width="1.5" stroke-miterlimit="10" stroke-linecap="round" stroke-linejoin="round"/>
<path d="M26.8254 21.0775V24.5106C26.8254 28.5825 23.5714 31.9358 19.4444 31.9358C15.3968 31.9358 12.0635 28.6623 12.0635 24.5106V19.5605" stroke="#2C0B4A" stroke-width="1.5" stroke-miterlimit="10" stroke-linecap="round" stroke-linejoin="round"/>
<path d="M18.0952 28.0252C18.9682 27.0671 20.0793 27.0671 21.0317 28.0252" stroke="#2C0B4A" stroke-width="1.5" stroke-miterlimit="10" stroke-linecap="round" stroke-linejoin="round"/>
<path d="M30.0794 30.4198C28.8889 29.5415 27.381 29.0625 25.9524 29.0625" stroke="#2C0B4A" stroke-width="1.5" stroke-miterlimit="10" stroke-linecap="round" stroke-linejoin="round"/>
<path d="M13.2539 28.9824C9.92057 28.9824 6.26978 31.9365 6.26978 35.2898V39.202H33.0158V35.2898" stroke="#2C0B4A" stroke-width="1.5" stroke-miterlimit="10" stroke-linecap="round" stroke-linejoin="round"/>
<path d="M30.7937 25.3105L30 27.3864" stroke="#C090FC" stroke-width="1.5" stroke-miterlimit="10" stroke-linecap="round" stroke-linejoin="round"/>
<path d="M35.9523 24.0332L35.238 26.1091" stroke="#C090FC" stroke-width="1.5" stroke-miterlimit="10" stroke-linecap="round" stroke-linejoin="round"/>
<path d="M8.33345 22.9941L7.53979 25.07" stroke="#C090FC" stroke-width="1.5" stroke-miterlimit="10" stroke-linecap="round" stroke-linejoin="round"/>
<path d="M4.44453 23.3945L3.65088 25.5502" stroke="#C090FC" stroke-width="1.5" stroke-miterlimit="10" stroke-linecap="round" stroke-linejoin="round"/>
<path d="M7.06343 19.8008L6.26978 21.8766" stroke="#C090FC" stroke-width="1.5" stroke-miterlimit="10" stroke-linecap="round" stroke-linejoin="round"/>
<path d="M2.93647 19.5605L2.14282 21.6364" stroke="#C090FC" stroke-width="1.5" stroke-miterlimit="10" stroke-linecap="round" stroke-linejoin="round"/>
<path d="M11.6667 16.128H4.04767C2.22227 16.128 0.793701 14.6908 0.793701 12.8545C0.793701 11.0182 2.22227 9.58104 4.04767 9.58104H6.42862C6.42862 9.42136 6.42862 9.34152 6.42862 9.18184C6.42862 8.22376 6.74608 7.34552 7.30164 6.62695" stroke="#C090FC" stroke-width="1.5" stroke-miterlimit="10" stroke-linecap="round" stroke-linejoin="round"/>
<path d="M10.7144 4.87109C12.1429 4.87109 13.4128 5.58966 14.1271 6.62758C14.6826 6.38806 15.2382 6.14854 15.8731 6.14854C16.508 6.14854 17.1429 6.30822 17.6191 6.62758" stroke="#C090FC" stroke-width="1.5" stroke-miterlimit="10" stroke-linecap="round" stroke-linejoin="round"/>
<path d="M8.88883 5.98838C9.23948 5.98838 9.52375 5.70242 9.52375 5.34966C9.52375 4.9969 9.23948 4.71094 8.88883 4.71094C8.53817 4.71094 8.25391 4.9969 8.25391 5.34966C8.25391 5.70242 8.53817 5.98838 8.88883 5.98838Z" fill="#C090FC"/>
<path d="M17.143 10.5391C13.889 11.6568 11.5081 14.7706 11.5081 18.4433L11.4287 19.8804C12.0636 19.561 16.7462 16.5271 17.8573 16.9263C18.9684 17.3255 22.9366 21.3973 28.2541 21.1578L28.1747 18.4433C28.1747 16.6069 28.0954 15.9682 27.0636 14.6109" stroke="#2C0B4A" stroke-width="1.5" stroke-miterlimit="10" stroke-linecap="round" stroke-linejoin="round"/>
<path d="M38.6508 10.5393C38.9683 10.0603 39.127 9.42158 39.127 8.78286C39.127 6.94653 37.6984 5.50941 35.873 5.50941H33.4921C33.4921 5.34973 33.4921 5.26989 33.4921 5.11021C33.4921 2.715 31.5873 0.798828 29.2064 0.798828C27.7778 0.798828 26.508 1.51739 25.7937 2.55532C25.3175 2.23595 24.6826 2.07627 24.0476 2.07627C22.1429 2.07627 20.6349 3.59324 20.6349 5.50941H20.1588C18.3334 5.50941 16.9048 6.94653 16.9048 8.78286C16.9048 10.6192 18.3334 12.0563 20.1588 12.0563H31.7461" stroke="#2C0B4A" stroke-width="1.5" stroke-miterlimit="10" stroke-linecap="round" stroke-linejoin="round"/>
<path d="M32.9366 10.3789H38.3334L35.7937 14.85H38.6508L33.0953 23.0735L33.8096 17.325H30.7937L32.9366 10.3789Z" stroke="#C090FC" stroke-width="1.5" stroke-miterlimit="10" stroke-linecap="round" stroke-linejoin="round"/>
<path d="M31.9841 33.4538C32.4663 33.4538 32.8571 33.0605 32.8571 32.5755C32.8571 32.0905 32.4663 31.6973 31.9841 31.6973C31.5019 31.6973 31.1111 32.0905 31.1111 32.5755C31.1111 33.0605 31.5019 33.4538 31.9841 33.4538Z" fill="#2C0B4A"/>
</g>
<defs>
<clipPath id="clip0_24916_7236">
<rect width="40" height="40" fill="white"/>
</clipPath>
</defs>
</svg>
