<svg width="40" height="40" viewBox="0 0 40 40" fill="none" xmlns="http://www.w3.org/2000/svg">
<path d="M31.5726 30.4781V37.2961C31.5726 38.2987 30.7704 39.0006 29.8681 39.0006H5.70449C4.70185 39.0006 4 38.1985 4 37.2961V5.01113C4 4.00849 4.80211 3.30664 5.70449 3.30664H10.1161" stroke="#2C0B4A" stroke-width="1.5" stroke-miterlimit="10" stroke-linecap="round" stroke-linejoin="round"/>
<path d="M15.4302 3.20508H29.8682C30.8708 3.20508 31.5727 4.00719 31.5727 4.90956V18.8462" stroke="#2C0B4A" stroke-width="1.5" stroke-miterlimit="10" stroke-linecap="round" stroke-linejoin="round"/>
<path d="M7.9104 3.9082V24.6628" stroke="#2C0B4A" stroke-width="1.5" stroke-miterlimit="10" stroke-linecap="round" stroke-linejoin="round"/>
<path d="M7.81006 31.8809V38.6988" stroke="#2C0B4A" stroke-width="1.5" stroke-miterlimit="10" stroke-linecap="round" stroke-linejoin="round"/>
<path d="M25.9578 21.4546C26.3589 20.6525 26.5594 19.7501 26.5594 18.8477C26.4591 14.1353 20.6438 14.9375 19.4407 17.043C18.5383 14.9375 12.8233 14.0351 12.723 18.8477C12.6227 23.0588 19.5409 27.7712 19.5409 27.7712C20.2428 27.2699 21.5462 26.4678 22.8497 25.3649" stroke="#EFA0EB" stroke-width="1.5" stroke-miterlimit="10" stroke-linecap="round" stroke-linejoin="round"/>
<path d="M24.5541 24.3627C24.9418 24.3627 25.256 24.0484 25.256 23.6608C25.256 23.2732 24.9418 22.959 24.5541 22.959C24.1665 22.959 23.8523 23.2732 23.8523 23.6608C23.8523 24.0484 24.1665 24.3627 24.5541 24.3627Z" fill="#EFA0EB"/>
<path d="M15.1292 11.628L12.6226 10.124L10.116 11.628V1H15.1292V11.628Z" stroke="#EFA0EB" stroke-width="1.5" stroke-miterlimit="10" stroke-linecap="round" stroke-linejoin="round"/>
<path d="M36.8865 25.4648H30.269V29.8765H36.8865V25.4648Z" stroke="#2C0B4A" stroke-width="1.5" stroke-miterlimit="10" stroke-linecap="round" stroke-linejoin="round"/>
<path d="M35.7837 24.6622V23.2585C35.7837 22.0554 34.781 21.0527 33.5779 21.0527C32.3747 21.0527 31.3721 22.0554 31.3721 23.2585V23.1583" stroke="#2C0B4A" stroke-width="1.5" stroke-miterlimit="10" stroke-linecap="round" stroke-linejoin="round"/>
<path d="M33.4775 28.3724C33.8651 28.3724 34.1793 28.0582 34.1793 27.6706C34.1793 27.283 33.8651 26.9688 33.4775 26.9688C33.0899 26.9688 32.7756 27.283 32.7756 27.6706C32.7756 28.0582 33.0899 28.3724 33.4775 28.3724Z" fill="#2C0B4A"/>
<path d="M7.81 29.3744C8.19762 29.3744 8.51185 29.0602 8.51185 28.6725C8.51185 28.2849 8.19762 27.9707 7.81 27.9707C7.42238 27.9707 7.10815 28.2849 7.10815 28.6725C7.10815 29.0602 7.42238 29.3744 7.81 29.3744Z" fill="#2C0B4A"/>
</svg>
