<svg width="40" height="40" viewBox="0 0 40 40" fill="none" xmlns="http://www.w3.org/2000/svg">
<g clip-path="url(#clip0_22459_5842)">
<path d="M20 8.90625C13.8829 8.90625 8.90625 13.8829 8.90625 20C8.90625 26.1171 13.8829 31.0938 20 31.0938C26.1171 31.0938 31.0938 26.1171 31.0938 20C31.0938 13.8829 26.1171 8.90625 20 8.90625ZM20 29.5312C14.7445 29.5312 10.4688 25.2555 10.4688 20C10.4688 14.7445 14.7445 10.4688 20 10.4688C25.2555 10.4688 29.5312 14.7445 29.5312 20C29.5312 25.2555 25.2555 29.5312 20 29.5312Z" fill="#C090FC"/>
<path d="M39.5852 0.0912501C39.33 -0.0442187 39.0208 -0.0278905 38.7813 0.133828C34.946 2.72531 32.6562 7.03594 32.6562 11.6648V21.8016C32.6562 22.8889 33.0797 23.9111 33.8484 24.6799L35.3125 26.144V37.6562C35.3125 38.9486 36.3639 40 37.6562 40C38.9486 40 40 38.9486 40 37.6562V0.78125C40 0.492266 39.8405 0.226875 39.5852 0.0912501ZM38.4375 37.6562C38.4375 38.087 38.087 38.4375 37.6562 38.4375C37.2255 38.4375 36.875 38.087 36.875 37.6562V25.8203C36.875 25.6131 36.7927 25.4145 36.6462 25.2679L34.9533 23.575C34.4796 23.1013 34.2188 22.4716 34.2188 21.8016V11.6648C34.2188 8.07258 35.772 4.69648 38.4375 2.36695V37.6562Z" fill="#2C0B4A"/>
<path d="M18.2077 13.8048C18.0383 13.408 17.5791 13.2237 17.1823 13.393C14.5313 14.5247 12.8184 17.1184 12.8184 20.0006C12.8184 20.432 13.1681 20.7819 13.5996 20.7819C14.0311 20.7819 14.3809 20.432 14.3809 20.0006C14.3809 17.7452 15.7213 15.7156 17.7959 14.8301C18.1927 14.6607 18.377 14.2016 18.2077 13.8048Z" fill="#C090FC"/>
<path d="M20.0001 12.8184L19.9606 12.8184C19.5291 12.8213 19.1817 13.1734 19.1846 13.6049C19.1875 14.0346 19.5367 14.3809 19.9658 14.3809C19.9675 14.3809 19.9694 14.3809 19.9711 14.3809L20.0001 14.3809C20.4315 14.3809 20.7813 14.0311 20.7813 13.5996C20.7813 13.1681 20.4315 12.8184 20.0001 12.8184Z" fill="#C090FC"/>
<path d="M30.8299 9.72578C29.4496 8.27141 27.8226 7.12703 25.9941 6.32453C24.1006 5.49359 22.0839 5.07227 20 5.07227C17.6188 5.07227 15.3425 5.61648 13.2345 6.68992C12.8501 6.8857 12.697 7.35609 12.8928 7.74063C13.0887 8.125 13.5591 8.27797 13.9436 8.08227C15.8299 7.1218 17.8675 6.63477 20 6.63477C23.7028 6.63477 27.1465 8.11445 29.6966 10.8014C29.8502 10.9633 30.0566 11.0448 30.2634 11.0448C30.4565 11.0448 30.6499 10.9737 30.801 10.8302C31.114 10.5332 31.1269 10.0388 30.8299 9.72578Z" fill="#2C0B4A"/>
<path d="M31.5883 28.1547C31.2498 27.8872 30.7586 27.9446 30.491 28.2831C27.9369 31.5135 24.113 33.3662 20 33.3662C17.4258 33.3662 14.9268 32.6331 12.7732 31.246C12.4105 31.0124 11.9269 31.1171 11.6933 31.4798C11.4598 31.8426 11.5644 32.326 11.9272 32.5596C14.3336 34.1095 17.1251 34.9286 20 34.9286C24.5937 34.9286 28.8643 32.8596 31.7166 29.252C31.9842 28.9137 31.9269 28.4224 31.5883 28.1547Z" fill="#2C0B4A"/>
<path d="M10.6217 29.5253L10.6102 29.5121C10.6061 29.507 10.602 29.5019 10.5977 29.4969C10.3198 29.1667 9.82695 29.1245 9.49687 29.4023C9.1668 29.6803 9.12445 30.1731 9.40242 30.5032L9.41 30.5122L9.41039 30.5119C9.41867 30.5223 9.42726 30.5328 9.43617 30.5431C9.5907 30.7231 9.8093 30.8155 10.0293 30.8155C10.2095 30.8155 10.3905 30.7535 10.5378 30.627C10.8652 30.3459 10.9027 29.8527 10.6217 29.5253Z" fill="#2C0B4A"/>
<path d="M9.6875 0C9.25602 0 8.90625 0.349766 8.90625 0.78125V9.21875H7.49937C7.49945 9.21437 7.5 9.21016 7.5 9.2057V0.78125C7.5 0.349766 7.15023 0 6.71875 0C6.28727 0 5.9375 0.349766 5.9375 0.78125V9.2057C5.9375 9.21008 5.93813 9.21437 5.93813 9.21875H4.53062C4.5307 9.21437 4.53125 9.21016 4.53125 9.2057V0.78125C4.53125 0.349766 4.18148 0 3.75 0C3.31852 0 2.96875 0.349766 2.96875 0.78125V9.2057C2.96875 9.21008 2.96937 9.21437 2.96937 9.21875H1.5625V0.78125C1.5625 0.349766 1.21273 0 0.78125 0C0.349766 0 0 0.349766 0 0.78125V10.3125C0 12.2289 1.16281 13.9585 2.89062 14.7062V37.6562C2.89062 38.9486 3.94203 40 5.23438 40C6.52672 40 7.57812 38.9486 7.57812 37.6562V14.7062C9.30594 13.9585 10.4688 12.2289 10.4688 10.3125V0.78125C10.4688 0.349766 10.119 0 9.6875 0ZM6.58 13.4078C6.24578 13.5044 6.01562 13.8104 6.01562 14.1584V37.6562C6.01562 38.087 5.66516 38.4375 5.23438 38.4375C4.80359 38.4375 4.45312 38.087 4.45312 37.6562V14.1584C4.45312 13.8104 4.22305 13.5044 3.88875 13.4078C2.67133 13.056 1.78086 12.011 1.59781 10.7812H8.87086C8.68789 12.011 7.79742 13.056 6.58 13.4078Z" fill="#2C0B4A"/>
</g>
<defs>
<clipPath id="clip0_22459_5842">
<rect width="40" height="40" fill="white"/>
</clipPath>
</defs>
</svg>
