<svg width="40" height="40" viewBox="0 0 40 40" fill="none" xmlns="http://www.w3.org/2000/svg">
<path d="M14.1567 6.05882L19.4901 1.35294C20.0391 0.882353 20.8234 0.882353 21.294 1.35294L26.3136 5.82354" stroke="#2C0B4A" stroke-width="1.5" stroke-miterlimit="10"/>
<path d="M23.2549 28.2559L38 38.5304" stroke="#2C0B4A" stroke-width="1.5" stroke-miterlimit="10"/>
<path d="M17.5293 28.2559L2.78418 38.5304" stroke="#2C0B4A" stroke-width="1.5" stroke-miterlimit="10"/>
<path d="M34.9412 13.5098L38 16.2549C38.3137 16.4902 38.4706 16.8823 38.4706 17.2745V20.1764" stroke="#2C0B4A" stroke-width="1.5" stroke-miterlimit="10" stroke-linecap="round"/>
<path d="M38.4705 26.8431V37.6666C38.4705 38.3725 37.8431 39 37.1372 39H3.41171C2.70582 39 2.07837 38.3725 2.07837 37.6666V17.196C2.07837 16.8039 2.23524 16.4117 2.54896 16.1765L5.60778 13.5098" stroke="#2C0B4A" stroke-width="1.5" stroke-miterlimit="10" stroke-linecap="round"/>
<path d="M38.392 24.4905C38.8251 24.4905 39.1763 24.1394 39.1763 23.7062C39.1763 23.273 38.8251 22.9219 38.392 22.9219C37.9588 22.9219 37.6077 23.273 37.6077 23.7062C37.6077 24.1394 37.9588 24.4905 38.392 24.4905Z" fill="#2C0B4A"/>
<path d="M34.8626 19.2354V8.98047C34.8626 7.32362 33.5195 5.98047 31.8626 5.98047H8.84302C7.18616 5.98047 5.84302 7.32361 5.84302 8.98047V19.3922" stroke="#EFA0EB" stroke-width="1.5" stroke-miterlimit="10"/>
<path d="M2 16.5684L17.3185 28.1555C19.1115 29.5116 21.589 29.5045 23.3741 28.138L38.0784 16.8821" stroke="#2C0B4A" stroke-width="1.5" stroke-miterlimit="10"/>
</svg>
