<svg width="40" height="40" viewBox="0 0 40 40" fill="none" xmlns="http://www.w3.org/2000/svg">
<g clip-path="url(#clip0_24943_7040)">
<path d="M24.8051 4.8197C23.1289 -1.11146 12.1692 -0.208891 12.1692 8.04316C12.2981 15.3926 25.5788 23 25.5788 23C26.8682 22.0974 37.699 15.5216 37.699 8.1721C37.699 -0.0799518 27.255 -1.11146 24.8051 4.8197Z" stroke="#EFA0EB" stroke-width="1.5" stroke-miterlimit="10" stroke-linecap="round" stroke-linejoin="round"/>
<path d="M30.4785 4.30469C32.5415 4.30469 34.2177 5.98089 34.2177 8.0439" stroke="#EFA0EB" stroke-width="1.5" stroke-miterlimit="10" stroke-linecap="round" stroke-linejoin="round"/>
<path d="M34.3466 11.5238C34.7739 11.5238 35.1203 11.1775 35.1203 10.7502C35.1203 10.3229 34.7739 9.97656 34.3466 9.97656C33.9194 9.97656 33.573 10.3229 33.573 10.7502C33.573 11.1775 33.9194 11.5238 34.3466 11.5238Z" fill="#EFA0EB"/>
<path d="M24.9995 30.6772L31.4616 26.8706C33.6924 26.7171 34.7843 29.5557 33.7456 30.7479L22.5446 37.3461C21.2522 38.1074 20.0659 38.458 18.7629 38.4132M15.4685 32.2296C16.8376 32.5836 20.1237 33.4334 22.3143 33.9999C25.0527 34.708 26.1255 31.4067 22.1844 28.8537C20.3077 27.638 17.8998 28.4761 15.4388 25.2834C13.6175 23.5708 12.3699 23.0291 10.6467 24.0442L1.59969 29.3735L5.91391 36.6973L9.7912 34.4133C10.7803 35.1073 11.6325 35.7659 12.5201 36.2876" stroke="#2C0B4A" stroke-width="1.5" stroke-linecap="round" stroke-linejoin="round"/>
<path d="M14.6507 37.935C14.875 38.3157 15.3654 38.4425 15.7461 38.2182C16.1268 37.994 16.2536 37.5036 16.0293 37.1229C15.8051 36.7422 15.3147 36.6154 14.934 36.8396C14.5533 37.0639 14.4265 37.5543 14.6507 37.935Z" fill="#2C0B4A"/>
</g>
<defs>
<clipPath id="clip0_24943_7040">
<rect width="40" height="40" fill="white"/>
</clipPath>
</defs>
</svg>
