<svg width="40" height="40" viewBox="0 0 40 40" fill="none" xmlns="http://www.w3.org/2000/svg">
<path d="M27.2268 28.3965L26.1222 39.0011H19.2733H12.8664L11.7617 28.3965" stroke="#C090FC" stroke-width="1.5" stroke-miterlimit="10" stroke-linecap="round" stroke-linejoin="round"/>
<path d="M19.3835 35.3535V38.0047" stroke="#C090FC" stroke-width="1.5" stroke-miterlimit="10" stroke-linecap="round" stroke-linejoin="round"/>
<path d="M26.4535 13.1519C28.6628 15.0298 30.0988 17.9019 30.0988 21.1054C30.0988 26.9601 25.3488 31.5996 19.6046 31.5996C13.8605 31.5996 9 26.8496 9 21.1054C9 17.5705 10.657 14.588 13.3081 12.5996" stroke="#2C0B4A" stroke-width="1.5" stroke-miterlimit="10" stroke-linecap="round"/>
<path d="M19.4943 27.2913C20.1044 27.2913 20.599 26.7968 20.599 26.1867C20.599 25.5766 20.1044 25.082 19.4943 25.082C18.8842 25.082 18.3896 25.5766 18.3896 26.1867C18.3896 26.7968 18.8842 27.2913 19.4943 27.2913Z" fill="#2C0B4A"/>
<path d="M28.2211 14.8081L29.4362 10.6105C30.2094 7.29651 27.7792 4.09302 24.3548 4.09302H21.9245V1H16.9536V4.20349H14.5234C11.099 4.20349 8.66873 7.40698 9.44199 10.7209L10.7676 15.25" stroke="#2C0B4A" stroke-width="1.5" stroke-miterlimit="10" stroke-linecap="round" stroke-linejoin="round"/>
</svg>
