<svg width="40" height="40" viewBox="0 0 40 40" fill="none" xmlns="http://www.w3.org/2000/svg">
<path d="M32.5051 29.5403V37.5214C32.5051 38.3097 31.8154 38.9994 31.0271 38.9994H7.47798C6.68972 38.9994 6 38.3097 6 37.5214V9.34126C6 8.55301 6.68972 7.86328 7.47798 7.86328H31.0271C31.8154 7.86328 32.5051 8.55301 32.5051 9.34126V19.4901" stroke="#2C0B4A" stroke-width="1.5" stroke-miterlimit="10" stroke-linecap="round" stroke-linejoin="round"/>
<path d="M7.08374 7.9624L25.3122 1.16369C26.7902 0.572493 28.3667 1.65635 28.3667 3.23286V7.56827" stroke="#2C0B4A" stroke-width="1.5" stroke-miterlimit="10" stroke-linecap="round" stroke-linejoin="round"/>
<path d="M10.8281 22.25H27.6771" stroke="#EFA0EB" stroke-width="1.5" stroke-miterlimit="10" stroke-linecap="round" stroke-linejoin="round"/>
<path d="M12.7988 21.5589C12.7988 18.0117 15.6563 15.1543 19.2034 15.1543C22.7506 15.1543 25.608 18.0117 25.608 21.5589" stroke="#EFA0EB" stroke-width="1.5" stroke-miterlimit="10" stroke-linecap="round" stroke-linejoin="round"/>
<path d="M19.3018 15.4507C19.9548 15.4507 20.4842 14.9213 20.4842 14.2683C20.4842 13.6153 19.9548 13.0859 19.3018 13.0859C18.6488 13.0859 18.1194 13.6153 18.1194 14.2683C18.1194 14.9213 18.6488 15.4507 19.3018 15.4507Z" fill="#EFA0EB"/>
<path d="M10.7295 27.1758H18.6121" stroke="#2C0B4A" stroke-width="1.5" stroke-miterlimit="10" stroke-linecap="round" stroke-linejoin="round"/>
<path d="M10.7295 32.1035H27.4799" stroke="#2C0B4A" stroke-width="1.5" stroke-miterlimit="10" stroke-linecap="round" stroke-linejoin="round"/>
<path d="M32.5051 25.7968C33.0493 25.7968 33.4904 25.3557 33.4904 24.8115C33.4904 24.2673 33.0493 23.8262 32.5051 23.8262C31.9609 23.8262 31.5198 24.2673 31.5198 24.8115C31.5198 25.3557 31.9609 25.7968 32.5051 25.7968Z" fill="#2C0B4A"/>
</svg>
