<svg width="40" height="40" viewBox="0 0 40 40" fill="none" xmlns="http://www.w3.org/2000/svg">
<path d="M9.61816 13.3594L11.6612 15.4024L15.0321 11.3164" stroke="#C090FC" stroke-width="1.5" stroke-miterlimit="10" stroke-linecap="round" stroke-linejoin="round"/>
<path d="M9.61816 22.8614L11.6612 24.9044L15.0321 20.8184" stroke="#C090FC" stroke-width="1.5" stroke-miterlimit="10" stroke-linecap="round" stroke-linejoin="round"/>
<path d="M18.1987 13.5645H28.4138" stroke="#C090FC" stroke-width="1.5" stroke-miterlimit="10" stroke-linecap="round" stroke-linejoin="round"/>
<path d="M18.1987 23.8828H28.4138" stroke="#C090FC" stroke-width="1.5" stroke-miterlimit="10" stroke-linecap="round" stroke-linejoin="round"/>
<path d="M18.1987 32.666H28.6181" stroke="#280446" stroke-width="1.5" stroke-miterlimit="10" stroke-linecap="round" stroke-linejoin="round"/>
<path d="M27.0862 5.59677V1" stroke="#280446" stroke-width="1.5" stroke-miterlimit="10" stroke-linecap="round" stroke-linejoin="round"/>
<path d="M19.3225 5.59677V1" stroke="#280446" stroke-width="1.5" stroke-miterlimit="10" stroke-linecap="round" stroke-linejoin="round"/>
<path d="M10.9463 5.59677V1" stroke="#280446" stroke-width="1.5" stroke-miterlimit="10" stroke-linecap="round" stroke-linejoin="round"/>
<path d="M12.172 33.5848C12.6828 33.5848 13.0914 33.1762 13.0914 32.6654C13.0914 32.1547 12.6828 31.7461 12.172 31.7461C11.6613 31.7461 11.2527 32.1547 11.2527 32.6654C11.2527 33.1762 11.6613 33.5848 12.172 33.5848Z" fill="#280446"/>
<path d="M34.5429 25.1082C35.0536 25.1082 35.4622 24.6996 35.4622 24.1889C35.4622 23.6781 35.0536 23.2695 34.5429 23.2695C34.0321 23.2695 33.6235 23.6781 33.6235 24.1889C33.6235 24.6996 34.0321 25.1082 34.5429 25.1082Z" fill="#280446"/>
<path d="M34.6452 28.3761V35.2202C34.6452 37.2632 33.0108 38.9997 30.8656 38.9997H7.77957C5.73656 38.9997 4 37.3653 4 35.2202V7.53738C4 5.49437 5.63441 3.75781 7.77957 3.75781H30.8656C32.9086 3.75781 34.6452 5.39222 34.6452 7.53738V19.9997" stroke="#280446" stroke-width="1.5" stroke-miterlimit="10" stroke-linecap="round"/>
</svg>
