<svg width="40" height="40" viewBox="0 0 40 40" fill="none" xmlns="http://www.w3.org/2000/svg">
<path d="M7.68966 16.5863C8.07054 16.5863 8.37931 16.2776 8.37931 15.8967C8.37931 15.5158 8.07054 15.207 7.68966 15.207C7.30877 15.207 7 15.5158 7 15.8967C7 16.2776 7.30877 16.5863 7.68966 16.5863Z" fill="#2C0B4A"/>
<path d="M21.9656 3.96552H14.0345C12.8621 3.96552 11.8276 2.93103 11.8276 1.75862V1H24.1725V1.75862C24.1725 2.93103 23.2069 3.96552 21.9656 3.96552Z" stroke="#2C0B4A" stroke-width="1.5" stroke-miterlimit="10" stroke-linecap="round" stroke-linejoin="round"/>
<path d="M20.8618 27.4159C20.0343 27.7608 19.0687 27.9677 18.1032 27.9677C14.3101 27.9677 11.2756 24.9332 11.2756 21.1401C11.2756 17.347 14.3101 14.3125 18.1032 14.3125C19.0687 14.3125 19.9653 14.5194 20.7929 14.8642" stroke="#EFA0EB" stroke-width="1.5" stroke-miterlimit="10" stroke-linecap="round" stroke-linejoin="round"/>
<path d="M20.6549 19.9684C21.0738 19.9684 21.4135 19.6288 21.4135 19.2098C21.4135 18.7908 21.0738 18.4512 20.6549 18.4512C20.2359 18.4512 19.8962 18.7908 19.8962 19.2098C19.8962 19.6288 20.2359 19.9684 20.6549 19.9684Z" fill="#EFA0EB"/>
<path d="M15.7584 19.9684C16.1774 19.9684 16.517 19.6288 16.517 19.2098C16.517 18.7908 16.1774 18.4512 15.7584 18.4512C15.3394 18.4512 14.9998 18.7908 14.9998 19.2098C14.9998 19.6288 15.3394 19.9684 15.7584 19.9684Z" fill="#EFA0EB"/>
<path d="M20.3103 22.1738C20.3103 23.4842 19.2758 24.5187 17.9654 24.5187C16.6551 24.5187 15.6206 23.4842 15.6206 22.1738" stroke="#EFA0EB" stroke-width="1.5" stroke-miterlimit="10" stroke-linecap="round" stroke-linejoin="round"/>
<path d="M21 37.896L21.8276 30.1719" stroke="#2C0B4A" stroke-width="1.5" stroke-miterlimit="10" stroke-linecap="round" stroke-linejoin="round"/>
<path d="M27.9656 10.8613L32.4483 16.2406C33.7587 17.6199 34.1725 19.8268 33.4828 21.6889L31.069 28.1027C30.1035 30.5855 30.7242 33.4131 31.5518 35.9648L32.3104 38.1717" stroke="#2C0B4A" stroke-width="1.5" stroke-miterlimit="10" stroke-linecap="round" stroke-linejoin="round"/>
<path d="M23.6207 31.3449C23.6207 31.3449 19.4828 29.0691 21.6207 24.8622C23.207 21.6898 24.1035 21.5518 22.7932 18.0346C22.7242 17.8277 22.6552 17.6898 22.5173 17.4829L20.8621 14.7932C20.3104 13.8277 20.5173 12.5174 21.3449 11.8967C22.1725 11.207 23.3449 11.4829 23.8966 12.3794L27.4828 17.9656C27.6207 18.2415 27.7587 18.5174 27.7587 18.7932L28.1725 23.207" stroke="#2C0B4A" stroke-width="1.5" stroke-miterlimit="10" stroke-linecap="round" stroke-linejoin="round"/>
<path d="M7.75879 10.1724V4.03448C7.75879 2.37931 9.1381 1 10.7933 1H24.3795C26.0347 1 27.414 2.37931 27.414 4.03448V12.0345V17.8276" stroke="#2C0B4A" stroke-width="1.5" stroke-miterlimit="10" stroke-linecap="round" stroke-linejoin="round"/>
<path d="M24.3795 38.3099H10.7933C9.1381 38.3099 7.75879 36.9306 7.75879 35.2754V21.2754" stroke="#2C0B4A" stroke-width="1.5" stroke-miterlimit="10" stroke-linecap="round" stroke-linejoin="round"/>
<path d="M28.0344 39.0004C28.4153 39.0004 28.724 38.6916 28.724 38.3107C28.724 37.9299 28.4153 37.6211 28.0344 37.6211C27.6535 37.6211 27.3447 37.9299 27.3447 38.3107C27.3447 38.6916 27.6535 39.0004 28.0344 39.0004Z" fill="#2C0B4A"/>
</svg>
