<svg width="40" height="40" viewBox="0 0 40 40" fill="none" xmlns="http://www.w3.org/2000/svg">
<path d="M6.07911 24.8937C6.07824 25.0433 6.12182 25.1899 6.20431 25.3147C6.2868 25.4395 6.40449 25.537 6.54247 25.5949C6.68045 25.6527 6.8325 25.6683 6.97935 25.6397C7.1262 25.611 7.26123 25.5394 7.36734 25.4339C7.47344 25.3284 7.54584 25.1938 7.57535 25.0471C7.60486 24.9005 7.59016 24.7483 7.5331 24.61C7.47605 24.4717 7.37921 24.3534 7.25487 24.2702C7.13053 24.187 6.98428 24.1426 6.83466 24.1426C6.63504 24.1426 6.44352 24.2216 6.30196 24.3623C6.16039 24.5031 6.08027 24.6941 6.07911 24.8937Z" fill="#2C0B4A"/>
<path d="M38.7262 12.8882L37.2283 11.4035C36.9986 11.171 36.725 10.9864 36.4233 10.8605C36.1217 10.7346 35.7981 10.6698 35.4712 10.6699C35.1444 10.6698 34.8207 10.7346 34.5191 10.8605C34.2175 10.9864 33.9439 11.171 33.7141 11.4035L15.2648 29.8529C15.1857 29.9276 13.6307 35.5107 13.6307 35.5107C13.5919 35.641 13.5894 35.7794 13.6234 35.911C13.6575 36.0426 13.7268 36.1624 13.824 36.2574C13.9218 36.3505 14.0414 36.4178 14.1717 36.453C14.3021 36.4883 14.4393 36.4905 14.5707 36.4595C14.5707 36.4595 20.1451 35.0231 20.2812 34.8781L38.7306 16.4288C39.192 15.9603 39.4507 15.3292 39.4507 14.6717C39.4507 14.0142 39.192 13.383 38.7306 12.9146L38.7262 12.8882ZM15.4449 34.6321L16.2048 31.9218L18.1771 33.8942L15.4449 34.6321ZM19.7146 33.2572L16.8637 30.402L33.3583 13.9073L36.2092 16.7582L19.7146 33.2572ZM37.6368 15.3306L37.2986 15.6688L34.4477 12.818L34.786 12.4797C34.8753 12.3902 34.9814 12.3193 35.0983 12.2711C35.2151 12.2228 35.3404 12.1982 35.4668 12.1986C35.7219 12.1992 35.9665 12.3002 36.1477 12.4797L37.6368 13.9732C37.7262 14.0622 37.7971 14.168 37.8455 14.2844C37.8939 14.4009 37.9188 14.5258 37.9188 14.6519C37.9188 14.778 37.8939 14.9029 37.8455 15.0194C37.7971 15.1358 37.7262 15.2416 37.6368 15.3306Z" fill="#2C0B4A"/>
<path d="M23.0528 19.2765C23.0528 19.0727 22.9718 18.8771 22.8277 18.733C22.6835 18.5888 22.488 18.5078 22.2841 18.5078H11.0959C10.892 18.5078 10.6965 18.5888 10.5523 18.733C10.4081 18.8771 10.3271 19.0727 10.3271 19.2765C10.3271 19.4804 10.4081 19.6759 10.5523 19.8201C10.6965 19.9643 10.892 20.0453 11.0959 20.0453H22.2841C22.4876 20.0441 22.6825 19.9627 22.8264 19.8188C22.9703 19.6749 23.0517 19.4801 23.0528 19.2765Z" fill="#C090FC"/>
<path d="M22.2843 12.0488H11.0961C10.8922 12.0488 10.6967 12.1298 10.5525 12.274C10.4084 12.4181 10.3274 12.6137 10.3274 12.8176C10.3274 13.0214 10.4084 13.217 10.5525 13.3611C10.6967 13.5053 10.8922 13.5863 11.0961 13.5863H22.2843C22.4882 13.5863 22.6838 13.5053 22.8279 13.3611C22.9721 13.217 23.0531 13.0214 23.0531 12.8176C23.0531 12.6137 22.9721 12.4181 22.8279 12.274C22.6838 12.1298 22.4882 12.0488 22.2843 12.0488Z" fill="#C090FC"/>
<path d="M11.0959 24.1426C10.892 24.1426 10.6965 24.2236 10.5523 24.3677C10.4081 24.5119 10.3271 24.7074 10.3271 24.9113C10.3271 25.1152 10.4081 25.3107 10.5523 25.4549C10.6965 25.599 10.892 25.68 11.0959 25.68H14.2806C14.4845 25.68 14.68 25.599 14.8242 25.4549C14.9683 25.3107 15.0493 25.1152 15.0493 24.9113C15.0493 24.7074 14.9683 24.5119 14.8242 24.3677C14.68 24.2236 14.4845 24.1426 14.2806 24.1426H11.0959Z" fill="#2C0B4A"/>
<path d="M26.4837 31.4123C26.2798 31.4123 26.0842 31.4932 25.9401 31.6374C25.7959 31.7816 25.7149 31.9771 25.7149 32.181V35.5282C25.7138 36.3061 25.4042 37.0518 24.8542 37.6018C24.3042 38.1519 23.5585 38.4614 22.7806 38.4626L1.53746 38.3571V4.00615H5.01209V5.21854C5.01209 5.42242 5.09308 5.61794 5.23725 5.76211C5.38141 5.90627 5.57694 5.98726 5.78082 5.98726C5.98469 5.98726 6.18022 5.90627 6.32439 5.76211C6.46855 5.61794 6.54954 5.42242 6.54954 5.21854V4.00615H12.8531V5.21854C12.8531 5.42242 12.9341 5.61794 13.0782 5.76211C13.2224 5.90627 13.4179 5.98726 13.6218 5.98726C13.8257 5.98726 14.0212 5.90627 14.1654 5.76211C14.3095 5.61794 14.3905 5.42242 14.3905 5.21854V4.00615H20.716V5.21854C20.716 5.42242 20.797 5.61794 20.9412 5.76211C21.0853 5.90627 21.2809 5.98726 21.4847 5.98726C21.6886 5.98726 21.8842 5.90627 22.0283 5.76211C22.1725 5.61794 22.2535 5.42242 22.2535 5.21854V4.00615H25.6842V14.7859C25.6842 14.9897 25.7652 15.1853 25.9093 15.3294C26.0535 15.4736 26.249 15.5546 26.4529 15.5546C26.6568 15.5546 26.8523 15.4736 26.9965 15.3294C27.1406 15.1853 27.2216 14.9897 27.2216 14.7859V3.23743C27.2217 3.13422 27.201 3.03206 27.1607 2.93703C27.1204 2.842 27.0614 2.75606 26.9872 2.68432C26.913 2.61258 26.8252 2.55652 26.7288 2.51948C26.6325 2.48243 26.5297 2.46516 26.4265 2.4687H22.2359V0.768724C22.2359 0.564846 22.1549 0.369318 22.0107 0.225154C21.8666 0.0809903 21.6711 2.29098e-08 21.4672 2.29098e-08C21.2633 2.29098e-08 21.0678 0.0809903 20.9236 0.225154C20.7794 0.369318 20.6985 0.564846 20.6985 0.768724V2.4687H14.3905V0.768724C14.3905 0.564846 14.3095 0.369318 14.1654 0.225154C14.0212 0.0809903 13.8257 2.29098e-08 13.6218 2.29098e-08C13.4179 2.29098e-08 13.2224 0.0809903 13.0782 0.225154C12.9341 0.369318 12.8531 0.564846 12.8531 0.768724V2.4687H6.54954V0.768724C6.54954 0.667774 6.52966 0.567812 6.49102 0.474546C6.45239 0.38128 6.39577 0.296537 6.32439 0.225154C6.253 0.153771 6.16826 0.0971476 6.07499 0.0585156C5.98173 0.0198836 5.88177 0 5.78082 0C5.67987 0 5.5799 0.0198836 5.48664 0.0585156C5.39337 0.0971476 5.30863 0.153771 5.23725 0.225154C5.16586 0.296537 5.10924 0.38128 5.07061 0.474546C5.03198 0.567812 5.01209 0.667774 5.01209 0.768724V2.4687H0.768736C0.564858 2.4687 0.36933 2.54969 0.225167 2.69386C0.081003 2.83802 1.26239e-05 3.03355 1.26239e-05 3.23743V39.1215C-0.000566365 39.2222 0.0187763 39.3221 0.0569282 39.4153C0.0950802 39.5085 0.151289 39.5933 0.222321 39.6648C0.293353 39.7362 0.377808 39.7929 0.470829 39.8316C0.563849 39.8703 0.6636 39.8902 0.764344 39.8902L22.7762 40C23.9622 39.9988 25.0994 39.5275 25.9385 38.6892C26.7776 37.851 27.25 36.7143 27.2524 35.5282V32.181C27.2512 31.9775 27.1699 31.7826 27.0259 31.6387C26.882 31.4948 26.6872 31.4134 26.4837 31.4123Z" fill="#2C0B4A"/>
<path d="M8.85565 9.88745C8.77417 9.82791 8.68172 9.78509 8.58361 9.76147C8.48551 9.73785 8.38369 9.73389 8.28405 9.74981C8.1844 9.76574 8.0889 9.80124 8.00304 9.85427C7.91719 9.90729 7.84268 9.9768 7.78383 10.0588L6.04871 12.4528L5.78075 12.2156C5.70246 12.1466 5.61095 12.0943 5.51179 12.0619C5.41263 12.0294 5.30791 12.0175 5.20399 12.0268C5.10007 12.0361 4.99913 12.0665 4.90733 12.116C4.81553 12.1656 4.73478 12.2334 4.67 12.3152C4.60523 12.397 4.55778 12.4911 4.53055 12.5918C4.50332 12.6925 4.49688 12.7977 4.51161 12.901C4.52635 13.0043 4.56196 13.1035 4.61628 13.1926C4.67059 13.2817 4.74247 13.3588 4.82754 13.4192L5.75879 14.1572C5.89305 14.2657 6.06058 14.3246 6.2332 14.3241H6.33863C6.44121 14.3101 6.53995 14.2757 6.62899 14.2229C6.71803 14.1701 6.79556 14.0999 6.85697 14.0166L9.05332 10.9681C9.11294 10.8847 9.15519 10.7902 9.17756 10.6902C9.19992 10.5902 9.20194 10.4867 9.1835 10.3859C9.16506 10.285 9.12653 10.189 9.07021 10.1033C9.01389 10.0177 8.94092 9.9443 8.85565 9.88745Z" fill="#C090FC"/>
<path d="M8.85565 16.0673C8.69069 15.9482 8.48525 15.8994 8.28434 15.9315C8.08343 15.9636 7.90344 16.0741 7.78383 16.2387L6.04871 18.6371L5.78075 18.3999C5.70246 18.3309 5.61095 18.2786 5.51179 18.2461C5.41263 18.2137 5.30791 18.2017 5.20399 18.2111C5.10007 18.2204 4.99913 18.2508 4.90733 18.3003C4.81553 18.3499 4.73478 18.4177 4.67 18.4995C4.60523 18.5812 4.55778 18.6754 4.53055 18.7761C4.50332 18.8768 4.49688 18.982 4.51161 19.0853C4.52635 19.1886 4.56196 19.2878 4.61628 19.3769C4.67059 19.466 4.74247 19.5431 4.82754 19.6035L5.7544 20.3414C5.89069 20.4493 6.05937 20.5081 6.2332 20.5084H6.33863C6.43859 20.4908 6.53401 20.4533 6.61926 20.3983C6.70451 20.3432 6.77787 20.2716 6.835 20.1877L9.03136 17.1436C9.15024 16.9774 9.19849 16.7709 9.16556 16.5692C9.13264 16.3675 9.02121 16.1871 8.85565 16.0673Z" fill="#C090FC"/>
</svg>
