<svg width="40" height="40" viewBox="0 0 40 40" fill="none" xmlns="http://www.w3.org/2000/svg">
<path d="M22.091 29.9777H16.7837V22.4414H22.091V29.9777Z" stroke="#2C0B4A" stroke-width="1.5" stroke-miterlimit="10" stroke-linecap="round" stroke-linejoin="round"/>
<path d="M21.9847 22.3352H16.8898C11.4763 18.3017 8.29199 12.0391 8.29199 5.24581V1H30.4764V5.35196C30.5825 12.0391 27.3981 18.3017 21.9847 22.3352Z" stroke="#2C0B4A" stroke-width="1.5" stroke-miterlimit="10" stroke-linecap="round" stroke-linejoin="round"/>
<path d="M30.6887 2.91016L31.0072 3.0163C35.8899 4.92692 36.5267 11.5079 32.1748 14.2677L26.5491 17.8766" stroke="#2C0B4A" stroke-width="1.5" stroke-miterlimit="10" stroke-linecap="round" stroke-linejoin="round"/>
<path d="M8.07976 3.01758C3.19708 4.92819 2.5602 11.5092 6.91216 14.269L12.4317 17.7718" stroke="#2C0B4A" stroke-width="1.5" stroke-miterlimit="10" stroke-linecap="round" stroke-linejoin="round"/>
<path d="M27.3982 37.9394V39.0009H11.5825V29.9785H27.3982V31.6768" stroke="#2C0B4A" stroke-width="1.5" stroke-miterlimit="10" stroke-linecap="round" stroke-linejoin="round"/>
<path d="M24.3201 32.7383H14.5547V36.3472H24.3201V32.7383Z" stroke="#EFA0EB" stroke-width="1.5" stroke-miterlimit="10" stroke-linecap="round" stroke-linejoin="round"/>
<path d="M23.1523 16.0734L23.3646 15.9672C27.0797 12.9952 28.4596 7.79404 26.549 3.33594" stroke="#2C0B4A" stroke-width="1.5" stroke-miterlimit="10" stroke-linecap="round" stroke-linejoin="round"/>
<path d="M20.8171 19.0454C21.3447 19.0454 21.7724 18.6177 21.7724 18.0901C21.7724 17.5625 21.3447 17.1348 20.8171 17.1348C20.2895 17.1348 19.8618 17.5625 19.8618 18.0901C19.8618 18.6177 20.2895 19.0454 20.8171 19.0454Z" fill="#2C0B4A"/>
<path d="M27.3982 35.7094C27.9258 35.7094 28.3535 35.2817 28.3535 34.7541C28.3535 34.2265 27.9258 33.7988 27.3982 33.7988C26.8706 33.7988 26.4429 34.2265 26.4429 34.7541C26.4429 35.2817 26.8706 35.7094 27.3982 35.7094Z" fill="#2C0B4A"/>
</svg>
