<svg width="40" height="40" viewBox="0 0 40 40" fill="none" xmlns="http://www.w3.org/2000/svg">
<path d="M33.0141 35.2949H30.1422C28.7062 35.2949 27.5437 36.4574 27.5437 37.8934H35.6126C35.6126 36.4574 34.4501 35.2949 33.0141 35.2949Z" stroke="#2C0B4A" stroke-width="1.5" stroke-miterlimit="10" stroke-linecap="round" stroke-linejoin="round"/>
<path d="M33.014 33.0391H30.4155V35.1589H33.014V33.0391Z" stroke="#2C0B4A" stroke-width="1.5" stroke-miterlimit="10" stroke-linecap="round" stroke-linejoin="round"/>
<path d="M30.3473 33.2431H25.3555C24.8085 33.2431 24.3298 32.7644 24.3298 32.2174V24.9691C24.3298 24.422 24.8085 23.9434 25.3555 23.9434H37.9375C38.4846 23.9434 38.9632 24.422 38.9632 24.9691V32.2174C38.9632 32.7644 38.4846 33.2431 37.9375 33.2431H33.4244" stroke="#2C0B4A" stroke-width="1.5" stroke-miterlimit="10" stroke-linecap="round" stroke-linejoin="round"/>
<path d="M19.4745 21.5474V23.3253C19.4745 26.2656 17.0811 28.6589 14.1408 28.6589C11.2004 28.6589 8.80713 26.2656 8.80713 23.3253V19.8379" stroke="#2C0B4A" stroke-width="1.5" stroke-miterlimit="10" stroke-linecap="round" stroke-linejoin="round"/>
<path d="M7.23438 20.6608C7.78142 20.4556 11.7475 17.8572 12.7048 18.1307C13.5937 18.4726 17.0128 21.8916 21.5259 21.6865L21.4575 19.4299C21.4575 15.5322 18.2436 12.3184 14.3459 12.3184C10.4482 12.3184 7.23438 15.5322 7.23438 19.4299V20.6608Z" stroke="#2C0B4A" stroke-width="1.5" stroke-miterlimit="10" stroke-linecap="round" stroke-linejoin="round"/>
<path d="M7.37134 30.7136C8.1919 30.6452 9.42275 30.44 10.0382 30.3717C10.9271 30.3033 11.6793 29.5511 11.8161 28.6622L11.8844 28.5254" stroke="#2C0B4A" stroke-width="1.5" stroke-miterlimit="10" stroke-linecap="round" stroke-linejoin="round"/>
<path d="M3.88391 37.8917H2.10602C1.90088 36.5925 2.1744 35.3617 2.65306 34.2676" stroke="#2C0B4A" stroke-width="1.5" stroke-miterlimit="10" stroke-linecap="round" stroke-linejoin="round"/>
<path d="M25.8339 35.5C25.9707 36.2522 26.0391 37.0727 25.8339 37.8933H22.073" stroke="#2C0B4A" stroke-width="1.5" stroke-miterlimit="10" stroke-linecap="round" stroke-linejoin="round"/>
<path d="M16.8762 28.6621L16.9446 28.9356C17.013 29.7562 17.6284 30.3716 18.449 30.5084L21.0474 30.9187C21.6628 30.987 22.2099 31.1922 22.6885 31.4657" stroke="#2C0B4A" stroke-width="1.5" stroke-miterlimit="10" stroke-linecap="round" stroke-linejoin="round"/>
<path d="M13.3889 25.584C13.7992 26.0626 14.5514 26.131 15.03 25.7207L15.1668 25.584" stroke="#2C0B4A" stroke-width="1.5" stroke-miterlimit="10" stroke-linecap="round" stroke-linejoin="round"/>
<path d="M11.2834 22.832C11.6937 22.3534 12.4459 22.285 12.9246 22.6953L13.0613 22.832" stroke="#2C0B4A" stroke-width="1.5" stroke-miterlimit="10" stroke-linecap="round" stroke-linejoin="round"/>
<path d="M15.4941 22.832C15.9044 22.3534 16.6566 22.285 17.1353 22.6953L17.272 22.832" stroke="#2C0B4A" stroke-width="1.5" stroke-miterlimit="10" stroke-linecap="round" stroke-linejoin="round"/>
<path d="M14.2092 37.8917H2.24268C2.24268 36.0454 3.74704 34.541 5.59331 34.541H14.2092V37.8917Z" stroke="#2C0B4A" stroke-width="1.5" stroke-miterlimit="10" stroke-linecap="round" stroke-linejoin="round"/>
<path d="M11.2004 30.2344L14.2092 34.5424L17.423 30.0977" stroke="#2C0B4A" stroke-width="1.5" stroke-miterlimit="10" stroke-linecap="round" stroke-linejoin="round"/>
<path d="M4.77289 32.6273C5.11278 32.6273 5.38832 32.3518 5.38832 32.0119C5.38832 31.672 5.11278 31.3965 4.77289 31.3965C4.433 31.3965 4.15747 31.672 4.15747 32.0119C4.15747 32.3518 4.433 32.6273 4.77289 32.6273Z" fill="#2C0B4A"/>
<path d="M14.209 35.5667C14.1406 35.6351 14.1406 37.8917 14.1406 37.8917L18.5853 38.9857C19.4059 39.0541 20.2265 38.849 20.9103 38.5071C21.3206 38.3019 21.936 37.6181 22.483 36.9343C23.2352 36.0454 22.6882 34.6094 21.5257 34.541C21.4573 34.541 21.3889 34.541 21.3206 34.6094C19.953 35.3616 18.3802 35.5667 16.8758 35.2248C15.9869 35.0197 14.8928 35.0197 14.209 35.5667Z" stroke="#2C0B4A" stroke-width="1.5" stroke-miterlimit="10"/>
<path d="M21.5259 21.6875V30.3718" stroke="#2C0B4A" stroke-width="1.5" stroke-miterlimit="10" stroke-linecap="round" stroke-linejoin="round"/>
<path d="M7.23438 20.457V30.7141" stroke="#2C0B4A" stroke-width="1.5" stroke-miterlimit="10" stroke-linecap="round" stroke-linejoin="round"/>
<path d="M31.5928 30.9315C30.4299 30.9315 29.4885 30.0991 29.4885 29.0709V28.5813C29.4885 27.5531 30.4299 26.7207 31.5928 26.7207C32.7557 26.7207 33.6971 27.5531 33.6971 28.5813V29.0709C33.7525 30.0991 32.7557 30.9315 31.5928 30.9315Z" stroke="#EFA0EB" stroke-width="1.5" stroke-miterlimit="10" stroke-linecap="round" stroke-linejoin="round"/>
<path d="M31.5916 5.02434C28.6264 5.18841 26.2542 7.64947 26.0847 10.5207C26 11.5051 26.2542 12.4895 26.593 13.3099C26.6778 13.474 26.7625 13.638 26.7625 13.8841C26.9319 14.6225 26.9319 15.771 26 16.5913C26 16.5913 28.118 17.6578 29.4736 16.3452L29.5583 16.2632C30.4902 16.6733 31.4222 16.8374 32.4388 16.7554C35.4041 16.5093 37.7763 14.2123 37.9457 11.3411C38.454 7.73151 35.3194 4.6962 31.5916 5.02434Z" stroke="#EFA0EB" stroke-width="1.5" stroke-miterlimit="10" stroke-linecap="round" stroke-linejoin="round"/>
</svg>
