<svg width="40" height="40" viewBox="0 0 40 40" fill="none" xmlns="http://www.w3.org/2000/svg">
<g clip-path="url(#clip0_24989_7506)">
<path d="M31.0749 35.4438C27.9251 37.6791 24.1658 39 20 39C9.53476 39 1 30.4652 1 20C1 9.53476 9.43316 1 20 1C30.5668 1 39 9.53476 39 20C39 23.4545 38.0856 26.6043 36.4599 29.4492" stroke="#2C0B4A" stroke-width="1.5" stroke-miterlimit="10" stroke-linecap="round" stroke-linejoin="round"/>
<path d="M34.123 33.5126C34.631 33.5126 35.139 33.1061 35.139 32.4965C35.139 31.9885 34.7326 31.4805 34.123 31.4805C33.5134 31.4805 33.1069 31.8869 33.1069 32.4965C33.1069 33.1061 33.5134 33.5126 34.123 33.5126Z" fill="#2C0B4A"/>
<path d="M32.9037 27.5184L25.4865 20.1013L32.7005 12.8874C33.3101 12.2778 33.3101 11.2617 32.7005 10.6521L29.4491 7.40075C28.8395 6.79112 27.8234 6.79112 27.2138 7.40075L19.9999 14.6146L12.3796 6.99433C11.77 6.3847 10.7539 6.3847 10.1443 6.99433L6.99457 10.2457C6.38495 10.8553 6.38495 11.8713 6.99457 12.481L14.6149 20.1013L7.50259 27.2136C6.89297 27.8232 6.89297 28.8392 7.50259 29.4489L10.7539 32.7002C11.3636 33.3098 12.3796 33.3098 12.9892 32.7002L20.1015 25.5879L27.5186 33.005C28.1283 33.6146 29.1443 33.6146 29.7539 33.005L33.0053 29.7537C33.5133 29.0425 33.5133 28.128 32.9037 27.5184Z" fill="white" stroke="#EFA0EB" stroke-width="1.5" stroke-miterlimit="10"/>
</g>
<defs>
<clipPath id="clip0_24989_7506">
<rect width="40" height="40" fill="white"/>
</clipPath>
</defs>
</svg>
