<svg width="53" height="40" viewBox="0 0 53 40" fill="none" xmlns="http://www.w3.org/2000/svg">
<g clip-path="url(#clip0_22459_6192)">
<path d="M17.2402 39.209H43.7538" stroke="#2C0B4A" stroke-width="2" stroke-linecap="round" stroke-linejoin="round"/>
<path d="M18.167 18.2305H42.8275V26.8703C42.8275 33.673 37.2998 39.2006 30.4972 39.2006C23.6946 39.2006 18.167 33.673 18.167 26.8703V18.2305V18.2305Z" stroke="#2C0B4A" stroke-width="2" stroke-linecap="round" stroke-linejoin="round"/>
<path d="M42.8827 20.7012H51.6255V21.8336C51.6255 27.282 48.1331 31.701 42.6768 31.701" stroke="#2C0B4A" stroke-width="2" stroke-linecap="round" stroke-linejoin="round"/>
<path d="M22.6885 22.8789V25.8724C22.6885 27.0999 23.0607 28.2402 23.6863 29.1905" stroke="#2C0B4A" stroke-width="2" stroke-linecap="round" stroke-linejoin="round"/>
<path d="M25.6976 32.8893C26.3099 32.8893 26.8062 32.3929 26.8062 31.7806C26.8062 31.1683 26.3099 30.6719 25.6976 30.6719C25.0852 30.6719 24.5889 31.1683 24.5889 31.7806C24.5889 32.3929 25.0852 32.8893 25.6976 32.8893Z" fill="#2C0B4A"/>
<path d="M28.6757 15.1107C29.0875 13.9466 31.2098 11.4124 29.428 8.60109C27.6462 5.78976 26.9572 2.56664 29.4993 1.67969" stroke="#C090FC" stroke-width="2" stroke-linecap="round" stroke-linejoin="round"/>
<path d="M35.8666 15.1104C35.8666 15.1104 38.8838 13.8117 38.0602 12.2278C37.2366 10.644 33.8076 8.94136 36.413 6.33594" stroke="#C090FC" stroke-width="2" stroke-linecap="round" stroke-linejoin="round"/>
<path d="M24.7476 6.69876C22.4194 3.14303 18.3964 0.791016 13.827 0.791016C6.62846 0.791016 0.791992 6.62748 0.791992 13.8261C0.791992 21.0246 6.62846 26.8611 13.827 26.8611" stroke="#2C0B4A" stroke-width="2" stroke-linecap="round" stroke-linejoin="round"/>
<path d="M13.8906 23.7716V22.0215" stroke="#2C0B4A" stroke-width="2" stroke-linecap="round" stroke-linejoin="round"/>
<path d="M13.8906 5.79507V4.04492" stroke="#2C0B4A" stroke-width="2" stroke-linecap="round" stroke-linejoin="round"/>
<path d="M3.77734 13.7793H5.52749" stroke="#2C0B4A" stroke-width="2" stroke-linecap="round" stroke-linejoin="round"/>
<path d="M10.0176 10.1592L13.7634 14.2851L20.2651 7.47461" stroke="#C090FC" stroke-width="2" stroke-linecap="round" stroke-linejoin="round"/>
<path d="M26.0468 10.8572C26.5629 10.8572 26.9812 10.4388 26.9812 9.92275C26.9812 9.40666 26.5629 8.98828 26.0468 8.98828C25.5307 8.98828 25.1123 9.40666 25.1123 9.92275C25.1123 10.4388 25.5307 10.8572 26.0468 10.8572Z" fill="#2C0B4A"/>
</g>
<defs>
<clipPath id="clip0_22459_6192">
<rect width="52.4094" height="40" fill="white"/>
</clipPath>
</defs>
</svg>
