<svg width="26" height="40" viewBox="0 0 26 40" fill="none" xmlns="http://www.w3.org/2000/svg">
<path d="M22.4792 11.8806C22.4792 11.8806 23.5159 11.9009 24.039 11.4899C24.0394 11.49 24.0393 11.49 24.0396 11.4902C23.9997 13.6091 23.602 16.1816 23.0037 18.1486C22.701 19.1436 22.2376 20.1066 21.6264 21.0106L19.2727 24.4919C19.1739 24.6381 19.1279 24.813 19.1422 24.9882L20.3074 39.2813C20.3407 39.6901 20.6871 40 21.0956 40C21.1169 40 21.1383 39.9991 21.1598 39.9974C21.5956 39.9628 21.9205 39.5861 21.8854 39.156L20.7423 25.1334L22.9433 21.8779C23.6417 20.845 24.1721 19.7414 24.52 18.5979C25.192 16.389 25.6261 13.4633 25.6261 11.1443V8.8187C25.6265 8.81792 25.6265 8.81721 25.6265 8.81643V6.60504C25.6265 4.94677 24.3154 3.54459 22.6362 3.48521C22.0203 3.46342 21.4424 3.6206 20.9508 3.90709C20.6846 2.48342 19.4183 1.40132 17.8999 1.40132C17.253 1.40132 16.6519 1.59796 16.1542 1.9335C15.6938 0.810152 14.5778 0.0152343 13.2765 0.0152343C11.9313 0.0152343 10.7837 0.864604 10.3543 2.04835C9.86541 1.73085 9.28099 1.54538 8.65327 1.54538C7.80162 1.54538 7.02912 1.88593 6.46781 2.43608C6.25345 2.0721 5.99073 1.7328 5.68075 1.42741C4.74606 0.506638 3.50487 0 2.18413 0C2.1812 0 2.17811 0 2.17518 0C1.32123 0.00164062 0.626465 0.691402 0.626465 1.53733V14.3981C0.626465 15.924 1.41883 16.9535 2.18516 17.949L5.42816 22.2107C5.43402 22.2185 5.44003 22.2261 5.44629 22.2336C6.38517 23.3768 6.99944 24.3712 6.94474 25.5054L6.11762 35.6099C6.0824 36.04 6.4071 36.4168 6.84286 36.4516C7.27775 36.4856 7.6604 36.1659 7.69555 35.7358L8.52369 25.6191C8.52432 25.6115 8.5248 25.6038 8.5252 25.5962C8.56778 24.7768 8.3892 23.9799 7.97933 23.1599C7.61758 22.4364 7.12308 21.7944 6.68534 21.261L3.57754 17.1752L3.44574 17.0037C2.7824 16.1421 2.20954 15.3978 2.20954 14.398V1.56257C3.09816 1.56898 3.93256 1.91296 4.5621 2.53327C5.19876 3.16045 5.54951 3.9949 5.5499 4.88294V8.81878C5.5499 10.0363 6.27372 11.0901 7.31884 11.5834C7.58829 11.741 10.7779 13.672 10.795 16.6688C10.7974 17.0947 11.1307 17.4609 11.562 17.4738C12.0104 17.4872 12.3782 17.1324 12.3782 16.6929C12.3782 14.4364 11.0969 12.7125 9.93206 11.6113C10.2561 11.4663 10.5556 11.2651 10.8187 11.0121C10.8697 10.9631 10.9188 10.9127 10.9658 10.8609H10.9659C10.9984 10.8966 11.0317 10.9314 11.0659 10.9656C11.0659 10.9656 11.8836 11.8556 13.2762 11.8816C14.6568 11.9075 15.5803 10.8681 15.5803 10.8681C15.5828 10.8653 15.5856 10.8627 15.5882 10.8599C15.5902 10.862 15.5922 10.864 15.5942 10.8662C15.5944 10.8665 15.5948 10.8668 15.595 10.867C15.6534 10.931 15.7178 10.9888 15.7862 11.0423C16.084 11.2753 16.9498 11.8814 17.9001 11.8814C19.1248 11.8814 20.1253 10.9497 20.1253 10.9497C20.1522 10.9223 20.179 10.8948 20.2049 10.8664C20.2069 10.8642 20.2091 10.8621 20.2111 10.8599C20.2147 10.8639 20.2186 10.8677 20.2222 10.8717C20.2354 10.886 20.2491 10.8997 20.2625 10.9138C20.2843 10.9367 20.3058 10.9597 20.3283 10.9819C20.3283 10.9819 21.2511 11.8406 22.4792 11.8806ZM22.5232 5.04567C23.3614 5.04567 24.0432 5.71864 24.0432 6.5459V8.81878C24.0432 9.64604 23.3614 10.319 22.5232 10.319C21.685 10.319 21.003 9.64604 21.003 8.81878V6.5459C21.0031 5.71864 21.6851 5.04567 22.5232 5.04567ZM17.8999 2.96381C18.7381 2.96381 19.42 3.63678 19.42 4.46404V6.5459V8.8126C19.42 8.81464 19.4196 8.81659 19.4196 8.81862C19.4196 9.33565 19.1534 9.79244 18.7492 10.0624C18.5066 10.2243 18.2142 10.3189 17.8999 10.3189C17.7428 10.3189 17.5911 10.2953 17.4485 10.2513C16.8301 10.061 16.3798 9.49073 16.3798 8.81854C16.3798 8.818 16.3798 8.81753 16.3798 8.81706V4.46404C16.3798 3.63678 17.0617 2.96381 17.8999 2.96381ZM11.7564 3.07795C11.7564 2.25069 12.4383 1.57765 13.2765 1.57765C14.1147 1.57765 14.7966 2.25069 14.7966 3.07795V4.46404V8.81878C14.7966 9.64604 14.1147 10.319 13.2765 10.319C13.0338 10.319 12.8049 10.2611 12.6011 10.1608C12.1016 9.91471 11.7569 9.40635 11.7569 8.8187C11.7569 8.81565 11.7565 8.81268 11.7564 8.80964V4.6081V3.07795ZM8.42506 10.3002C7.69784 10.1867 7.13337 9.53658 7.13337 8.76753V4.88442C7.13337 4.88388 7.13337 4.88341 7.13337 4.88286V4.6081H7.13313C7.13313 3.78084 7.81507 3.10779 8.65327 3.10779C9.49147 3.10779 10.1733 3.78084 10.1733 4.6081V8.8187C10.1733 9.22268 10.01 9.58908 9.74596 9.85908C9.74596 9.85908 9.40606 10.2538 8.82489 10.3088C8.82489 10.3088 8.64132 10.3303 8.42506 10.3002Z" fill="#2C0B4A"/>
<path d="M17.3525 29.1816H16.5532H10.5457H10.5372C10.1 29.1816 9.74561 29.5315 9.74561 29.9629C9.74561 30.3943 10.1 30.7441 10.5372 30.7441C10.8357 30.7441 11.0785 30.9838 11.0785 31.2784V35.4443C11.0785 36.6733 12.0916 37.6732 13.3369 37.6732C14.5822 37.6732 15.5954 36.6733 15.5954 35.4443V33.6241C15.5954 33.5789 15.6326 33.542 15.6785 33.542C16.5973 33.542 17.3447 32.8043 17.3447 31.8975V30.7441H17.3524C17.7896 30.7441 18.144 30.3942 18.144 29.9628C18.144 29.5314 17.7897 29.1816 17.3525 29.1816ZM15.7617 31.8976C15.7617 31.9428 15.7244 31.9796 15.6785 31.9796C14.7598 31.9796 14.0123 32.7173 14.0123 33.6242V35.4443C14.0123 35.8118 13.7093 36.1108 13.337 36.1108C12.9646 36.1108 12.6617 35.8118 12.6617 35.4443V31.2784C12.6617 31.0938 12.6374 30.9148 12.5918 30.7441H15.7617V31.8976Z" fill="#C090FC"/>
<path d="M7.34593 38.9187C7.32614 38.8717 7.3016 38.8265 7.27311 38.7843C7.24461 38.7412 7.21136 38.7014 7.17495 38.6655C6.99131 38.4842 6.71821 38.4014 6.46016 38.4523C6.41029 38.4616 6.36042 38.4772 6.31213 38.4967C6.26464 38.5162 6.21873 38.5405 6.17598 38.5686C6.13245 38.5967 6.09207 38.6295 6.05487 38.6655C5.90764 38.8108 5.82373 39.0123 5.82373 39.2178C5.82373 39.4233 5.90843 39.6248 6.05566 39.7701C6.2029 39.9154 6.40712 39.9991 6.61531 39.9991C6.82349 39.9991 7.02772 39.9155 7.17495 39.7701C7.32219 39.6248 7.40688 39.4233 7.40688 39.2178C7.40688 39.167 7.40134 39.1154 7.39105 39.0655C7.38076 39.0155 7.36572 38.9662 7.34593 38.9187Z" fill="#2C0B4A"/>
<path d="M16.0613 26.8984C16.4985 26.8984 16.8529 26.5486 16.8529 26.1172C16.8529 25.6858 16.4985 25.3359 16.0613 25.3359H11.8345C11.3974 25.3359 11.043 25.6858 11.043 26.1172C11.043 26.5486 11.3974 26.8984 11.8345 26.8984H16.0613Z" fill="#2C0B4A"/>
</svg>
