<svg width="40" height="40" viewBox="0 0 40 40" fill="none" xmlns="http://www.w3.org/2000/svg">
<path d="M12.2246 17.6784C12.8067 17.434 16.9647 14.7456 17.9627 15.0715C18.9606 15.3973 22.4533 18.9819 27.2766 18.7375L27.1934 16.3749C27.1934 12.3016 23.867 9.04297 19.709 9.04297C15.551 9.04297 12.2246 12.3016 12.2246 16.3749V17.6784Z" stroke="#2C0B4A" stroke-width="1.5" stroke-miterlimit="10" stroke-linecap="round" stroke-linejoin="round"/>
<path d="M21.5386 21.0176C22.0375 21.5878 22.9523 21.6693 23.5344 21.1805L23.7007 21.0176" stroke="#2C0B4A" stroke-width="1.5" stroke-miterlimit="10" stroke-linecap="round" stroke-linejoin="round"/>
<path d="M15.4678 21.0176C15.9667 21.5878 16.8815 21.6693 17.4636 21.1805L17.6299 21.0176" stroke="#2C0B4A" stroke-width="1.5" stroke-miterlimit="10" stroke-linecap="round" stroke-linejoin="round"/>
<path d="M18.4678 25.0176C18.9667 25.5878 19.8815 25.6693 20.4636 25.1805L20.6299 25.0176" stroke="#2C0B4A" stroke-width="1.5" stroke-miterlimit="10" stroke-linecap="round" stroke-linejoin="round"/>
<path d="M33.8462 36.2524C34.0956 37.1485 34.0956 38.2076 33.8462 39.1852H27.526C27.526 39.1852 23.6175 39.1037 23.5343 39.1852H15.8004H6.81913H4.57381C3.99168 34.8674 7.06861 30.9571 11.5593 30.4683C12.5572 30.3868 13.5551 30.2239 14.3035 30.1424C15.4678 29.9795 16.2994 29.1648 16.4657 28.0243L16.5489 27.8613" stroke="#2C0B4A" stroke-width="1.5" stroke-miterlimit="10" stroke-linecap="round" stroke-linejoin="round"/>
<path d="M22.7859 28.0254L22.869 28.3513C22.9522 29.3289 23.7007 30.062 24.6986 30.225L27.8587 30.7138C28.6071 30.7952 29.2724 31.0396 29.8545 31.3655" stroke="#2C0B4A" stroke-width="1.5" stroke-miterlimit="10" stroke-linecap="round" stroke-linejoin="round"/>
<path d="M15.634 29.6543C17.2972 32.4242 22.0374 32.4242 23.7006 29.9802" stroke="#2C0B4A" stroke-width="1.5" stroke-miterlimit="10" stroke-linecap="round" stroke-linejoin="round"/>
<path d="M26.0292 18.7371V21.7513C26.0292 25.3358 23.0354 28.1872 19.4595 28.1872C15.8005 28.1872 12.8899 25.2544 12.8899 21.7513V17.4336" stroke="#2C0B4A" stroke-width="1.5" stroke-miterlimit="10" stroke-linecap="round" stroke-linejoin="round"/>
<path d="M32.3494 34.3796C32.7168 34.3796 33.0146 34.0878 33.0146 33.7279C33.0146 33.368 32.7168 33.0762 32.3494 33.0762C31.9819 33.0762 31.6841 33.368 31.6841 33.7279C31.6841 34.0878 31.9819 34.3796 32.3494 34.3796Z" fill="#2C0B4A"/>
<path d="M36.4241 15.9667C36.3409 14.5817 36.0914 13.1153 35.8419 11.7304C36.8399 11.5675 37.5883 10.6713 37.5883 9.69375C37.5883 8.55322 36.6735 7.57562 35.4261 7.57562C34.5114 7.57562 33.7629 8.14588 33.4303 8.87908M8.81491 30.875C7.56751 30.4677 6.32011 30.0603 5.07271 29.5715C4.90639 30.5491 3.99163 31.2823 2.99371 31.2823C1.7463 31.2823 0.831543 30.3862 0.831543 29.1642C0.831543 27.9422 1.82946 27.0461 2.99371 27.0461C3.07687 27.0461 3.07687 27.0461 3.16003 27.0461C2.5779 21.9137 2.5779 16.7813 3.16003 11.5675C3.07687 11.5675 3.07687 11.5675 3.07687 11.5675C1.82946 11.5675 0.914703 10.6713 0.914703 9.44935C0.914703 8.22735 1.91262 7.33122 3.07687 7.33122C4.07479 7.33122 4.90639 8.06442 5.15587 8.96055C11.8424 6.56825 18.4476 5.76894 24.9999 6.70185" stroke="#2C0B4A" stroke-width="1.5" stroke-miterlimit="10" stroke-linecap="round" stroke-linejoin="round"/>
<path d="M30.686 31.2002C31.684 30.8743 32.5987 30.3855 33.5135 29.8967C33.8461 30.5485 34.5946 30.9558 35.343 30.9558C36.5072 30.9558 37.5052 30.0597 37.5052 28.8377C37.5052 27.8601 36.8399 27.0454 35.842 26.801C36.0914 25.4976 36.2578 24.1941 36.4241 22.8906" stroke="#2C0B4A" stroke-width="1.5" stroke-miterlimit="10" stroke-linecap="round" stroke-linejoin="round"/>
<path d="M36.5071 20.6098C36.9664 20.6098 37.3387 20.2451 37.3387 19.7951C37.3387 19.3452 36.9664 18.9805 36.5071 18.9805C36.0479 18.9805 35.6755 19.3452 35.6755 19.7951C35.6755 20.2451 36.0479 20.6098 36.5071 20.6098Z" fill="#2C0B4A"/>
<path d="M33.5714 1H37L33 6H37" stroke="#C090FC" stroke-width="1.5" stroke-linecap="round" stroke-linejoin="round"/>
<path d="M28.4286 7H31L28 11H31" stroke="#C090FC" stroke-width="1.5" stroke-linecap="round" stroke-linejoin="round"/>
</svg>
