<svg width="43" height="40" viewBox="0 0 43 40" fill="none" xmlns="http://www.w3.org/2000/svg">
<path d="M10.8619 6.75781C6.80386 6.75781 3.50244 10.0593 3.50244 14.1173C3.50244 14.6046 3.89747 14.9996 4.3848 14.9996C4.87212 14.9996 5.26715 14.6046 5.26715 14.1173C5.26715 11.0323 7.77692 8.52252 10.8619 8.52252C11.3492 8.52252 11.7442 8.12749 11.7442 7.64017C11.7442 7.15284 11.3492 6.75781 10.8619 6.75781Z" fill="#2C0B4A"/>
<path d="M37.6329 14.1173C37.6329 14.6046 38.028 14.9996 38.5152 14.9996C39.0024 14.9996 39.3976 14.6046 39.3976 14.1173C39.3976 10.0592 36.0961 6.75781 32.0381 6.75781C31.5509 6.75781 31.1558 7.15284 31.1558 7.64017C31.1558 8.12749 31.5509 8.52252 32.0381 8.52252C35.1231 8.52243 37.6329 11.0323 37.6329 14.1173Z" fill="#2C0B4A"/>
<path d="M42.6266 13.4052C42.6266 8.07916 38.2935 3.74609 32.9674 3.74609C27.9455 3.74609 25.5839 6.45139 23.4015 10.8164C23.2702 11.0791 23.2781 11.3899 23.4228 11.6455L25.7806 15.8129L23.4798 18.8808C23.2793 19.1482 23.2469 19.5059 23.3965 19.8048L24.0498 21.1116L22.5692 23.3327C22.38 23.6164 22.3713 23.9837 22.5467 24.276L24.8713 28.1504L21.5386 32.1496L18.2058 28.1504L20.5305 24.276C20.7059 23.9837 20.6972 23.6163 20.5081 23.3327L19.0274 21.1116L19.6808 19.8048C19.8303 19.506 19.798 19.1483 19.5975 18.8808L17.2967 15.8131L19.6545 11.6456C19.7991 11.39 19.8071 11.0792 19.6758 10.8166C17.4933 6.45157 15.1317 3.74627 10.1098 3.74627C4.78375 3.74627 0.450684 8.07933 0.450684 13.4054C0.450684 16.6511 1.55027 19.5952 3.9111 22.6707C7.31866 27.1096 12.8231 31.1412 18.2626 36.5807C18.5955 36.9134 19.1331 36.9275 19.4824 36.6075L21.5386 34.7244L23.5948 36.6074C23.9459 36.9289 24.4834 36.9118 24.8147 36.5806C33.6204 27.7749 42.6266 22.6435 42.6266 13.4052ZM18.9103 34.7383C10.4129 26.3965 2.2153 21.521 2.2153 13.4053C2.2153 9.05231 5.75672 5.51089 10.1097 5.51089C13.6884 5.51089 15.6918 6.9546 17.8853 11.1889L15.4766 15.4463C15.3039 15.7514 15.3283 16.1298 15.5387 16.4102L17.8586 19.5033L17.2201 20.7804C17.0785 21.0635 17.0995 21.4009 17.2751 21.6644L18.7301 23.8468L16.3703 27.7798C16.1772 28.1015 16.2088 28.5103 16.4491 28.7987L20.3217 33.4459L18.9103 34.7383ZM24.1668 34.7383L22.7555 33.4459L26.6283 28.7988C26.8685 28.5104 26.9001 28.1017 26.7071 27.7799L24.3473 23.8469L25.8022 21.6645C25.9779 21.4011 25.9989 21.0636 25.8573 20.7805L25.2188 19.5034L27.5386 16.4103C27.7489 16.1298 27.7733 15.7515 27.6006 15.4464L25.192 11.189C27.3854 6.95469 29.3888 5.51098 32.9674 5.51098C37.3205 5.51098 40.8619 9.05239 40.8619 13.4054C40.8619 21.5211 32.6661 26.3944 24.1668 34.7383Z" fill="#2C0B4A"/>
<path d="M36.451 1.76471C36.9383 1.76471 37.3333 1.36966 37.3333 0.882354C37.3333 0.395043 36.9383 0 36.451 0C35.9636 0 35.5686 0.395043 35.5686 0.882354C35.5686 1.36966 35.9636 1.76471 36.451 1.76471Z" fill="#C090FC"/>
<path d="M26.7447 2.64752C27.232 2.64752 27.627 2.25248 27.627 1.76517C27.627 1.27786 27.232 0.882812 26.7447 0.882812C26.2573 0.882812 25.8623 1.27786 25.8623 1.76517C25.8623 2.25248 26.2573 2.64752 26.7447 2.64752Z" fill="#C090FC"/>
<path d="M18.8028 6.17486C19.2901 6.17486 19.6851 5.77982 19.6851 5.29251C19.6851 4.8052 19.2901 4.41016 18.8028 4.41016C18.3155 4.41016 17.9204 4.8052 17.9204 5.29251C17.9204 5.77982 18.3155 6.17486 18.8028 6.17486Z" fill="#C090FC"/>
<path d="M5.56741 3.53033C6.05472 3.53033 6.44977 3.13529 6.44977 2.64798C6.44977 2.16067 6.05472 1.76562 5.56741 1.76562C5.0801 1.76562 4.68506 2.16067 4.68506 2.64798C4.68506 3.13529 5.0801 3.53033 5.56741 3.53033Z" fill="#C090FC"/>
<path d="M11.7437 36.1768C12.231 36.1768 12.626 35.7818 12.626 35.2945C12.626 34.8072 12.231 34.4121 11.7437 34.4121C11.2564 34.4121 10.8613 34.8072 10.8613 35.2945C10.8613 35.7818 11.2564 36.1768 11.7437 36.1768Z" fill="#C090FC"/>
<path d="M36.4507 34.4112C36.938 34.4112 37.3331 34.0161 37.3331 33.5288C37.3331 33.0415 36.938 32.6465 36.4507 32.6465C35.9634 32.6465 35.5684 33.0415 35.5684 33.5288C35.5684 34.0161 35.9634 34.4112 36.4507 34.4112Z" fill="#C090FC"/>
<path d="M38.2154 17.6475C38.7027 17.6475 39.0977 17.2525 39.0977 16.7652C39.0977 16.2779 38.7027 15.8828 38.2154 15.8828C37.7281 15.8828 37.333 16.2779 37.333 16.7652C37.333 17.2525 37.7281 17.6475 38.2154 17.6475Z" fill="#2C0B4A"/>
<path d="M30.274 38.8233C30.7613 38.8233 31.1563 38.4283 31.1563 37.9409C31.1563 37.4536 30.7613 37.0586 30.274 37.0586C29.7866 37.0586 29.3916 37.4536 29.3916 37.9409C29.3916 38.4283 29.7866 38.8233 30.274 38.8233Z" fill="#C090FC"/>
<path d="M41.486 25.8462C41.1414 25.5018 40.5828 25.5018 40.2381 25.8462L38.694 27.3904C38.3494 27.7349 38.3494 28.2936 38.694 28.6383L39.6142 29.5585L38.694 30.4787C38.3494 30.8232 38.3494 31.382 38.694 31.7266L40.2381 33.2707C40.5828 33.6153 41.1413 33.6152 41.486 33.2707C41.8306 32.9262 41.8306 32.3675 41.486 32.0228L40.5658 31.1026L41.486 30.1824C41.8306 29.8378 41.8306 29.2791 41.486 28.9345L40.5658 28.0143L41.486 27.0941C41.8306 26.7495 41.8306 26.1908 41.486 25.8462Z" fill="#C090FC"/>
<path d="M5.7812 38.2608L4.94014 38.0505L5.60287 37.3878C6.09999 36.8905 5.8427 36.0368 5.15199 35.8986L2.21084 35.3104C1.73296 35.2145 1.26813 35.5247 1.17258 36.0026C1.07702 36.4804 1.3869 36.9453 1.86469 37.0408L3.1892 37.3058L2.59025 37.9047C2.10593 38.3891 2.33578 39.2187 3.00019 39.3846L5.35317 39.9727C5.82408 40.0908 6.3047 39.8049 6.4232 39.3307C6.54143 38.858 6.25396 38.3789 5.7812 38.2608Z" fill="#C090FC"/>
<path d="M4.68515 26.4707C3.22556 26.4707 2.03809 27.6582 2.03809 29.1178C2.03809 30.5774 3.22556 31.7648 4.68515 31.7648C6.14474 31.7648 7.33221 30.5774 7.33221 29.1178C7.33221 27.6582 6.14474 26.4707 4.68515 26.4707ZM4.68515 30.0001C4.19862 30.0001 3.80279 29.6043 3.80279 29.1178C3.80279 28.6312 4.19862 28.2354 4.68515 28.2354C5.17168 28.2354 5.5675 28.6312 5.5675 29.1178C5.5675 29.6043 5.17168 30.0001 4.68515 30.0001Z" fill="#C090FC"/>
</svg>
