<svg width="40" height="40" viewBox="0 0 40 40" fill="none" xmlns="http://www.w3.org/2000/svg">
<g clip-path="url(#clip0_24916_7485)">
<path d="M16.0178 20.7988C16.5077 21.4363 17.4175 21.4363 17.9774 20.9405L18.1173 20.7988" stroke="#2C0B4A" stroke-width="1.5" stroke-miterlimit="10" stroke-linecap="round" stroke-linejoin="round"/>
<path d="M22.0178 20.7988C22.5077 21.4363 23.4175 21.4363 23.9774 20.9405L24.1173 20.7988" stroke="#2C0B4A" stroke-width="1.5" stroke-miterlimit="10" stroke-linecap="round" stroke-linejoin="round"/>
<path d="M12.1687 30.2902C13.1485 30.1485 14.1283 30.0777 14.8981 30.0069C16.0178 29.8652 16.8576 29.0152 16.9976 27.9527L17.1376 27.7402" stroke="#2C0B4A" stroke-width="1.5" stroke-miterlimit="10" stroke-linecap="round" stroke-linejoin="round"/>
<path d="M33.9337 36.0977C34.1436 37.0185 34.1436 38.0101 33.9337 39.0018H27.7751C27.7751 39.0018 23.9959 38.9309 23.926 39.0018H16.3677H7.6197H5.4502" stroke="#2C0B4A" stroke-width="1.5" stroke-miterlimit="10" stroke-linecap="round" stroke-linejoin="round"/>
<path d="M23.1562 27.8828L23.2962 28.237C23.3662 29.2286 24.136 30.0078 25.1158 30.1494L28.1951 30.6453C28.8949 30.7869 29.5948 30.9994 30.1546 31.2828" stroke="#2C0B4A" stroke-width="1.5" stroke-miterlimit="10" stroke-linecap="round" stroke-linejoin="round"/>
<path d="M16.2278 29.5117C17.8374 32.2742 22.4564 32.2742 24.066 29.8659" stroke="#2C0B4A" stroke-width="1.5" stroke-miterlimit="10" stroke-linecap="round" stroke-linejoin="round"/>
<path d="M26.2354 18.5314V21.5771C26.2354 25.1896 23.3661 28.0937 19.7969 28.0937C16.2277 28.0937 13.3584 25.1896 13.3584 21.5771V17.1855" stroke="#2C0B4A" stroke-width="1.5" stroke-miterlimit="10" stroke-linecap="round" stroke-linejoin="round"/>
<path d="M32.3939 34.3268C32.7804 34.3268 33.0938 34.0097 33.0938 33.6185C33.0938 33.2273 32.7804 32.9102 32.3939 32.9102C32.0074 32.9102 31.6941 33.2273 31.6941 33.6185C31.6941 34.0097 32.0074 34.3268 32.3939 34.3268Z" fill="#2C0B4A"/>
<path d="M18.957 24.5522C19.4469 23.9147 20.3567 23.9147 20.9166 24.4105L21.0566 24.5522" stroke="#2C0B4A" stroke-width="1.5" stroke-miterlimit="10" stroke-linecap="round" stroke-linejoin="round"/>
<path d="M7.12979 32.2007C5.10026 31.8465 3.28068 33.4049 3.21069 35.5298C3.21069 37.4423 4.68036 39.0006 6.49994 39.0006L18.3972 38.9298L18.7471 34.3965L12.7285 33.2632" stroke="#2C0B4A" stroke-width="1.5" stroke-miterlimit="10" stroke-linecap="round" stroke-linejoin="round"/>
<path d="M9.2992 31.9178C9.80166 31.9178 10.209 31.5055 10.209 30.997C10.209 30.4884 9.80166 30.0762 9.2992 30.0762C8.79673 30.0762 8.3894 30.4884 8.3894 30.997C8.3894 31.5055 8.79673 31.9178 9.2992 31.9178Z" fill="#2C0B4A"/>
<path d="M30.0844 36.4515L25.7454 24.5517L29.9444 22.5684L36.3829 33.4057C37.5027 35.2473 36.6629 37.6556 34.7033 38.5056C32.8137 39.2139 30.7842 38.2931 30.0844 36.4515Z" fill="white" stroke="#2C0B4A" stroke-width="1.5" stroke-miterlimit="10" stroke-linecap="round" stroke-linejoin="round"/>
<path d="M29.5946 22.8509C29.5946 22.8509 31.2042 18.3176 28.9647 16.5468C26.7252 14.776 24.9057 15.5551 25.4655 17.5384C26.0254 19.5217 26.3053 20.0176 26.3053 20.0176C26.3053 20.0176 25.3256 23.4175 26.3753 23.9133C27.565 23.63 29.5946 22.8509 29.5946 22.8509Z" fill="white" stroke="#2C0B4A" stroke-width="1.5" stroke-miterlimit="10" stroke-linecap="round" stroke-linejoin="round"/>
<path d="M13.3584 17.1847C14.2682 17.8222 15.4579 18.1764 16.6476 18.1764C17.6274 18.1764 19.517 16.1223 20.3568 15.6973C21.0566 17.2556 22.8062 18.2472 24.6958 18.2472" stroke="#2C0B4A" stroke-width="1.5" stroke-miterlimit="10" stroke-linecap="round" stroke-linejoin="round"/>
<path d="M20.7067 7.83474C19.6569 6.77226 18.2572 6.13477 16.6476 6.13477C13.3584 6.13477 10.699 8.82639 10.699 12.1555C10.699 12.8638 10.8389 13.5013 11.0489 14.1388" stroke="#2C0B4A" stroke-width="1.5" stroke-miterlimit="10" stroke-linecap="round" stroke-linejoin="round"/>
<path d="M19.5869 9.03795C19.7269 8.96711 22.0364 6.62965 23.716 7.40881C25.3956 8.18796 26.7253 9.74627 27.0752 11.3754C27.4251 12.9337 29.8046 17.6795 31.4142 18.2461C33.0238 18.8128 33.0938 22.7086 31.0643 23.2044" stroke="#2C0B4A" stroke-width="1.5" stroke-miterlimit="10" stroke-linecap="round" stroke-linejoin="round"/>
<path d="M15.8777 27.1722C15.5278 27.3847 15.2479 28.5888 12.0986 28.8013C8.94931 29.0138 8.52941 23.4181 8.52941 23.4181C5.87002 22.0014 7.6896 18.9557 9.29923 17.6807C10.9089 16.4057 11.0488 14.3516 11.0488 14.3516" stroke="#2C0B4A" stroke-width="1.5" stroke-miterlimit="10" stroke-linecap="round" stroke-linejoin="round"/>
<path d="M19.237 35.1762C19.237 35.1762 22.2463 34.6096 23.366 34.7513C24.4858 34.8929 27.845 36.0971 27.705 37.1595C27.565 38.222 27.0752 38.9304 27.0752 38.9304L18.7471 38.8595L19.237 35.1762Z" stroke="#2C0B4A" stroke-width="1.5" stroke-miterlimit="10" stroke-linecap="round" stroke-linejoin="round"/>
<path d="M34.9797 10.1245C35.5487 10.1245 36.01 9.65768 36.01 9.0818C36.01 8.50591 35.5487 8.03906 34.9797 8.03906C34.4107 8.03906 33.9495 8.50591 33.9495 9.0818C33.9495 9.65768 34.4107 10.1245 34.9797 10.1245Z" fill="#EFA0EB"/>
<path d="M34.9797 2.98558L35.2967 2.26369C35.693 1.22095 36.8817 0.739692 37.912 1.14074C38.9422 1.54179 39.4177 2.82516 38.9422 3.78768L38.863 4.02831C38.4667 4.91063 37.3572 5.31168 36.5647 4.83042L35.8515 6.67525" stroke="#EFA0EB" stroke-width="1.5" stroke-miterlimit="10" stroke-linecap="round" stroke-linejoin="round"/>
<path d="M5.73654 9.8843C6.30553 9.8843 6.76679 9.41745 6.76679 8.84156C6.76679 8.26568 6.30553 7.79883 5.73654 7.79883C5.16756 7.79883 4.7063 8.26568 4.7063 8.84156C4.7063 9.41745 5.16756 9.8843 5.73654 9.8843Z" fill="#EFA0EB"/>
<path d="M1.45714 4.50957L1.14014 3.78768C0.743891 2.74495 1.21939 1.622 2.17038 1.14074C3.20063 0.739692 4.38938 1.22095 4.78562 2.26369L4.94412 2.50432C5.26112 3.46684 4.78562 4.42936 3.83463 4.75021L4.62712 6.59504" stroke="#EFA0EB" stroke-width="1.5" stroke-miterlimit="10" stroke-linecap="round" stroke-linejoin="round"/>
</g>
<defs>
<clipPath id="clip0_24916_7485">
<rect width="40" height="40" fill="white"/>
</clipPath>
</defs>
</svg>
