<svg width="40" height="40" viewBox="0 0 40 40" fill="none" xmlns="http://www.w3.org/2000/svg">
<g clip-path="url(#clip0_24916_7103)">
<path d="M5.5 19.5476V12.0476C4.5 10.0476 1.5 10.5476 1 12.0476V25.0476C1 29.5476 4.3 32.1476 10 34.5476V39.0476H18.5V28.5476C18.5 26.5476 17.4 25.7476 15 25.0476C11 24.5476 10.5 22.0476 8.5 21.0476C4.3 18.9476 2 21.5476 4 23.5476C5.6 25.1476 8 27.5476 9 28.5476" stroke="#2C0B4A" stroke-width="1.5" stroke-linecap="round" stroke-linejoin="round"/>
<path d="M35 19.5476V12.0476C36 10.0476 39 10.5476 39.5 12.0476V25.0476C39.5 26.5476 39.2 27.7476 38.5 28.8476M31.5 28.5476C32.5 27.5476 34.9 25.1476 36.5 23.5476C38.5 21.5476 36.2 18.9476 32 21.0476C30 22.0476 29.5 24.5476 25.5 25.0476C23.1 25.7476 22 26.5476 22 28.5476V39.0476H30.5V34.5476C31.6 34.0476 32.6 33.6476 33.5 33.1476" stroke="#2C0B4A" stroke-width="1.5" stroke-linecap="round" stroke-linejoin="round"/>
<path d="M36 32.1469C36.4418 32.1469 36.7999 31.7887 36.7999 31.3469C36.7999 30.905 36.4418 30.5469 36 30.5469C35.5581 30.5469 35.2 30.905 35.2 31.3469C35.2 31.7887 35.5581 32.1469 36 32.1469Z" fill="#2C0B4A"/>
<path d="M19.6 4.34814C18.1 -0.851863 8.69995 -0.0518627 8.69995 7.14814C8.69995 13.4481 20.2 19.9481 20.2 19.9481C21.3 19.1481 30.7 13.5481 30.7 7.14814C30.7 0.0481372 21.7 -0.851863 19.6 4.34814Z" stroke="#C090FC" stroke-width="1.5" stroke-miterlimit="10" stroke-linecap="round" stroke-linejoin="round"/>
<path d="M24.5 3.84766C26.3 3.84766 27.7 5.24766 27.7 7.04766" stroke="#C090FC" stroke-width="1.5" stroke-miterlimit="10" stroke-linecap="round" stroke-linejoin="round"/>
<path d="M27.8001 10.148C28.1867 10.148 28.5001 9.83465 28.5001 9.44805C28.5001 9.06145 28.1867 8.74805 27.8001 8.74805C27.4135 8.74805 27.1001 9.06145 27.1001 9.44805C27.1001 9.83465 27.4135 10.148 27.8001 10.148Z" fill="#C090FC"/>
</g>
<defs>
<clipPath id="clip0_24916_7103">
<rect width="40" height="40" fill="white"/>
</clipPath>
</defs>
</svg>
