<svg width="40" height="40" viewBox="0 0 40 40" fill="none" xmlns="http://www.w3.org/2000/svg">
<g clip-path="url(#clip0_24916_7124)">
<path d="M10.2708 22.253C10.7678 21.5571 11.7619 21.5571 12.3583 22.0542L12.4577 22.253" stroke="#2C0B4A" stroke-width="1.5" stroke-miterlimit="10" stroke-linecap="round" stroke-linejoin="round"/>
<path d="M16.2708 22.253C16.7678 21.5571 17.7619 21.5571 18.3583 22.0542L18.4577 22.253" stroke="#2C0B4A" stroke-width="1.5" stroke-miterlimit="10" stroke-linecap="round" stroke-linejoin="round"/>
<path d="M21.1063 19.2704V22.4515C21.1063 26.2291 18.124 29.3107 14.3465 29.3107C10.5689 29.3107 7.58667 26.2291 7.58667 22.4515V17.7793" stroke="#2C0B4A" stroke-width="1.5" stroke-miterlimit="10" stroke-linecap="round" stroke-linejoin="round"/>
<path d="M13.4519 25.1367C13.9489 25.8326 14.943 25.8326 15.5395 25.3355L15.6389 25.1367" stroke="#2C0B4A" stroke-width="1.5" stroke-miterlimit="10" stroke-linecap="round" stroke-linejoin="round"/>
<path d="M7.4873 17.8798C8.48139 18.5757 9.6743 18.9733 10.9666 18.9733C11.9607 18.9733 13.9489 16.7863 14.8436 16.3887C15.5394 18.0786 18.6211 19.1721 20.6093 19.1721" stroke="#2C0B4A" stroke-width="1.5" stroke-miterlimit="10" stroke-linecap="round" stroke-linejoin="round"/>
<path d="M15.2412 8.03741C14.1477 6.8445 12.6566 6.24805 10.9666 6.24805C7.48731 6.24805 4.70386 9.13091 4.70386 12.6102C4.70386 13.4055 4.80327 14.0019 5.10149 14.6978" stroke="#2C0B4A" stroke-width="1.5" stroke-miterlimit="10" stroke-linecap="round" stroke-linejoin="round"/>
<path d="M14.0483 9.22961C14.1477 9.1302 16.633 6.64498 18.4223 7.53966C20.2117 8.33493 21.6034 10.0249 22.0011 11.7148C22.3987 13.4048 24.8839 18.3752 26.5739 18.9717C28.2638 19.5681 28.1644 30.8014 20.2117 27.0238" stroke="#2C0B4A" stroke-width="1.5" stroke-miterlimit="10" stroke-linecap="round" stroke-linejoin="round"/>
<path d="M9.17731 27.422C8.77967 27.6208 8.48144 28.9132 5.20095 29.112C1.92045 29.3108 2.4175 24.4397 2.4175 24.4397C-0.365956 22.9486 1.52281 19.7675 3.21277 18.3758C4.90272 16.9841 5.10154 14.8965 5.10154 14.8965" stroke="#2C0B4A" stroke-width="1.5" stroke-miterlimit="10" stroke-linecap="round" stroke-linejoin="round"/>
<path d="M20.2117 38.7549H4.50506H2.8151C2.31806 35.375 4.80328 32.1939 8.18319 31.7963L10.6684 31.498C11.9607 33.685 16.3347 33.3868 17.627 31.498C20.8081 31.6969 23.3928 33.0886 23.3928 33.0886" stroke="#2C0B4A" stroke-width="1.5" stroke-miterlimit="10" stroke-linecap="round" stroke-linejoin="round"/>
<path d="M25.4805 36.4688C25.6793 37.1646 25.6793 37.9599 25.4805 38.7552H20.51" stroke="#2C0B4A" stroke-width="1.5" stroke-miterlimit="10" stroke-linecap="round" stroke-linejoin="round"/>
<path d="M24.5857 35.2749C24.9151 35.2749 25.1822 35.0079 25.1822 34.6785C25.1822 34.3491 24.9151 34.082 24.5857 34.082C24.2563 34.082 23.9893 34.3491 23.9893 34.6785C23.9893 35.0079 24.2563 35.2749 24.5857 35.2749Z" fill="#2C0B4A"/>
<path d="M16.9312 29.4102L17.627 31.6966" stroke="#2C0B4A" stroke-width="1.5" stroke-miterlimit="10" stroke-linecap="round" stroke-linejoin="round"/>
<path d="M11.4637 29.4102L10.7678 31.6966" stroke="#2C0B4A" stroke-width="1.5" stroke-miterlimit="10" stroke-linecap="round" stroke-linejoin="round"/>
<path d="M30.8485 3.46523C29.755 -0.312307 22.7964 0.284147 22.7964 5.55282C22.7964 10.225 31.2461 14.9967 31.2461 14.9967C32.0414 14.4002 39 10.3245 39 5.55282C39 0.284147 32.4391 -0.411716 30.8485 3.46523Z" stroke="#C090FC" stroke-width="1.5" stroke-miterlimit="10" stroke-linecap="round" stroke-linejoin="round"/>
<path d="M34.4272 3.16797C35.7196 3.16797 36.8131 4.26147 36.8131 5.55378" stroke="#C090FC" stroke-width="1.5" stroke-miterlimit="10" stroke-linecap="round" stroke-linejoin="round"/>
<path d="M36.1172 8.33704C36.5016 8.33704 36.8131 8.02549 36.8131 7.64118C36.8131 7.25686 36.5016 6.94531 36.1172 6.94531C35.7329 6.94531 35.4214 7.25686 35.4214 7.64118C35.4214 8.02549 35.7329 8.33704 36.1172 8.33704Z" fill="#C090FC"/>
</g>
<defs>
<clipPath id="clip0_24916_7124">
<rect width="40" height="40" fill="white"/>
</clipPath>
</defs>
</svg>
