<svg width="40" height="40" viewBox="0 0 40 40" fill="none" xmlns="http://www.w3.org/2000/svg">
<path d="M30.3808 34.8249C27.4427 36.9525 23.8968 38.1682 20.0469 38.1682C10.2195 38.1682 2.31714 30.1645 2.31714 20.4385C2.31714 10.7124 10.2195 2.60742 20.0469 2.60742C29.8742 2.60742 37.7766 10.6111 37.7766 20.3372C37.7766 23.5792 36.9661 26.5172 35.4464 29.1514" stroke="#2C0B4A" stroke-width="1.5" stroke-miterlimit="10" stroke-linecap="round" stroke-linejoin="round"/>
<path d="M20.0468 30.9749C25.9219 30.9749 30.6846 26.2122 30.6846 20.3371C30.6846 14.4619 25.9219 9.69922 20.0468 9.69922C14.1717 9.69922 9.40894 14.4619 9.40894 20.3371C9.40894 26.2122 14.1717 30.9749 20.0468 30.9749Z" stroke="#2C0B4A" stroke-width="1.5" stroke-miterlimit="10"/>
<path d="M33.2175 33.0014C33.724 33.0014 34.1293 32.5961 34.1293 32.0895C34.1293 31.583 33.724 31.1777 33.2175 31.1777C32.7109 31.1777 32.3057 31.583 32.3057 32.0895C32.3057 32.5961 32.7109 33.0014 33.2175 33.0014Z" fill="#2C0B4A"/>
<path d="M8.19321 24.8957H2.82363C1.8105 24.8957 1 24.0852 1 23.0721V17.7025C1 16.6894 1.8105 15.8789 2.82363 15.8789H8.19321C9.20633 15.8789 10.0168 16.6894 10.0168 17.7025V23.0721C10.0168 24.0852 9.20633 24.8957 8.19321 24.8957Z" fill="white" stroke="#C090FC" stroke-width="1.5" stroke-miterlimit="10"/>
<path d="M22.7823 11.0168H17.4127C16.3996 11.0168 15.5891 10.2063 15.5891 9.19321V3.82363C15.5891 2.8105 16.3996 2 17.4127 2H22.7823C23.7954 2 24.6059 2.8105 24.6059 3.82363V9.19321C24.6059 10.2063 23.7954 11.0168 22.7823 11.0168Z" fill="white" stroke="#C090FC" stroke-width="1.5" stroke-miterlimit="10"/>
<path d="M22.7823 38.7766H17.4127C16.3996 38.7766 15.5891 37.9661 15.5891 36.953V31.5834C15.5891 30.5703 16.3996 29.7598 17.4127 29.7598H22.7823C23.7954 29.7598 24.6059 30.5703 24.6059 31.5834V36.953C24.6059 37.9661 23.7954 38.7766 22.7823 38.7766Z" fill="white" stroke="#C090FC" stroke-width="1.5" stroke-miterlimit="10"/>
<path d="M37.1685 24.8957H31.799C30.7858 24.8957 29.9753 24.0852 29.9753 23.0721V17.7025C29.9753 16.6894 30.7858 15.8789 31.799 15.8789H37.1685C38.1817 15.8789 38.9922 16.6894 38.9922 17.7025V23.0721C39.0935 24.0852 38.1817 24.8957 37.1685 24.8957Z" fill="white" stroke="#C090FC" stroke-width="1.5" stroke-miterlimit="10"/>
</svg>
