<svg width="16" height="16" viewBox="0 0 16 16" fill="none" xmlns="http://www.w3.org/2000/svg">
<path d="M2 7.24935C1.58579 7.24935 1.25 7.58514 1.25 7.99935C1.25 8.41356 1.58579 8.74935 2 8.74935V7.24935ZM14 7.99935L14.5303 8.52968C14.671 8.38903 14.75 8.19826 14.75 7.99935C14.75 7.80044 14.671 7.60967 14.5303 7.46902L14 7.99935ZM11.197 4.13569C10.9041 3.84279 10.4292 3.84279 10.1363 4.13569C9.84344 4.42858 9.84344 4.90345 10.1363 5.19635L11.197 4.13569ZM10.1363 10.8024C9.84344 11.0952 9.84344 11.5701 10.1363 11.863C10.4292 12.1559 10.9041 12.1559 11.197 11.863L10.1363 10.8024ZM2 8.74935H14V7.24935H2V8.74935ZM14.5303 7.46902L11.197 4.13569L10.1363 5.19635L13.4697 8.52968L14.5303 7.46902ZM13.4697 7.46902L10.1363 10.8024L11.197 11.863L14.5303 8.52968L13.4697 7.46902Z" fill="#280446"/>
</svg>
