<svg width="14" height="10" viewBox="0 0 14 10" fill="none" xmlns="http://www.w3.org/2000/svg">
<path d="M13.0645 5.75065C13.4787 5.75065 13.8145 5.41486 13.8145 5.00065C13.8145 4.58644 13.4787 4.25065 13.0645 4.25065L13.0645 5.75065ZM1.06445 5.00065L0.534123 4.47032C0.393471 4.61097 0.314453 4.80174 0.314453 5.00065C0.314453 5.19956 0.393471 5.39033 0.534123 5.53098L1.06445 5.00065ZM3.86746 8.86431C4.16035 9.15721 4.63522 9.15721 4.92812 8.86431C5.22101 8.57142 5.22101 8.09655 4.92812 7.80365L3.86746 8.86431ZM4.92812 2.19765C5.22101 1.90475 5.22101 1.42988 4.92812 1.13699C4.63522 0.844094 4.16035 0.844094 3.86746 1.13699L4.92812 2.19765ZM13.0645 4.25065L1.06445 4.25065L1.06445 5.75065L13.0645 5.75065L13.0645 4.25065ZM0.534123 5.53098L3.86746 8.86431L4.92812 7.80365L1.59478 4.47032L0.534123 5.53098ZM1.59478 5.53098L4.92812 2.19765L3.86746 1.13699L0.534123 4.47032L1.59478 5.53098Z" fill="#491475"/>
</svg>
