<svg width="11" height="7" viewBox="0 0 11 7" fill="none" xmlns="http://www.w3.org/2000/svg">
<path d="M10.5821 1.83211C10.9726 1.44158 10.9726 0.808417 10.5821 0.417892C10.1916 0.0273681 9.55842 0.0273682 9.16789 0.417893L10.5821 1.83211ZM5.5 5.5L4.79289 6.20711C4.98043 6.39464 5.23478 6.5 5.5 6.5C5.76522 6.5 6.01957 6.39464 6.20711 6.20711L5.5 5.5ZM1.83211 0.417893C1.44158 0.0273685 0.808417 0.0273685 0.417893 0.417893C0.0273688 0.808417 0.0273687 1.44158 0.417893 1.83211L1.83211 0.417893ZM9.16789 0.417893L4.79289 4.79289L6.20711 6.20711L10.5821 1.83211L9.16789 0.417893ZM6.20711 4.79289L1.83211 0.417893L0.417893 1.83211L4.79289 6.20711L6.20711 4.79289Z" fill="#491475"/>
</svg>
