<svg width="6" height="10" viewBox="0 0 6 10" fill="none" xmlns="http://www.w3.org/2000/svg">
<path d="M4.29289 9.70711C4.68342 10.0976 5.31658 10.0976 5.70711 9.70711C6.09763 9.31658 6.09763 8.68342 5.70711 8.29289L4.29289 9.70711ZM0.999999 5L0.292893 4.29289C-0.0976317 4.68342 -0.0976318 5.31658 0.292892 5.70711L0.999999 5ZM5.70711 1.70711C6.09763 1.31658 6.09763 0.683418 5.70711 0.292894C5.31658 -0.0976303 4.68342 -0.0976304 4.29289 0.292894L5.70711 1.70711ZM5.70711 8.29289L1.70711 4.29289L0.292892 5.70711L4.29289 9.70711L5.70711 8.29289ZM1.70711 5.70711L5.70711 1.70711L4.29289 0.292894L0.292893 4.29289L1.70711 5.70711Z" fill="#280446"/>
</svg>
