<svg width="40" height="40" viewBox="0 0 40 40" fill="none" xmlns="http://www.w3.org/2000/svg">
<g clip-path="url(#clip0_22459_6113)">
<path d="M4.47974 26.8814V37.5992C4.47974 38.491 3.76145 39.2186 2.88098 39.2186H2.37123C1.49075 39.2186 0.772461 38.491 0.772461 37.5992V2.4026C0.772461 1.51076 1.49075 0.783203 2.37123 0.783203H2.88098C3.76145 0.783203 4.47974 1.51076 4.47974 2.4026V22.915" stroke="#2C0B4A" stroke-width="2" stroke-linecap="round" stroke-linejoin="round"/>
<path d="M39.2278 11.1802V2.4026C39.2278 1.51076 38.5095 0.783203 37.629 0.783203H37.1193C36.2388 0.783203 35.5205 1.51076 35.5205 2.4026V37.5992C35.5205 38.491 36.2388 39.2186 37.1193 39.2186H37.629C38.5095 39.2186 39.2278 38.491 39.2278 37.5992V17.6891" stroke="#2C0B4A" stroke-width="2" stroke-linecap="round" stroke-linejoin="round"/>
<path d="M27.9512 7.55859H35.4816" stroke="#2C0B4A" stroke-width="2" stroke-linecap="round" stroke-linejoin="round"/>
<path d="M20.5449 7.55859H22.3445" stroke="#2C0B4A" stroke-width="2" stroke-linecap="round" stroke-linejoin="round"/>
<path d="M13.1689 7.55859H15.3779" stroke="#2C0B4A" stroke-width="2" stroke-linecap="round" stroke-linejoin="round"/>
<path d="M5.11328 7.55859H7.83968" stroke="#2C0B4A" stroke-width="2" stroke-linecap="round" stroke-linejoin="round"/>
<path d="M32.7783 19.1992H35.2267" stroke="#2C0B4A" stroke-width="2" stroke-linecap="round" stroke-linejoin="round"/>
<path d="M25.4336 19.1992H27.2641" stroke="#2C0B4A" stroke-width="2" stroke-linecap="round" stroke-linejoin="round"/>
<path d="M18.2119 19.1992H20.2973" stroke="#2C0B4A" stroke-width="2" stroke-linecap="round" stroke-linejoin="round"/>
<path d="M4.98926 19.1992H13.2071" stroke="#2C0B4A" stroke-width="2" stroke-linecap="round" stroke-linejoin="round"/>
<path d="M8.06322 31.0195H5.15918" stroke="#2C0B4A" stroke-width="2" stroke-linecap="round" stroke-linejoin="round"/>
<path d="M15.285 31.0195H12.8135" stroke="#2C0B4A" stroke-width="2" stroke-linecap="round" stroke-linejoin="round"/>
<path d="M22.5377 31.0195H20.0508" stroke="#2C0B4A" stroke-width="2" stroke-linecap="round" stroke-linejoin="round"/>
<path d="M35.2271 31.0195H27.5576" stroke="#2C0B4A" stroke-width="2" stroke-linecap="round" stroke-linejoin="round"/>
<path d="M12.9987 6.78444C12.9987 5.49689 11.9683 4.45312 10.6971 4.45312C9.42597 4.45312 8.39551 5.49689 8.39551 6.78444V9.10793C8.39551 10.3955 9.42597 11.4392 10.6971 11.4392C11.9683 11.4392 12.9987 10.3955 12.9987 9.10793V6.78444Z" stroke="#EFA0EB" stroke-width="2" stroke-linecap="round" stroke-linejoin="round"/>
<path d="M20.236 6.78444C20.236 5.49689 19.2056 4.45312 17.9344 4.45312C16.6633 4.45312 15.6328 5.49689 15.6328 6.78444V9.10793C15.6328 10.3955 16.6633 11.4392 17.9344 11.4392C19.2056 11.4392 20.236 10.3955 20.236 9.10793V6.78444Z" stroke="#EFA0EB" stroke-width="2" stroke-linecap="round" stroke-linejoin="round"/>
<path d="M27.4802 6.78444C27.4802 5.49689 26.4497 4.45312 25.1786 4.45312C23.9074 4.45312 22.877 5.49689 22.877 6.78444V9.10793C22.877 10.3955 23.9074 11.4392 25.1786 11.4392C26.4497 11.4392 27.4802 10.3955 27.4802 9.10793V6.78444Z" stroke="#EFA0EB" stroke-width="2" stroke-linecap="round" stroke-linejoin="round"/>
<path d="M18.027 18.0794C18.027 16.7918 16.9966 15.748 15.7254 15.748C14.4543 15.748 13.4238 16.7918 13.4238 18.0794V20.4028C13.4238 21.6904 14.4543 22.7342 15.7254 22.7342C16.9966 22.7342 18.027 21.6904 18.027 20.4028V18.0794Z" stroke="#EFA0EB" stroke-width="2" stroke-linecap="round" stroke-linejoin="round"/>
<path d="M25.2643 18.0794C25.2643 16.7918 24.2339 15.748 22.9627 15.748C21.6916 15.748 20.6611 16.7918 20.6611 18.0794V20.4028C20.6611 21.6904 21.6916 22.7342 22.9627 22.7342C24.2339 22.7342 25.2643 21.6904 25.2643 20.4028V18.0794Z" stroke="#EFA0EB" stroke-width="2" stroke-linecap="round" stroke-linejoin="round"/>
<path d="M32.5007 18.0794C32.5007 16.7918 31.4702 15.748 30.1991 15.748C28.9279 15.748 27.8975 16.7918 27.8975 18.0794V20.4028C27.8975 21.6904 28.9279 22.7342 30.1991 22.7342C31.4702 22.7342 32.5007 21.6904 32.5007 20.4028V18.0794Z" stroke="#EFA0EB" stroke-width="2" stroke-linecap="round" stroke-linejoin="round"/>
<path d="M12.7438 29.9876C12.7438 28.7 11.7134 27.6562 10.4422 27.6562C9.17109 27.6562 8.14062 28.7 8.14062 29.9876V32.3111C8.14062 33.5986 9.17109 34.6424 10.4422 34.6424C11.7134 34.6424 12.7438 33.5986 12.7438 32.3111V29.9876Z" stroke="#EFA0EB" stroke-width="2" stroke-linecap="round" stroke-linejoin="round"/>
<path d="M19.9811 29.9876C19.9811 28.7 18.9507 27.6562 17.6795 27.6562C16.4084 27.6562 15.3779 28.7 15.3779 29.9876V32.3111C15.3779 33.5986 16.4084 34.6424 17.6795 34.6424C18.9507 34.6424 19.9811 33.5986 19.9811 32.3111V29.9876Z" stroke="#EFA0EB" stroke-width="2" stroke-linecap="round" stroke-linejoin="round"/>
<path d="M27.2253 29.9876C27.2253 28.7 26.1948 27.6562 24.9237 27.6562C23.6525 27.6562 22.6221 28.7 22.6221 29.9876V32.3111C22.6221 33.5986 23.6525 34.6424 24.9237 34.6424C26.1948 34.6424 27.2253 33.5986 27.2253 32.3111V29.9876Z" stroke="#EFA0EB" stroke-width="2" stroke-linecap="round" stroke-linejoin="round"/>
<path d="M39.2433 15.1232C39.6571 15.1232 39.9925 14.7834 39.9925 14.3643C39.9925 13.9452 39.6571 13.6055 39.2433 13.6055C38.8296 13.6055 38.4941 13.9452 38.4941 14.3643C38.4941 14.7834 38.8296 15.1232 39.2433 15.1232Z" fill="#2C0B4A"/>
</g>
<defs>
<clipPath id="clip0_22459_6113">
<rect width="40" height="40" fill="white"/>
</clipPath>
</defs>
</svg>
