<svg width="87" height="173" viewBox="0 0 87 173" fill="none" xmlns="http://www.w3.org/2000/svg">
<g opacity="0.5">
<path d="M85.8804 43.3909C85.8804 20.1909 67.0703 1.38086 43.8703 1.38086C20.6703 1.38086 1.86035 20.1909 1.86035 43.3909C1.86035 53.2609 5.26036 62.3309 10.9604 69.5009C17.2804 78.4409 32.1404 97.6908 42.7803 97.5208C55.9903 97.3108 77.0603 71.9308 80.5103 63.9308C83.9403 57.8508 85.8804 50.8509 85.8804 43.3909Z" fill="white" stroke="white" stroke-width="2" stroke-miterlimit="10" stroke-linecap="round" stroke-linejoin="round"/>
<path d="M16.3799 45.6906C15.8299 45.6906 15.3799 45.2406 15.3799 44.6906C15.3799 28.2606 28.7499 14.8906 45.1799 14.8906H47.5599C48.1099 14.8906 48.5599 15.3406 48.5599 15.8906C48.5599 16.4406 48.1099 16.8906 47.5599 16.8906H45.1799C29.8499 16.8906 17.3799 29.3606 17.3799 44.6906C17.3799 45.2406 16.9299 45.6906 16.3799 45.6906Z" fill="#491475"/>
<path d="M43.6601 97.5508L50.7001 104.591H36.6201L43.6601 97.5508Z" fill="white" stroke="white" stroke-width="2" stroke-miterlimit="10" stroke-linecap="round" stroke-linejoin="round"/>
<path d="M44.2003 105.102L51.5803 118.112C57.3703 128.312 53.7603 141.282 43.5403 147.032L43.3803 147.122C34.7403 151.982 30.6303 162.182 33.4803 171.682" stroke="white" stroke-width="2" stroke-miterlimit="10" stroke-linecap="round" stroke-linejoin="round"/>
<path d="M53.2802 18.4901C54.4069 18.4901 55.3202 17.5768 55.3202 16.4502C55.3202 15.3235 54.4069 14.4102 53.2802 14.4102C52.1536 14.4102 51.2402 15.3235 51.2402 16.4502C51.2402 17.5768 52.1536 18.4901 53.2802 18.4901Z" fill="#491475"/>
</g>
</svg>
