<svg width="87" height="173" viewBox="0 0 87 173" fill="none" xmlns="http://www.w3.org/2000/svg">
<path d="M85.2798 43.4397C85.2798 20.2397 66.4698 1.42969 43.2698 1.42969C20.0698 1.42969 1.25977 20.2397 1.25977 43.4397C1.25977 53.3097 4.65976 62.3797 10.3598 69.5497C16.6798 78.4897 31.5398 97.7397 42.1798 97.5697C55.3898 97.3597 76.4598 71.9797 79.9098 63.9797C83.3298 57.8997 85.2798 50.8997 85.2798 43.4397Z" fill="#491575" stroke="white" stroke-width="2" stroke-miterlimit="10" stroke-linecap="round" stroke-linejoin="round"/>
<path d="M15.7695 45.7394C15.2195 45.7394 14.7695 45.2894 14.7695 44.7394C14.7695 28.3094 28.1395 14.9395 44.5695 14.9395H46.9495C47.4995 14.9395 47.9495 15.3895 47.9495 15.9395C47.9495 16.4895 47.4995 16.9395 46.9495 16.9395H44.5695C29.2395 16.9395 16.7695 29.4094 16.7695 44.7394C16.7695 45.2894 16.3195 45.7394 15.7695 45.7394Z" fill="white"/>
<path d="M43.0498 97.5996L50.0998 104.64H36.0098L43.0498 97.5996Z" fill="white" stroke="white" stroke-width="2" stroke-miterlimit="10" stroke-linecap="round" stroke-linejoin="round"/>
<path d="M43.5998 105.15L50.9797 118.16C56.7697 128.36 53.1598 141.33 42.9398 147.08L42.7798 147.17C34.1398 152.03 30.0298 162.23 32.8798 171.73" stroke="white" stroke-width="2" stroke-miterlimit="10" stroke-linecap="round" stroke-linejoin="round"/>
<path d="M52.6699 18.5292C53.7965 18.5292 54.7099 17.6159 54.7099 16.4892C54.7099 15.3625 53.7965 14.4492 52.6699 14.4492C51.5432 14.4492 50.6299 15.3625 50.6299 16.4892C50.6299 17.6159 51.5432 18.5292 52.6699 18.5292Z" fill="white"/>
</svg>
