<svg width="87" height="173" viewBox="0 0 87 173" fill="none" xmlns="http://www.w3.org/2000/svg">
<path d="M85.48 43.01C85.48 19.81 66.67 1 43.47 1C20.27 1 1.45996 19.81 1.45996 43.01C1.45996 52.88 4.85995 61.95 10.56 69.12C16.88 78.06 31.74 97.31 42.38 97.14C55.59 96.93 76.6599 71.55 80.1099 63.55C83.5299 57.47 85.48 50.47 85.48 43.01Z" fill="white" stroke="white" stroke-width="2" stroke-miterlimit="10" stroke-linecap="round" stroke-linejoin="round"/>
<path d="M15.9795 45.3098C15.4295 45.3098 14.9795 44.8598 14.9795 44.3098C14.9795 27.8798 28.3495 14.5098 44.7795 14.5098H47.1595C47.7095 14.5098 48.1595 14.9598 48.1595 15.5098C48.1595 16.0598 47.7095 16.5098 47.1595 16.5098H44.7795C29.4495 16.5098 16.9795 28.9798 16.9795 44.3098C16.9795 44.8598 16.5295 45.3098 15.9795 45.3098Z" fill="#491475"/>
<path d="M43.2599 97.1699L50.3 104.21H36.21L43.2599 97.1699Z" fill="white" stroke="white" stroke-width="2" stroke-miterlimit="10" stroke-linecap="round" stroke-linejoin="round"/>
<path d="M43.7999 104.721L51.1799 117.731C56.9699 127.931 53.3599 140.901 43.1399 146.651L42.9799 146.741C34.3399 151.601 30.2299 161.801 33.0799 171.301" stroke="white" stroke-width="2" stroke-miterlimit="10" stroke-linecap="round" stroke-linejoin="round"/>
<path d="M52.8701 18.0995C53.9967 18.0995 54.9101 17.1862 54.9101 16.0595C54.9101 14.9329 53.9967 14.0195 52.8701 14.0195C51.7434 14.0195 50.8301 14.9329 50.8301 16.0595C50.8301 17.1862 51.7434 18.0995 52.8701 18.0995Z" fill="#491475"/>
</svg>
