<svg width="34" height="41" viewBox="0 0 34 41" fill="none" xmlns="http://www.w3.org/2000/svg">
<g clip-path="url(#clip0_22459_6146)">
<path d="M13.5566 27.2949C13.5566 27.2949 14.0737 31.9419 16.6524 35.5614" stroke="#2C0B4A" stroke-width="1.3" stroke-miterlimit="10" stroke-linecap="round"/>
<path d="M10.9717 26.7777C10.9717 26.7777 14.0675 27.8118 15.6187 25.2265C13.0333 23.6753 12.5229 23.1582 12.5229 23.1582L10.9717 26.7711V26.7777Z" stroke="#2C0B4A" stroke-width="1.3" stroke-linecap="round" stroke-linejoin="round"/>
<path d="M22.5131 30.9941C22.5131 30.9941 21.817 35.0379 19.2383 37.6232" stroke="#2C0B4A" stroke-width="1.3" stroke-miterlimit="10" stroke-linecap="round"/>
<path d="M24.7541 30.7951C24.7541 30.7951 21.7511 31.7961 20.2529 29.2969C22.7521 27.7987 23.2559 27.2949 23.2559 27.2949L24.7541 30.7951Z" stroke="#2C0B4A" stroke-width="1.3" stroke-linecap="round" stroke-linejoin="round"/>
<path d="M30.2226 27.0156C29.5332 27.0156 28.9697 27.5725 28.9697 28.2685C28.9697 28.9646 29.5266 29.5214 30.2226 29.5214C30.9187 29.5214 31.4755 28.9646 31.4755 28.2685" stroke="#C090FC" stroke-width="1.3" stroke-linecap="round" stroke-linejoin="round"/>
<path d="M3.35465 5.22627C5.14451 3.70157 7.5111 2.97237 9.85117 3.1845C20.2058 4.11921 18.3563 21.3615 12.052 23.1845C6.24494 24.8683 -4.30859 11.7626 3.35465 5.22627Z" stroke="#2C0B4A" stroke-width="1.3" stroke-miterlimit="10" stroke-linecap="round"/>
<path d="M7.63086 5.84877C10.1367 5.1262 12.7552 6.56472 13.4777 9.07052" stroke="#2C0B4A" stroke-width="1.3" stroke-miterlimit="10" stroke-linecap="round"/>
<path d="M5.92676 17.3516C5.92676 17.3516 8.61154 20.6263 11.4355 20.3877" stroke="#2C0B4A" stroke-width="1.3" stroke-miterlimit="10" stroke-linecap="round"/>
<path d="M30.3553 11.9355C28.8638 10.6627 26.8817 10.0528 24.9261 10.2318C16.2751 11.014 17.8197 25.4191 23.0832 26.9372C27.9357 28.3425 36.7524 17.3979 30.3553 11.9355V11.9355Z" stroke="#2C0B4A" stroke-width="1.3" stroke-miterlimit="10" stroke-linecap="round"/>
<path d="M26.2255 12.5578C24.1307 11.9545 21.9431 13.161 21.3398 15.2492" stroke="#2C0B4A" stroke-width="1.3" stroke-miterlimit="10" stroke-linecap="round"/>
<path d="M28.2012 21.9512C28.2012 21.9512 25.9605 24.689 23.6006 24.4901" stroke="#2C0B4A" stroke-width="1.3" stroke-miterlimit="10" stroke-linecap="round"/>
<path d="M27.8162 7.12855C28.1823 7.12855 28.4791 6.83176 28.4791 6.46564C28.4791 6.09953 28.1823 5.80273 27.8162 5.80273C27.4501 5.80273 27.1533 6.09953 27.1533 6.46564C27.1533 6.83176 27.4501 7.12855 27.8162 7.12855Z" fill="#C090FC"/>
<path d="M15.2205 3.15199C15.5866 3.15199 15.8834 2.8552 15.8834 2.48908C15.8834 2.12297 15.5866 1.82617 15.2205 1.82617C14.8544 1.82617 14.5576 2.12297 14.5576 2.48908C14.5576 2.8552 14.8544 3.15199 15.2205 3.15199Z" fill="#C090FC"/>
<path d="M22.5125 7.79262C22.8771 7.79262 23.1754 7.49431 23.1754 7.12971C23.1754 6.76511 22.8771 6.4668 22.5125 6.4668C22.1479 6.4668 21.8496 6.76511 21.8496 7.12971C21.8496 7.49431 22.1479 7.79262 22.5125 7.79262Z" fill="#C090FC"/>
<path d="M5.01154 25.0875C5.37766 25.0875 5.67445 24.7907 5.67445 24.4246C5.67445 24.0585 5.37766 23.7617 5.01154 23.7617C4.64543 23.7617 4.34863 24.0585 4.34863 24.4246C4.34863 24.7907 4.64543 25.0875 5.01154 25.0875Z" fill="#C090FC"/>
<path d="M27.1531 30.9938C27.5193 30.9938 27.8161 30.697 27.8161 30.3309C27.8161 29.9648 27.5193 29.668 27.1531 29.668C26.787 29.668 26.4902 29.9648 26.4902 30.3309C26.4902 30.697 26.787 30.9938 27.1531 30.9938Z" fill="#C090FC"/>
<path d="M5.94025 1.82582C6.30637 1.82582 6.60316 1.52903 6.60316 1.16291C6.60316 0.796795 6.30637 0.5 5.94025 0.5C5.57414 0.5 5.27734 0.796795 5.27734 1.16291C5.27734 1.52903 5.57414 1.82582 5.94025 1.82582Z" fill="#C090FC"/>
<path d="M13.8621 11.5582C14.2282 11.5582 14.525 11.2614 14.525 10.8953C14.525 10.5292 14.2282 10.2324 13.8621 10.2324C13.496 10.2324 13.1992 10.5292 13.1992 10.8953C13.1992 11.2614 13.496 11.5582 13.8621 11.5582Z" fill="#2C0B4A"/>
<path d="M28.0545 13.8707C28.4206 13.8707 28.7174 13.5739 28.7174 13.2078C28.7174 12.8417 28.4206 12.5449 28.0545 12.5449C27.6884 12.5449 27.3916 12.8417 27.3916 13.2078C27.3916 13.5739 27.6884 13.8707 28.0545 13.8707Z" fill="#2C0B4A"/>
<path d="M27.1859 34.3672L25.6612 35.7195L26.8478 36.9592L25.3828 38.3712L26.7351 39.8362" stroke="#C090FC" stroke-width="1.3" stroke-linecap="round" stroke-linejoin="round"/>
<path d="M8.31273 32.6177C9.29392 32.6177 10.0893 31.8222 10.0893 30.8411C10.0893 29.8599 9.29392 29.0645 8.31273 29.0645C7.33154 29.0645 6.53613 29.8599 6.53613 30.8411C6.53613 31.8222 7.33154 32.6177 8.31273 32.6177Z" stroke="#C090FC" stroke-width="1.3" stroke-linecap="round" stroke-linejoin="round"/>
<path d="M11.051 35.0977L13.3049 35.7208L10.7129 37.4112L13.0264 38.3194" stroke="#C090FC" stroke-width="1.3" stroke-linecap="round" stroke-linejoin="round"/>
</g>
<defs>
<clipPath id="clip0_22459_6146">
<rect width="33.2582" height="40" fill="white" transform="translate(0 0.5)"/>
</clipPath>
</defs>
</svg>
