<svg width="40" height="51" viewBox="0 0 40 51" fill="none" xmlns="http://www.w3.org/2000/svg">
<g clip-path="url(#clip0_24033_6227)">
<path d="M17.55 25.4492L16.62 22.3292C16.18 20.8392 17.04 19.2792 18.54 18.8692C20 18.4692 21.5 19.3092 21.93 20.7492L23.1 24.6692" stroke="white" stroke-width="2" stroke-miterlimit="10" stroke-linecap="round" stroke-linejoin="round"/>
<path d="M23.4193 25.6986L22.5093 22.5786C22.0793 21.0886 22.9493 19.5286 24.4493 19.1286C25.9093 18.7386 27.4093 19.5786 27.8293 21.0286L28.9693 24.9586" stroke="white" stroke-width="2" stroke-miterlimit="10" stroke-linecap="round" stroke-linejoin="round"/>
<path d="M29.3895 26.4391L28.4795 23.3191C28.0495 21.8291 28.9195 20.2691 30.4195 19.8691C31.8795 19.4791 33.3795 20.3191 33.7995 21.7691L37.7295 34.9991C39.1495 39.7791 36.4195 44.7991 31.6395 46.2191L21.4695 49.2391C19.5995 49.7991 17.5795 49.4091 16.0395 48.2191L2.51953 37.6991C1.41953 36.8391 1.69953 35.1091 3.00953 34.6391C5.74953 33.6591 8.79953 34.0191 11.2295 35.6191L12.8195 36.6591C13.7395 37.1791 14.8795 36.5591 14.9395 35.4991L7.11953 9.19915C6.69953 7.77915 7.50953 6.27915 8.93953 5.84915C10.3695 5.42915 11.8595 6.23915 12.2895 7.65915L17.6595 25.7191" stroke="white" stroke-width="2" stroke-miterlimit="10" stroke-linecap="round" stroke-linejoin="round"/>
<path d="M1 6.55C1 3.49 3.49 1 6.55 1H6.61" stroke="white" stroke-width="2" stroke-miterlimit="10" stroke-linecap="round" stroke-linejoin="round"/>
</g>
<defs>
<clipPath id="clip0_24033_6227">
<rect width="39.1" height="50.5" fill="white"/>
</clipPath>
</defs>
</svg>
