<svg width="40" height="40" viewBox="0 0 40 40" fill="none" xmlns="http://www.w3.org/2000/svg">
<path d="M14.4468 0.877743C7.09816 1.35678 1.25265 7.10529 0.835116 14.1312C0.668102 16.5264 1.16915 18.8418 2.17123 20.8378C2.33825 21.237 2.58877 21.7161 2.67228 22.1951C3.08981 24.0314 3.08981 26.6662 0.835116 28.8219C0.835116 28.8219 6.09608 31.3767 9.43637 28.1831L9.7704 27.8638C12.0251 28.8219 14.2798 29.2211 16.8685 28.9815C24.0501 28.4227 29.8121 22.8338 30.3132 15.9676C31.0648 7.34481 23.5491 0.15918 14.4468 0.877743Z" stroke="#2C0B4A" stroke-width="1.5" stroke-miterlimit="10" stroke-linecap="round" stroke-linejoin="round"/>
<path d="M34.4884 14.1309C37.1607 16.5261 38.9143 19.8794 39.0813 23.6319C39.2484 26.0271 38.7473 28.3424 37.7452 30.3384C37.5782 30.7376 37.3277 31.2167 37.2442 31.6957C36.8266 33.5321 36.8266 36.1668 39.0813 38.3225C39.0813 38.3225 33.8204 40.8774 30.4801 37.6838L30.1461 37.3644C27.8914 38.3225 25.6367 38.7217 23.0479 38.4822C19.2066 38.1628 15.6993 36.4063 13.2776 33.7716" stroke="#C090FC" stroke-width="1.5" stroke-miterlimit="10" stroke-linecap="round" stroke-linejoin="round"/>
<path d="M9.60343 16.3664C10.2491 16.3664 10.7725 15.8659 10.7725 15.2486C10.7725 14.6313 10.2491 14.1309 9.60343 14.1309C8.95775 14.1309 8.43433 14.6313 8.43433 15.2486C8.43433 15.8659 8.95775 16.3664 9.60343 16.3664Z" fill="#2C0B4A"/>
<path d="M15.5324 16.3664C16.1781 16.3664 16.7015 15.8659 16.7015 15.2486C16.7015 14.6313 16.1781 14.1309 15.5324 14.1309C14.8867 14.1309 14.3633 14.6313 14.3633 15.2486C14.3633 15.8659 14.8867 16.3664 15.5324 16.3664Z" fill="#2C0B4A"/>
<path d="M21.6286 16.3664C22.2743 16.3664 22.7977 15.8659 22.7977 15.2486C22.7977 14.6313 22.2743 14.1309 21.6286 14.1309C20.9829 14.1309 20.4595 14.6313 20.4595 15.2486C20.4595 15.8659 20.9829 16.3664 21.6286 16.3664Z" fill="#2C0B4A"/>
</svg>
