<svg width="40" height="39" viewBox="0 0 40 39" fill="none" xmlns="http://www.w3.org/2000/svg">
<path d="M23.1423 37.3535H39.3585" stroke="#2C0B4A" stroke-width="1.5" stroke-miterlimit="10" stroke-linecap="round" stroke-linejoin="round"/>
<path d="M0.800049 37.3535H17.3046" stroke="#2C0B4A" stroke-width="1.5" stroke-miterlimit="10" stroke-linecap="round" stroke-linejoin="round"/>
<path d="M20.2596 38.3996C20.6974 38.3996 21.0524 38.0312 21.0524 37.5767C21.0524 37.1223 20.6974 36.7539 20.2596 36.7539C19.8217 36.7539 19.4668 37.1223 19.4668 37.5767C19.4668 38.0312 19.8217 38.3996 20.2596 38.3996Z" fill="#2C0B4A"/>
<path d="M16.2234 26.2832C16.6214 26.2832 16.9441 25.9483 16.9441 25.5351C16.9441 25.122 16.6214 24.7871 16.2234 24.7871C15.8254 24.7871 15.5027 25.122 15.5027 25.5351C15.5027 25.9483 15.8254 26.2832 16.2234 26.2832Z" fill="#2C0B4A"/>
<path d="M25.2324 4.74216C25.6305 4.74216 25.9532 4.40725 25.9532 3.99412C25.9532 3.581 25.6305 3.24609 25.2324 3.24609C24.8344 3.24609 24.5117 3.581 24.5117 3.99412C24.5117 4.40725 24.8344 4.74216 25.2324 4.74216Z" fill="#2C0B4A"/>
<path d="M35.755 36.9781V19.8496H4.33154V36.8285" stroke="#2C0B4A" stroke-width="1.5" stroke-miterlimit="10" stroke-linecap="round" stroke-linejoin="round"/>
<path d="M27.4666 8.85547H34.3134L38.4936 19.9254H1.66479L6.42155 8.85547H12.6197" stroke="#2C0B4A" stroke-width="1.5" stroke-miterlimit="10" stroke-linecap="round" stroke-linejoin="round"/>
<path d="M26.6019 5.78824C27.1065 6.8354 27.3947 7.95736 27.3947 9.15411C27.3947 13.3427 24.1515 16.7086 20.1155 16.7086C16.0794 16.7086 12.8362 13.3427 12.8362 9.15411C12.8362 4.96548 16.0074 1.59961 20.0434 1.59961C21.3407 1.59961 22.4938 1.8988 23.5028 2.49717" stroke="#2C0B4A" stroke-width="1.5" stroke-miterlimit="10" stroke-linecap="round" stroke-linejoin="round"/>
<path d="M3.61084 16.2598H7.0703" stroke="#2C0B4A" stroke-width="1.5" stroke-miterlimit="10" stroke-linecap="round" stroke-linejoin="round"/>
<path d="M4.9082 12.7441H12.9803" stroke="#2C0B4A" stroke-width="1.5" stroke-miterlimit="10" stroke-linecap="round" stroke-linejoin="round"/>
<path d="M9.95312 16.2598H17.3765" stroke="#2C0B4A" stroke-width="1.5" stroke-miterlimit="10" stroke-linecap="round" stroke-linejoin="round"/>
<path d="M26.8901 12.5938H35.2505" stroke="#2C0B4A" stroke-width="1.5" stroke-miterlimit="10" stroke-linecap="round" stroke-linejoin="round"/>
<path d="M22.71 16.1855H36.9082" stroke="#2C0B4A" stroke-width="1.5" stroke-miterlimit="10" stroke-linecap="round" stroke-linejoin="round"/>
<path d="M9.01636 37.3529H13.8452V23.291H9.01636" stroke="#2C0B4A" stroke-width="1.5" stroke-miterlimit="10" stroke-linecap="round" stroke-linejoin="round"/>
<path d="M9.01636 28.826V37.3529H13.8452V23.291H9.01636V25.1609" stroke="#2C0B4A" stroke-width="1.5" stroke-miterlimit="10" stroke-linecap="round" stroke-linejoin="round"/>
<path d="M31.4306 23.291H26.6018V37.3529H31.4306V23.291Z" stroke="#2C0B4A" stroke-width="1.5" stroke-miterlimit="10" stroke-linecap="round" stroke-linejoin="round"/>
<path d="M9.01636 23.291H31.4308" stroke="#2C0B4A" stroke-width="1.5" stroke-miterlimit="10" stroke-linecap="round" stroke-linejoin="round"/>
<path d="M16.2234 28.002V29.5728" stroke="#2C0B4A" stroke-width="1.5" stroke-miterlimit="10" stroke-linecap="round" stroke-linejoin="round"/>
<path d="M23.6469 7.88315H21.2685V5.33984H18.746V7.88315H16.4397V10.202H18.746V12.7454H21.2685V10.202H23.6469V7.88315Z" stroke="#EFA0EB" stroke-width="1.5" stroke-miterlimit="10" stroke-linecap="round" stroke-linejoin="round"/>
</svg>
