<svg width="40" height="40" viewBox="0 0 40 40" fill="none" xmlns="http://www.w3.org/2000/svg">
<path d="M7.28775 21.9462H2.40162C1.49065 21.9462 0.828125 21.2009 0.828125 20.3727V20.1243C0.828125 19.2133 1.57347 18.5508 2.40162 18.5508H7.28775C8.19873 18.5508 8.86125 19.2961 8.86125 20.1243V20.3727C8.86125 21.2837 8.11591 21.9462 7.28775 21.9462Z" stroke="#2C0B4A" stroke-width="1.5" stroke-miterlimit="10" stroke-linecap="round" stroke-linejoin="round"/>
<path d="M7.28775 9.0263H2.40162C1.57347 9.0263 0.828125 8.36378 0.828125 7.45281V7.20436C0.828125 6.29338 1.57347 5.63086 2.40162 5.63086H7.28775C8.19873 5.63086 8.86125 6.3762 8.86125 7.20436V7.45281C8.86125 8.36378 8.11591 9.0263 7.28775 9.0263Z" stroke="#2C0B4A" stroke-width="1.5" stroke-miterlimit="10" stroke-linecap="round" stroke-linejoin="round"/>
<path d="M7.28775 35.1962H2.40162C1.49065 35.1962 0.828125 34.4509 0.828125 33.6227V33.3743C0.828125 32.4633 1.57347 31.8008 2.40162 31.8008H7.28775C8.19873 31.8008 8.86125 32.5461 8.86125 33.3743V33.6227C8.86125 34.4509 8.11591 35.1962 7.28775 35.1962Z" stroke="#2C0B4A" stroke-width="1.5" stroke-miterlimit="10" stroke-linecap="round" stroke-linejoin="round"/>
<path d="M4.6377 4.8861C4.6377 2.07036 6.21119 0.828125 8.11596 0.828125H31.47C33.3748 0.828125 34.9483 2.40162 34.9483 4.30639V16.8116" stroke="#2C0B4A" stroke-width="1.5" stroke-miterlimit="10" stroke-linecap="round" stroke-linejoin="round"/>
<path d="M4.6377 18.0535V9.52344" stroke="#2C0B4A" stroke-width="1.5" stroke-miterlimit="10" stroke-linecap="round" stroke-linejoin="round"/>
<path d="M4.6377 31.3046V22.4434" stroke="#2C0B4A" stroke-width="1.5" stroke-miterlimit="10" stroke-linecap="round" stroke-linejoin="round"/>
<path d="M34.9483 23.7676V35.693C34.9483 37.5978 33.3748 39.1713 31.47 39.1713H8.11596C6.21119 39.1713 4.6377 37.5978 4.6377 35.693" stroke="#2C0B4A" stroke-width="1.5" stroke-miterlimit="10" stroke-linecap="round" stroke-linejoin="round"/>
<path d="M32.7122 39.1718H35.6935C37.5983 39.1718 39.1718 37.5983 39.1718 35.6935V23.7681V16.8116V4.30639C39.1718 2.40162 37.5983 0.828125 35.6935 0.828125H33.1262" stroke="#2C0B4A" stroke-width="1.5" stroke-miterlimit="10" stroke-linecap="round" stroke-linejoin="round"/>
<path d="M14.3271 32.2988H25.6729" stroke="#2C0B4A" stroke-width="1.5" stroke-miterlimit="10" stroke-linecap="round" stroke-linejoin="round"/>
<path d="M28.0746 28.2394H11.9255V27.4112C11.9255 23.2704 15.321 19.875 19.4618 19.875H20.5384C24.6792 19.875 28.0746 23.2704 28.0746 27.4112V28.2394Z" stroke="#C090FC" stroke-width="1.5" stroke-miterlimit="10" stroke-linecap="round" stroke-linejoin="round"/>
<path d="M19.9585 17.3917C18.2194 17.3917 16.8115 15.9838 16.8115 14.2447V13.4165C16.8115 11.6774 18.2194 10.2695 19.9585 10.2695C21.6977 10.2695 23.1055 11.6774 23.1055 13.4165V14.2447C23.1883 15.9838 21.6977 17.3917 19.9585 17.3917Z" stroke="#C090FC" stroke-width="1.5" stroke-miterlimit="10" stroke-linecap="round" stroke-linejoin="round"/>
<path d="M34.9483 21.2829C35.4514 21.2829 35.8593 20.875 35.8593 20.3719C35.8593 19.8688 35.4514 19.4609 34.9483 19.4609C34.4452 19.4609 34.0374 19.8688 34.0374 20.3719C34.0374 20.875 34.4452 21.2829 34.9483 21.2829Z" fill="#2C0B4A"/>
</svg>
