<svg width="40" height="40" viewBox="0 0 40 40" fill="none" xmlns="http://www.w3.org/2000/svg">
<path d="M9.91023 28.6774L9.7666 4.37989C9.7666 2.47906 11.0592 0.991461 12.7109 0.991461L27.4327 0.826172C29.0844 0.826172 30.377 2.31378 30.377 4.2146L30.5925 35.6196C30.5925 37.5204 29.2998 39.008 27.6481 39.008L12.9264 39.1733C11.2747 39.1733 9.98204 37.6857 9.98204 35.7848" stroke="#2C0B4A" stroke-width="1.5" stroke-miterlimit="10" stroke-linecap="round" stroke-linejoin="round"/>
<path d="M31.3823 5.86719V9.50355" stroke="#2C0B4A" stroke-width="1.5" stroke-miterlimit="10" stroke-linecap="round" stroke-linejoin="round"/>
<path d="M31.3823 11.7344V15.4534" stroke="#2C0B4A" stroke-width="1.5" stroke-miterlimit="10" stroke-linecap="round" stroke-linejoin="round"/>
<path d="M20.4667 3.71875H18.1687" stroke="#2C0B4A" stroke-width="1.5" stroke-miterlimit="10" stroke-linecap="round" stroke-linejoin="round"/>
<path d="M22.4776 4.37895C22.7949 4.37895 23.0521 4.08294 23.0521 3.7178C23.0521 3.35265 22.7949 3.05664 22.4776 3.05664C22.1603 3.05664 21.9031 3.35265 21.9031 3.7178C21.9031 4.08294 22.1603 4.37895 22.4776 4.37895Z" fill="#2C0B4A"/>
<path d="M9.98198 33.0567C10.2993 33.0567 10.5565 32.7607 10.5565 32.3955C10.5565 32.0304 10.2993 31.7344 9.98198 31.7344C9.66469 31.7344 9.40747 32.0304 9.40747 32.3955C9.40747 32.7607 9.66469 33.0567 9.98198 33.0567Z" fill="#2C0B4A"/>
<path d="M34.5422 16.6953C36.0503 19.3399 36.2658 22.1499 34.7577 25.2904" stroke="#C090FC" stroke-width="1.5" stroke-miterlimit="10" stroke-linecap="round" stroke-linejoin="round"/>
<path d="M37.343 13.8848C39.641 17.9344 40.0001 22.3145 37.6303 27.1079" stroke="#C090FC" stroke-width="1.5" stroke-miterlimit="10" stroke-linecap="round" stroke-linejoin="round"/>
<path d="M5.45791 24.2982C3.94983 21.6535 3.66258 18.8436 5.24247 15.7031" stroke="#C090FC" stroke-width="1.5" stroke-miterlimit="10" stroke-linecap="round" stroke-linejoin="round"/>
<path d="M2.65707 27.1079C0.359046 23.0583 -2.02503e-05 18.6782 2.36982 13.8848" stroke="#C090FC" stroke-width="1.5" stroke-miterlimit="10" stroke-linecap="round" stroke-linejoin="round"/>
</svg>
