<svg width="40" height="30" viewBox="0 0 40 30" fill="none" xmlns="http://www.w3.org/2000/svg">
<path d="M37.6431 8.0332V13.5273L40.0001 19.6245H34.9395L37.4351 13.7283" stroke="#EFA0EB" stroke-width="1.5" stroke-miterlimit="10" stroke-linecap="round" stroke-linejoin="round"/>
<path d="M14.0035 3.14243L19.0641 1.40039L38.0589 7.89955L19.0641 15.0017L0 7.96656L6.16984 5.8225" stroke="#2C0B4A" stroke-width="1.5" stroke-miterlimit="10" stroke-linecap="round" stroke-linejoin="round"/>
<path d="M30.7106 10.5801V18.6203C23.0849 21.2333 15.2513 21.0323 7.20972 18.6203V10.5801" stroke="#2C0B4A" stroke-width="1.5" stroke-miterlimit="10" stroke-linecap="round" stroke-linejoin="round"/>
<path d="M32.9288 19.4238V22.2379H7.90283" stroke="#2C0B4A" stroke-width="1.5" stroke-miterlimit="10" stroke-linecap="round" stroke-linejoin="round"/>
<path d="M27.7991 25.6543H32.9291V28.8034H27.8684" stroke="#2C0B4A" stroke-width="1.5" stroke-miterlimit="10" stroke-linecap="round" stroke-linejoin="round"/>
<path d="M7.90308 25.6543H22.1145" stroke="#2C0B4A" stroke-width="1.5" stroke-miterlimit="10" stroke-linecap="round" stroke-linejoin="round"/>
<path d="M22.3224 28.8027H7.14038" stroke="#2C0B4A" stroke-width="1.5" stroke-miterlimit="10" stroke-linecap="round" stroke-linejoin="round"/>
<path d="M22.5996 24.9844H27.3829L27.5909 29.2055L25.0259 27.3294L22.4609 29.1385C22.4609 29.1385 22.5996 24.9844 22.5996 24.9844Z" stroke="#EFA0EB" stroke-width="1.5" stroke-miterlimit="10" stroke-linecap="round" stroke-linejoin="round"/>
<path d="M31.4731 22.5059V25.0519" stroke="#2C0B4A" stroke-width="1.5" stroke-miterlimit="10" stroke-linecap="round" stroke-linejoin="round"/>
<path d="M7.90298 22.2383C4.7834 22.2383 4.92204 25.5884 7.90298 25.6554" stroke="#2C0B4A" stroke-width="1.5" stroke-miterlimit="10" stroke-linecap="round" stroke-linejoin="round"/>
<path d="M7.14038 28.8036C-1.03986 28.8036 3.1566e-07 18.8203 7.487 18.8203" stroke="#2C0B4A" stroke-width="1.5" stroke-miterlimit="10" stroke-linecap="round" stroke-linejoin="round"/>
</svg>
