<svg width="342" height="63" viewBox="0 0 342 63" fill="none" xmlns="http://www.w3.org/2000/svg">
<g clip-path="url(#clip0_24869_6935)">
<path d="M171 55.5996C184.255 55.5996 195 44.8544 195 31.5996C195 18.3448 184.255 7.59961 171 7.59961C157.745 7.59961 147 18.3448 147 31.5996C147 44.8544 157.745 55.5996 171 55.5996Z" stroke="white" stroke-width="2" stroke-miterlimit="10"/>
<path d="M171 36.0996C173.485 36.0996 175.5 34.0849 175.5 31.5996C175.5 29.1143 173.485 27.0996 171 27.0996C168.515 27.0996 166.5 29.1143 166.5 31.5996C166.5 34.0849 168.515 36.0996 171 36.0996Z" fill="white"/>
<path d="M338 39.9008H4.0998C2.2998 39.9008 0.799805 38.4008 0.799805 36.6008V26.6008C0.799805 24.8008 2.2998 23.3008 4.0998 23.3008H338.1C339.9 23.3008 341.4 24.8008 341.4 26.6008V36.6008C341.3 38.4008 339.9 39.9008 338 39.9008Z" stroke="white" stroke-width="1.5" stroke-miterlimit="10"/>
<path d="M253 22.7V2H270.8" stroke="white" stroke-width="2" stroke-miterlimit="10" stroke-linecap="round" stroke-linejoin="round"/>
<path d="M88.7998 22.7V2H70.9998" stroke="white" stroke-width="2" stroke-miterlimit="10" stroke-linecap="round" stroke-linejoin="round"/>
</g>
<defs>
<clipPath id="clip0_24869_6935">
<rect width="342" height="63" fill="white"/>
</clipPath>
</defs>
</svg>
