<svg width="365" height="53" viewBox="0 0 365 53" fill="none" xmlns="http://www.w3.org/2000/svg">
<path fill-rule="evenodd" clip-rule="evenodd" d="M182.709 2.39453C169.294 2.39453 158.419 13.2699 158.419 26.6854C158.419 40.1009 169.294 50.9763 182.709 50.9763C196.125 50.9763 207 40.1009 207 26.6854C207 13.2699 196.125 2.39453 182.709 2.39453ZM156.419 26.6854C156.419 12.1654 168.189 0.394531 182.709 0.394531C197.229 0.394531 209 12.1654 209 26.6854C209 41.2055 197.229 52.9763 182.709 52.9763C168.189 52.9763 156.419 41.2055 156.419 26.6854Z" fill="white"/>
<path d="M182.711 31.0185C185.312 31.0185 187.421 28.9096 187.421 26.3081C187.421 23.7066 185.312 21.5977 182.711 21.5977C180.109 21.5977 178 23.7066 178 26.3081C178 28.9096 180.109 31.0185 182.711 31.0185Z" fill="white"/>
<rect x="1" y="16.9961" width="363" height="18" rx="5" stroke="white" stroke-width="2"/>
</svg>
