<svg width="26" height="23" viewBox="0 0 26 23" fill="none" xmlns="http://www.w3.org/2000/svg">
<path d="M23.2247 11.2869C23.8834 9.8858 24.2546 8.41281 24.2187 6.87993C24.0151 -1.01198 14.3269 0.413124 12.3749 3.89802C10.7941 0.305343 1.30944 -1.04791 1.10586 6.87993C0.914251 13.9455 12.5305 21.7896 12.5305 21.7896C13.764 21.0231 15.8957 19.6339 17.9914 17.7897" stroke="white" stroke-width="2" stroke-miterlimit="10" stroke-linecap="round" stroke-linejoin="round"/>
<path d="M20.8418 16.1602C21.4966 16.1602 22.0274 15.6295 22.0274 14.9747C22.0274 14.3199 21.4966 13.7891 20.8418 13.7891C20.1871 13.7891 19.6562 14.3199 19.6562 14.9747C19.6562 15.6295 20.1871 16.1602 20.8418 16.1602Z" fill="white"/>
</svg>
