<svg width="41" height="40" viewBox="0 0 41 40" fill="none" xmlns="http://www.w3.org/2000/svg">
<g clip-path="url(#clip0_22459_6181)">
<path d="M29.5303 31.2924L26.0542 22.0089L20.1298 6.16602L7.78809 39.1637H14.8739H32.4716L29.5303 31.2924Z" stroke="#2C0B4A" stroke-width="2" stroke-linecap="round" stroke-linejoin="round"/>
<path d="M17.7818 0.943359H39.4238V4.26903H0.835938V0.943359H6.90237" stroke="#EFA0EB" stroke-width="2" stroke-linecap="round" stroke-linejoin="round"/>
<path d="M19.6696 19.2435C20.1311 19.2435 20.5052 18.8693 20.5052 18.4079C20.5052 17.9464 20.1311 17.5723 19.6696 17.5723C19.2081 17.5723 18.834 17.9464 18.834 18.4079C18.834 18.8693 19.2081 19.2435 19.6696 19.2435Z" fill="#2C0B4A"/>
<path d="M13.2356 0.835596C13.2356 1.29517 12.8596 1.67119 12.4 1.67119C11.9405 1.67119 11.5645 1.29517 11.5645 0.835596C11.5645 0.376018 11.9405 0 12.4 0C12.8596 0 13.2356 0.376018 13.2356 0.835596Z" fill="#EFA0EB"/>
<path d="M16.1191 28.3861L18.6259 21.3086" stroke="#2C0B4A" stroke-width="2" stroke-linecap="round" stroke-linejoin="round"/>
</g>
<defs>
<clipPath id="clip0_22459_6181">
<rect width="40.259" height="40" fill="white"/>
</clipPath>
</defs>
</svg>
