<svg width="18" height="18" viewBox="0 0 18 18" fill="none" xmlns="http://www.w3.org/2000/svg">
<path d="M12.2071 8.04044C12.5976 7.64992 12.5976 7.01675 12.2071 6.62623C11.8166 6.2357 11.1834 6.2357 10.7929 6.62623L12.2071 8.04044ZM8.16667 10.6667L7.45956 11.3738C7.85008 11.7643 8.48325 11.7643 8.87377 11.3738L8.16667 10.6667ZM7.20711 8.29289C6.81658 7.90237 6.18342 7.90237 5.79289 8.29289C5.40237 8.68342 5.40237 9.31658 5.79289 9.70711L7.20711 8.29289ZM9 15.5C5.41015 15.5 2.5 12.5899 2.5 9H0.5C0.5 13.6944 4.30558 17.5 9 17.5V15.5ZM2.5 9C2.5 5.41015 5.41015 2.5 9 2.5V0.5C4.30558 0.5 0.5 4.30558 0.5 9H2.5ZM9 2.5C12.5899 2.5 15.5 5.41015 15.5 9H17.5C17.5 4.30558 13.6944 0.5 9 0.5V2.5ZM15.5 9C15.5 12.5899 12.5899 15.5 9 15.5V17.5C13.6944 17.5 17.5 13.6944 17.5 9H15.5ZM10.7929 6.62623L7.45956 9.95956L8.87377 11.3738L12.2071 8.04044L10.7929 6.62623ZM8.87377 9.95956L7.20711 8.29289L5.79289 9.70711L7.45956 11.3738L8.87377 9.95956Z" fill="#280446"/>
</svg>
