<svg width="24" height="24" viewBox="0 0 24 24" fill="none" xmlns="http://www.w3.org/2000/svg">
<g clip-path="url(#clip0_1009_8847)">
<path d="M12 2C10.0222 2 8.08879 2.58649 6.4443 3.6853C4.79981 4.78412 3.51809 6.3459 2.76121 8.17317C2.00433 10.0004 1.8063 12.0111 2.19215 13.9509C2.578 15.8907 3.53041 17.6725 4.92894 19.0711C6.32746 20.4696 8.10929 21.422 10.0491 21.8079C11.9889 22.1937 13.9996 21.9957 15.8268 21.2388C17.6541 20.4819 19.2159 19.2002 20.3147 17.5557C21.4135 15.9112 22 13.9778 22 12C21.9971 9.34872 20.9426 6.80684 19.0679 4.9321C17.1932 3.05736 14.6513 2.00287 12 2V2ZM12 20.3333C10.3518 20.3333 8.74066 19.8446 7.37025 18.9289C5.99984 18.0132 4.93174 16.7117 4.30101 15.189C3.67028 13.6663 3.50525 11.9908 3.82679 10.3742C4.14834 8.75774 4.94201 7.27288 6.10745 6.10744C7.27289 4.94201 8.75774 4.14833 10.3743 3.82679C11.9908 3.50525 13.6663 3.67027 15.189 4.301C16.7118 4.93173 18.0132 5.99984 18.9289 7.37025C19.8446 8.74066 20.3333 10.3518 20.3333 12C20.3309 14.2094 19.4522 16.3276 17.8899 17.8899C16.3276 19.4522 14.2094 20.3309 12 20.3333V20.3333Z" fill="#491475"/>
<path d="M12 10.332H11.1666C10.9456 10.332 10.7337 10.4198 10.5774 10.5761C10.4211 10.7324 10.3333 10.9444 10.3333 11.1654C10.3333 11.3864 10.4211 11.5983 10.5774 11.7546C10.7337 11.9109 10.9456 11.9987 11.1666 11.9987H12V16.9987C12 17.2197 12.0878 17.4317 12.2441 17.588C12.4003 17.7442 12.6123 17.832 12.8333 17.832C13.0543 17.832 13.2663 17.7442 13.4226 17.588C13.5788 17.4317 13.6666 17.2197 13.6666 16.9987V11.9987C13.6666 11.5567 13.4911 11.1327 13.1785 10.8202C12.8659 10.5076 12.442 10.332 12 10.332Z" fill="#491475"/>
<path d="M12 8.66797C12.6904 8.66797 13.25 8.10832 13.25 7.41797C13.25 6.72761 12.6904 6.16797 12 6.16797C11.3096 6.16797 10.75 6.72761 10.75 7.41797C10.75 8.10832 11.3096 8.66797 12 8.66797Z" fill="#491475"/>
</g>
<defs>
<clipPath id="clip0_1009_8847">
<rect width="20" height="20" fill="white" transform="translate(2 2)"/>
</clipPath>
</defs>
</svg>
