<svg width="18" height="20" viewBox="0 0 18 20" fill="none" xmlns="http://www.w3.org/2000/svg">
<path d="M1 6C0.447715 6 0 6.44772 0 7C0 7.55228 0.447715 8 1 8V6ZM17 8C17.5523 8 18 7.55228 18 7C18 6.44772 17.5523 6 17 6V8ZM2.0918 18.782L2.54579 17.891H2.54579L2.0918 18.782ZM1.21799 17.908L0.32698 18.362H0.32698L1.21799 17.908ZM16.7822 17.908L15.8912 17.454L16.7822 17.908ZM15.9078 18.782L15.4538 17.891L15.9078 18.782ZM15.9078 3.21799L16.3618 2.32698V2.32698L15.9078 3.21799ZM16.7822 4.09204L15.8912 4.54603L16.7822 4.09204ZM2.0918 3.21799L2.54579 4.10899L2.0918 3.21799ZM1.21799 4.09204L2.10899 4.54603L1.21799 4.09204ZM14 1C14 0.447715 13.5523 0 13 0C12.4477 0 12 0.447715 12 1H14ZM12 3C12 3.55228 12.4477 4 13 4C13.5523 4 14 3.55228 14 3H12ZM6 1C6 0.447715 5.55228 0 5 0C4.44772 0 4 0.447715 4 1H6ZM4 3C4 3.55228 4.44772 4 5 4C5.55228 4 6 3.55228 6 3H4ZM1 8H17V6H1V8ZM4.2002 4H13.8002V2H4.2002V4ZM16 6.19995V15.8H18V6.19995H16ZM13.8002 18H4.2002V20H13.8002V18ZM2 15.8V6.19995H0V15.8H2ZM4.2002 18C3.62367 18 3.25127 17.9992 2.96782 17.9761C2.69598 17.9538 2.59519 17.9161 2.54579 17.891L1.63781 19.673C2.01623 19.8658 2.40959 19.9371 2.80496 19.9694C3.18873 20.0008 3.65662 20 4.2002 20V18ZM0 15.8C0 16.3435 -0.000777602 16.8113 0.030569 17.195C0.0628681 17.5904 0.134179 17.9836 0.32698 18.362L2.10899 17.454C2.08381 17.4046 2.04613 17.3039 2.02393 17.0322C2.00078 16.7488 2 16.3765 2 15.8H0ZM2.54579 17.891C2.35778 17.7952 2.20494 17.6424 2.10899 17.454L0.32698 18.362C0.614523 18.9264 1.07317 19.3853 1.63781 19.673L2.54579 17.891ZM16 15.8C16 16.3766 15.9993 16.7489 15.9762 17.0323C15.954 17.3041 15.9163 17.4047 15.8912 17.454L17.6732 18.362C17.8661 17.9835 17.9373 17.5902 17.9696 17.1949C18.0008 16.8112 18 16.3434 18 15.8H16ZM13.8002 20C14.3438 20 14.8115 20.0008 15.1951 19.9694C15.5904 19.9371 15.9835 19.8657 16.3618 19.673L15.4538 17.891C15.4043 17.9162 15.3036 17.9539 15.0321 17.9761C14.7489 17.9992 14.3767 18 13.8002 18V20ZM15.8912 17.454C15.7956 17.6417 15.6425 17.7948 15.4538 17.891L16.3618 19.673C16.9257 19.3856 17.3853 18.927 17.6732 18.362L15.8912 17.454ZM13.8002 4C14.3768 4 14.7489 4.00078 15.0321 4.02393C15.3036 4.04611 15.4043 4.08377 15.4538 4.10899L16.3618 2.32698C15.9835 2.13421 15.5904 2.06288 15.1951 2.03057C14.8115 1.99922 14.3437 2 13.8002 2V4ZM18 6.19995C18 5.6565 18.0008 5.1887 17.9695 4.80511C17.9373 4.40983 17.8661 4.01653 17.6732 3.63805L15.8912 4.54603C15.9164 4.59537 15.954 4.69598 15.9762 4.96767C15.9993 5.25105 16 5.6233 16 6.19995H18ZM15.4538 4.10899C15.6424 4.20508 15.7956 4.35828 15.8912 4.54603L17.6732 3.63805C17.3854 3.07315 16.9259 2.61439 16.3618 2.32698L15.4538 4.10899ZM4.2002 2C3.65663 2 3.18874 1.99922 2.80498 2.03057C2.40962 2.06286 2.01624 2.13416 1.63781 2.32698L2.54579 4.10899C2.59517 4.08383 2.69595 4.04613 2.9678 4.02393C3.25126 4.00078 3.62365 4 4.2002 4V2ZM2 6.19995C2 5.6234 2.00078 5.25114 2.02393 4.96783C2.04612 4.6962 2.0838 4.59549 2.10899 4.54603L0.32698 3.63805C0.134191 4.01642 0.0628722 4.40961 0.0305698 4.80495C-0.000777841 5.18861 0 5.6564 0 6.19995H2ZM1.63781 2.32698C1.07306 2.61473 0.614469 3.07382 0.32698 3.63805L2.10899 4.54603C2.205 4.35761 2.35788 4.20474 2.54579 4.10899L1.63781 2.32698ZM8.75 16C9.44036 16 10 15.4404 10 14.75H8C8 14.3358 8.33579 14 8.75 14V16ZM10 14.75V11.25H8V14.75H10ZM10 11.25C10 10.5596 9.44036 10 8.75 10V12C8.33579 12 8 11.6642 8 11.25H10ZM8.75 10H5.25V12H8.75V10ZM5.25 10C4.55964 10 4 10.5596 4 11.25H6C6 11.6642 5.66421 12 5.25 12V10ZM4 11.25V14.75H6V11.25H4ZM4 14.75C4 15.4404 4.55964 16 5.25 16V14C5.66421 14 6 14.3358 6 14.75H4ZM5.25 16H8.75V14H5.25V16ZM12 1V3H14V1H12ZM4 1V3H6V1H4Z" fill="#491475"/>
</svg>
