<svg width="24" height="24" viewBox="0 0 24 24" fill="none" xmlns="http://www.w3.org/2000/svg">
<g clip-path="url(#clip0_1009_8837)">
<path d="M12 18.6667C16.595 18.6667 20.3333 14.9283 20.3333 10.3333C20.3333 5.73833 16.595 2 12 2C7.405 2 3.66667 5.73833 3.66667 10.3333C3.66667 14.9283 7.405 18.6667 12 18.6667ZM12 3.66667C15.6758 3.66667 18.6667 6.6575 18.6667 10.3333C18.6667 14.0092 15.6758 17 12 17C8.32417 17 5.33333 14.0092 5.33333 10.3333C5.33333 6.6575 8.32417 3.66667 12 3.66667ZM22 19.0833C22 20.6917 20.6917 22 19.0833 22H4.91667C3.30833 22 2 20.6917 2 19.0833C2 18.1717 2.435 17.3008 3.16333 16.7525C3.53167 16.4758 4.05417 16.5508 4.33 16.9167C4.60667 17.2842 4.53333 17.8067 4.16583 18.0833C3.84833 18.3217 3.66667 18.6867 3.66667 19.0825C3.66667 19.7717 4.2275 20.3325 4.91667 20.3325H19.0833C19.7725 20.3325 20.3333 19.7717 20.3333 19.0825C20.3333 18.6858 20.1508 18.3217 19.8333 18.0825C19.4658 17.805 19.3925 17.2825 19.67 16.915C19.9458 16.5492 20.4692 16.4742 20.8367 16.7517C21.5758 17.31 22 18.1592 22 19.0833V19.0833ZM13.6667 12C13.6667 11.6842 13.4408 11.4183 13.13 11.3658L10.5958 10.9442C9.4775 10.7575 8.66667 9.79917 8.66667 8.66667C8.66667 7.28833 9.78833 6.16667 11.1667 6.16667V5.33333C11.1667 4.8725 11.54 4.5 12 4.5C12.46 4.5 12.8333 4.8725 12.8333 5.33333V6.16667H13.0567C13.9458 6.16667 14.7758 6.645 15.2217 7.41583C15.4517 7.815 15.3158 8.32417 14.9175 8.55417C14.52 8.78583 14.01 8.64833 13.7792 8.25083C13.63 7.9925 13.3533 7.83333 13.0567 7.83333H11.1667C10.7075 7.83333 10.3333 8.20667 10.3333 8.66667C10.3333 8.9825 10.5592 9.24833 10.87 9.30083L13.4042 9.7225C14.5225 9.90917 15.3333 10.8675 15.3333 12C15.3333 13.3783 14.2117 14.5 12.8333 14.5V15.3333C12.8333 15.7942 12.46 16.1667 12 16.1667C11.54 16.1667 11.1667 15.7942 11.1667 15.3333V14.5H10.9433C10.0542 14.5 9.22417 14.0217 8.77833 13.2508C8.54833 12.8517 8.68417 12.3425 9.0825 12.1125C9.47917 11.8808 9.99 12.0183 10.2208 12.4158C10.37 12.6742 10.6467 12.8333 10.9433 12.8333H12.8333C13.2925 12.8333 13.6667 12.46 13.6667 12Z" fill="#491475"/>
</g>
<defs>
<clipPath id="clip0_1009_8837">
<rect width="20" height="20" fill="white" transform="translate(2 2)"/>
</clipPath>
</defs>
</svg>
