<svg width="24" height="24" viewBox="0 0 24 24" fill="none" xmlns="http://www.w3.org/2000/svg">
<g clip-path="url(#clip0_1009_8842)">
<path d="M17.55 19.4167C17.2083 19.1083 16.675 19.1417 16.375 19.4917C15.9 20.0333 15.2167 20.3417 14.5 20.3417H6.16667C4.79167 20.3417 3.66667 19.2167 3.66667 17.8417V6.16667C3.66667 4.79167 4.79167 3.66667 6.16667 3.66667H9.925C10.0583 3.66667 10.2 3.66667 10.3333 3.68333V7.83333C10.3333 9.20833 11.4583 10.3333 12.8333 10.3333H17.675C17.9333 10.3333 18.175 10.2167 18.3333 10.0083C18.4917 9.8 18.5417 9.54167 18.4833 9.29167C18.225 8.275 17.7 7.35 16.9583 6.60833L14.0583 3.70833C12.9583 2.60833 11.4917 2 9.93333 2H6.16667C3.86667 2 2 3.86667 2 6.16667V17.8333C2 20.1333 3.86667 22 6.16667 22H14.5C15.6917 22 16.8333 21.4833 17.625 20.5917C17.9333 20.25 17.9 19.7167 17.55 19.4167ZM12 4.21667C12.3167 4.4 12.6083 4.625 12.875 4.89167L15.775 7.79167C16.0333 8.05 16.2583 8.35 16.4417 8.66667H12.825C12.3667 8.66667 11.9917 8.29167 11.9917 7.83333V4.21667H12ZM21.275 17.075L19.9333 18.4167C19.7667 18.5833 19.5583 18.6583 19.3417 18.6583C19.125 18.6583 18.9167 18.575 18.75 18.4167C18.425 18.0917 18.425 17.5667 18.75 17.2417L19.825 16.1667H13.6583C13.2 16.1667 12.825 15.7917 12.825 15.3333C12.825 14.875 13.2 14.5 13.6583 14.5H19.825L18.75 13.425C18.425 13.1 18.425 12.575 18.75 12.25C19.075 11.925 19.6 11.925 19.925 12.25L21.2667 13.5917C22.225 14.55 22.225 16.1167 21.2667 17.0833L21.275 17.075Z" fill="#491475"/>
</g>
<defs>
<clipPath id="clip0_1009_8842">
<rect width="20" height="20" fill="white" transform="translate(2 2)"/>
</clipPath>
</defs>
</svg>
