<svg width="18" height="19" viewBox="0 0 18 19" fill="none" xmlns="http://www.w3.org/2000/svg">
<path d="M2.09277 7.04444L1.43427 6.29186L2.09277 7.04444ZM6.89278 2.84444L6.23427 2.09186L6.23427 2.09186L6.89278 2.84444ZM11.1074 2.84444L10.4489 3.59701V3.59701L11.1074 2.84444ZM15.9074 7.04444L15.2489 7.79701L15.9074 7.04444ZM8.43262 1.74031L8.7162 2.69926L8.43262 1.74031ZM9.56738 1.74031L9.2838 2.69926L9.56738 1.74031ZM1.06497 8.40254L2.03249 8.65536L1.06497 8.40254ZM1.34521 7.78481L0.517839 7.22317L0.517839 7.22317L1.34521 7.78481ZM1.15224 16.7659L0.228361 17.1486H0.228361L1.15224 16.7659ZM6.84766 16.7659L5.92378 16.3832L6.84766 16.7659ZM5.76537 17.8483L6.14805 18.7722L5.76537 17.8483ZM11.1522 16.7659L10.2284 17.1486V17.1486L11.1522 16.7659ZM16.8477 16.7659L15.9238 16.3832L16.8477 16.7659ZM15.7654 17.8483L16.1481 18.7722L15.7654 17.8483ZM16.9351 8.40254L15.9675 8.65536L16.9351 8.40254ZM16.6548 7.78481L17.4821 7.22317V7.22316L16.6548 7.78481ZM16 9.45271V15.0007H18V9.45271H16ZM12 15.0006V14.0006H10V15.0006H12ZM6 14.0006V15.0006H8V14.0006H6ZM2 15.0007V9.45271H0V15.0007H2ZM2.75128 7.79701L7.55128 3.59701L6.23427 2.09186L1.43427 6.29186L2.75128 7.79701ZM10.4489 3.59701L15.2489 7.79701L16.5659 6.29186L11.7659 2.09186L10.4489 3.59701ZM7.55128 3.59701C7.93616 3.26024 8.18282 3.04529 8.38406 2.89478C8.57527 2.75178 8.66501 2.7144 8.7162 2.69926L8.14903 0.781363C7.7801 0.890466 7.47323 1.07851 7.1862 1.29318C6.9092 1.50035 6.596 1.77535 6.23427 2.09186L7.55128 3.59701ZM11.7659 2.09186C11.4041 1.7753 11.0909 1.50031 10.8138 1.29312C10.5267 1.07845 10.2198 0.890449 9.85097 0.781363L9.2838 2.69926C9.33505 2.71441 9.42487 2.75183 9.61612 2.89484C9.81737 3.04533 10.0641 3.26029 10.4489 3.59701L11.7659 2.09186ZM8.7162 2.69926C8.9013 2.64452 9.0987 2.64452 9.2838 2.69926L9.85097 0.781363C9.29568 0.61715 8.70432 0.61715 8.14903 0.781363L8.7162 2.69926ZM2 9.45271C2 8.86601 2.00759 8.75063 2.03249 8.65536L0.0974571 8.14972C-0.00759125 8.55174 0 8.97073 0 9.45271H2ZM1.43427 6.29186C1.07166 6.60914 0.751233 6.87935 0.517839 7.22317L2.17259 8.34646C2.22787 8.26502 2.30962 8.18347 2.75128 7.79701L1.43427 6.29186ZM2.03249 8.65536C2.06132 8.54502 2.10873 8.44054 2.17259 8.34646L0.517839 7.22317C0.325879 7.50595 0.18378 7.81937 0.0974571 8.14972L2.03249 8.65536ZM4.00023 17.0006C3.52061 17.0006 3.21097 17 2.97399 16.9839C2.74599 16.9683 2.65916 16.9417 2.61755 16.9245L1.85218 18.7722C2.17811 18.9072 2.50802 18.9567 2.83785 18.9792C3.15869 19.0011 3.54797 19.0006 4.00023 19.0006V17.0006ZM0 15.0007C0 15.4529 -0.000541687 15.8422 0.02135 16.163C0.0438555 16.4928 0.0933628 16.8227 0.228361 17.1486L2.07612 16.3832C2.05888 16.3416 2.03226 16.2548 2.01671 16.0268C2.00054 15.7899 2 15.4803 2 15.0007H0ZM2.61755 16.9245C2.37233 16.8229 2.17754 16.6281 2.07612 16.3832L0.228361 17.1486C0.532922 17.8839 1.11729 18.4678 1.85218 18.7722L2.61755 16.9245ZM6 15.0006C6 15.4801 5.99943 15.7898 5.98324 16.0267C5.96767 16.2547 5.94104 16.3416 5.92378 16.3832L7.77154 17.1486C7.90651 16.8228 7.95606 16.4929 7.97859 16.163C8.00052 15.8422 8 15.4529 8 15.0006H6ZM4.00023 19.0006C4.45249 19.0006 4.84171 19.0011 5.16251 18.9792C5.49233 18.9567 5.82216 18.9072 6.14805 18.7722L5.38268 16.9245C5.34104 16.9417 5.25424 16.9683 5.02634 16.9839C4.78943 17 4.47986 17.0006 4.00023 17.0006V19.0006ZM5.92378 16.3832C5.82224 16.6284 5.6276 16.823 5.38268 16.9245L6.14805 18.7722C6.88325 18.4677 7.4671 17.8836 7.77154 17.1486L5.92378 16.3832ZM9 11.0006C7.34315 11.0006 6 12.3437 6 14.0006H8C8 13.4483 8.44772 13.0006 9 13.0006V11.0006ZM12 14.0006C12 12.3437 10.6569 11.0006 9 11.0006V13.0006C9.55228 13.0006 10 13.4483 10 14.0006H12ZM14.0002 17.0006C13.5206 17.0006 13.211 17 12.974 16.9839C12.746 16.9683 12.6592 16.9417 12.6175 16.9245L11.8522 18.7722C12.1781 18.9072 12.508 18.9567 12.8378 18.9792C13.1587 19.0011 13.548 19.0006 14.0002 19.0006V17.0006ZM10 15.0006C10 15.4528 9.99946 15.8421 10.0213 16.1629C10.0439 16.4928 10.0934 16.8227 10.2284 17.1486L12.0761 16.3832C12.0589 16.3416 12.0323 16.2548 12.0167 16.0268C12.0005 15.7898 12 15.4802 12 15.0006H10ZM12.6175 16.9245C12.3723 16.8229 12.1775 16.6281 12.0761 16.3832L10.2284 17.1486C10.5329 17.8839 11.1173 18.4678 11.8522 18.7722L12.6175 16.9245ZM16 15.0007C16 15.4802 15.9994 15.7898 15.9832 16.0268C15.9677 16.2547 15.941 16.3416 15.9238 16.3832L17.7715 17.1486C17.9065 16.8228 17.9561 16.4929 17.9786 16.1631C18.0005 15.8422 18 15.453 18 15.0007H16ZM14.0002 19.0006C14.4525 19.0006 14.8417 19.0011 15.1625 18.9792C15.4923 18.9567 15.8222 18.9072 16.1481 18.7722L15.3827 16.9245C15.341 16.9417 15.2542 16.9683 15.0263 16.9839C14.7894 17 14.4799 17.0006 14.0002 17.0006V19.0006ZM15.9238 16.3832C15.8222 16.6284 15.6276 16.823 15.3827 16.9245L16.1481 18.7722C16.8832 18.4677 17.4671 17.8836 17.7715 17.1486L15.9238 16.3832ZM18 9.45271C18 8.97083 18.0076 8.55176 17.9026 8.14972L15.9675 8.65536C15.9924 8.7506 16 8.86592 16 9.45271H18ZM15.2489 7.79701C15.6902 8.18314 15.772 8.26493 15.8274 8.34646L17.4821 7.22316C17.2488 6.87945 16.9289 6.60946 16.5659 6.29186L15.2489 7.79701ZM17.9026 8.14972C17.8162 7.81924 17.674 7.50583 17.4821 7.22317L15.8274 8.34646C15.8913 8.44065 15.9387 8.54516 15.9675 8.65536L17.9026 8.14972Z" fill="#491475"/>
</svg>
