<svg width="40" height="40" viewBox="0 0 40 40" fill="none" xmlns="http://www.w3.org/2000/svg">
<path d="M38.7846 21.8066V31.495C38.7846 35.5857 35.4475 38.9228 31.3568 38.9228H9.28885C5.19819 38.9228 1.86108 35.5857 1.86108 31.495V22.5602" stroke="#2C0B4A" stroke-width="1.5" stroke-miterlimit="10" stroke-linecap="round" stroke-linejoin="round"/>
<path d="M1.86108 15.6714V9.42776C1.86108 5.33711 5.19819 2 9.28885 2H19.8384" stroke="#2C0B4A" stroke-width="1.5" stroke-miterlimit="10" stroke-linecap="round" stroke-linejoin="round"/>
<path d="M20.8074 20.085L39 2" stroke="#EFA0EB" stroke-width="1.5" stroke-miterlimit="10" stroke-linecap="round" stroke-linejoin="round"/>
<path d="M20.8074 10.0742V20.0855H31.2493" stroke="#EFA0EB" stroke-width="1.5" stroke-miterlimit="10" stroke-linecap="round" stroke-linejoin="round"/>
<path d="M1.75354 20.1926C2.16971 20.1926 2.50708 19.8553 2.50708 19.4391C2.50708 19.0229 2.16971 18.6855 1.75354 18.6855C1.33737 18.6855 1 19.0229 1 19.4391C1 19.8553 1.33737 20.1926 1.75354 20.1926Z" fill="#2C0B4A"/>
</svg>
