<svg width="24" height="24" viewBox="0 0 24 24" fill="none" xmlns="http://www.w3.org/2000/svg">
<path d="M12.4782 14.936C12.5902 14.648 12.5182 14.32 12.2942 14.096L10.6222 12.448L10.6462 12.424C12.0382 10.872 13.0302 9.088 13.6142 7.2H15.1662C15.5982 7.2 15.9582 6.84 15.9582 6.408V6.392C15.9582 5.96 15.5982 5.6 15.1662 5.6H10.3582V4.8C10.3582 4.36 9.9982 4 9.5582 4C9.1182 4 8.7582 4.36 8.7582 4.8V5.6H3.9502C3.5182 5.6 3.1582 5.96 3.1582 6.392C3.1582 6.832 3.5182 7.184 3.9502 7.184H12.0942C11.5582 8.736 10.7102 10.2 9.5582 11.48C8.9102 10.768 8.3662 9.992 7.9102 9.176C7.7822 8.944 7.5502 8.8 7.2862 8.8C6.7342 8.8 6.3822 9.4 6.6542 9.88C7.1582 10.784 7.7742 11.648 8.4942 12.448L4.9982 15.896C4.6782 16.208 4.6782 16.72 4.9982 17.032C5.3102 17.344 5.8142 17.344 6.1342 17.032L9.5582 13.6L11.1742 15.216C11.5822 15.624 12.2782 15.472 12.4782 14.936V14.936ZM16.3582 10.4C15.8782 10.4 15.4462 10.696 15.2782 11.152L12.3422 18.992C12.1502 19.48 12.5182 20 13.0382 20C13.3502 20 13.6302 19.808 13.7422 19.512L14.4542 17.6H18.2542L18.9742 19.512C19.0862 19.8 19.3662 20 19.6782 20C20.1982 20 20.5662 19.48 20.3822 18.992L17.4462 11.152C17.2702 10.696 16.8382 10.4 16.3582 10.4V10.4ZM15.0622 16L16.3582 12.536L17.6542 16H15.0622Z" fill="#491475"/>
</svg>
