<svg width="38" height="34" viewBox="0 0 38 34" fill="none" xmlns="http://www.w3.org/2000/svg">
<path fill-rule="evenodd" clip-rule="evenodd" d="M18.8355 4.03345C24.0028 -3.2399 37.7734 -0.585 37.7734 11.2578C37.7734 13.3859 37.0141 15.2752 36.2954 16.5956C35.9323 17.2627 35.5691 17.8035 35.2947 18.1802C35.1572 18.3689 35.0411 18.5176 34.9573 18.6216C34.9153 18.6736 34.8813 18.7146 34.8567 18.7438C34.8444 18.7584 34.8344 18.7701 34.8269 18.7789L34.8175 18.7897L34.813 18.7949L34.8125 18.7955C34.8122 18.7958 34.812 18.796 33.958 18.0472L34.812 18.796C34.5945 19.044 34.2801 19.1852 33.9503 19.1829L27.449 19.1385C27.039 19.1357 26.6623 18.9121 26.4635 18.5535L25.487 16.7924L22.8274 21.7509C22.6173 22.1428 22.1977 22.376 21.754 22.3476C21.3102 22.3192 20.9238 22.0344 20.7653 21.619L18.5897 15.9163L17.1227 18.7494C16.926 19.1293 16.5326 19.3664 16.105 19.363L10.5502 19.3185C9.92298 19.3135 9.41855 18.8009 9.42357 18.1737C9.42859 17.5464 9.94115 17.042 10.5684 17.047L15.426 17.0859L17.7384 12.6201C17.9442 12.2226 18.3644 11.983 18.8113 12.0084C19.2582 12.0337 19.6486 12.3192 19.8082 12.7375L22.0012 18.4855L24.4695 13.8834C24.666 13.5171 25.0468 13.2874 25.4625 13.2845C25.8781 13.2816 26.2622 13.5059 26.4637 13.8695L28.1283 16.8715L33.4109 16.9076C33.4264 16.8867 33.4423 16.865 33.4587 16.8426C33.6867 16.5296 33.9935 16.0731 34.3002 15.5096C34.9213 14.3686 35.5018 12.8632 35.5018 11.2578C35.5018 0.799752 22.674 -0.374368 19.8145 6.9801C19.6382 7.43339 19.1929 7.72417 18.707 7.70325C18.2211 7.68233 17.8025 7.35436 17.6658 6.88759C16.6584 3.44605 12.967 1.78762 9.25756 2.43106C5.65652 3.05571 2.33654 5.84758 2.33654 11.0933C2.33654 13.3299 3.35165 15.6927 5.02484 18.0453C6.68928 20.3856 8.93199 22.6132 11.2125 24.5556C13.4877 26.4934 15.7683 28.1203 17.483 29.2639C18.3393 29.8351 19.0518 30.2839 19.5486 30.589C19.5904 30.6147 19.6307 30.6394 19.6694 30.663C19.9772 30.426 20.3229 30.1604 20.6978 29.8723C22.821 28.2412 25.8812 25.8902 28.2907 23.9291C28.7772 23.5331 29.4925 23.6064 29.8885 24.0929C30.2845 24.5794 30.2112 25.2948 29.7247 25.6908C27.2869 27.6751 24.1813 30.0609 22.0586 31.6916C21.4163 32.185 20.864 32.6093 20.4474 32.9324C20.0834 33.2148 19.5849 33.2493 19.1854 33.0198L19.7513 32.0349C19.1854 33.0198 19.1852 33.0196 19.1848 33.0194L19.1838 33.0188L19.1804 33.0169L19.1687 33.0101L19.1256 32.9851C19.0883 32.9633 19.0339 32.9314 18.9636 32.8897C18.823 32.8063 18.6187 32.6837 18.3598 32.5247C17.8421 32.2068 17.1054 31.7426 16.2225 31.1538C14.459 29.9776 12.102 28.2971 9.73954 26.2849C7.38239 24.2773 4.98747 21.9122 3.17368 19.3619C1.36864 16.8239 0.0649414 13.9982 0.0649414 11.0933C0.0649414 4.62254 4.3027 0.985025 8.86932 0.192891C12.5789 -0.450579 16.7232 0.782702 18.8355 4.03345Z" fill="#491475"/>
</svg>
