<svg width="20" height="20" viewBox="0 0 20 20" fill="none" xmlns="http://www.w3.org/2000/svg">
<path d="M7.50295 2.25722L8.43143 1.88583L8.43143 1.88583L7.50295 2.25722ZM8.55719 4.89286L7.62872 5.26425L7.62872 5.26425L8.55719 4.89286ZM8.23682 6.91597L7.4686 6.27579L7.46857 6.27582L8.23682 6.91597ZM7.66943 7.59688L8.43765 8.23707L8.43768 8.23704L7.66943 7.59688ZM7.79136 10.2915L7.08426 10.9986L7.08428 10.9986L7.79136 10.2915ZM9.70854 12.2085L10.4157 11.5014L10.4156 11.5014L9.70854 12.2085ZM12.4031 12.3307L11.763 11.5624L11.7629 11.5625L12.4031 12.3307ZM13.0842 11.7633L13.7243 12.5316L13.7244 12.5315L13.0842 11.7633ZM15.1071 11.4429L15.4785 10.5144L15.4785 10.5144L15.1071 11.4429ZM17.7426 12.4971L17.3712 13.4256L17.3712 13.4256L17.7426 12.4971ZM18.9999 14.354H17.9999V14.3541L18.9999 14.354ZM19 17.1053H20V17.1053L19 17.1053ZM5.646 2C6.0549 2 6.42261 2.24895 6.57447 2.62861L8.43143 1.88583C7.97584 0.746853 6.87271 0 5.646 0V2ZM6.57447 2.62861L7.62872 5.26425L9.48567 4.52148L8.43143 1.88583L6.57447 2.62861ZM7.62872 5.26425C7.76518 5.60541 7.70365 5.99372 7.4686 6.27579L9.00504 7.55616C9.71055 6.70954 9.89486 5.54445 9.48567 4.52147L7.62872 5.26425ZM7.46857 6.27582L6.90119 6.95673L8.43768 8.23704L9.00506 7.55613L7.46857 6.27582ZM6.90121 6.9567C5.90808 8.14846 5.98691 9.90126 7.08426 10.9986L8.49847 9.5844C8.13295 9.21888 8.10637 8.63461 8.43765 8.23707L6.90121 6.9567ZM7.08428 10.9986L9.00146 12.9157L10.4156 11.5014L8.49844 9.58437L7.08428 10.9986ZM9.00144 12.9157C10.0986 14.0128 11.8513 14.0922 13.0433 13.0989L11.7629 11.5625C11.3655 11.8936 10.7813 11.8671 10.4157 11.5014L9.00144 12.9157ZM13.0431 13.099L13.7243 12.5316L12.4441 10.995L11.763 11.5624L13.0431 13.099ZM13.7244 12.5315C14.0065 12.2964 14.3947 12.2349 14.7357 12.3714L15.4785 10.5144C14.4555 10.1052 13.2906 10.2896 12.444 10.9951L13.7244 12.5315ZM14.7357 12.3713L17.3712 13.4256L18.114 11.5687L15.4785 10.5144L14.7357 12.3713ZM17.3712 13.4256C17.751 13.5775 17.9999 13.9452 17.9999 14.354H19.9999C19.9999 13.1272 19.2529 12.0242 18.114 11.5687L17.3712 13.4256ZM17.9999 14.3541L18 17.1054L20 17.1053L19.9999 14.354L17.9999 14.3541ZM18 17.1053C18 17.5995 17.5995 18 17.1055 18V20C18.7043 20 20 18.704 20 17.1053H18ZM17.1055 18C8.76304 18 2 11.2372 2 2.89478H0C0 12.3418 7.65852 20 17.1055 20V18ZM2 2.89478C2 2.4006 2.40061 2 2.89474 2V0C1.29599 0 0 1.29608 0 2.89478H2ZM2.89474 2H5.646V0H2.89474V2Z" fill="#491475"/>
</svg>
