<svg width="22" height="22" viewBox="0 0 22 22" fill="none" xmlns="http://www.w3.org/2000/svg">
<path d="M18.984 7.71927L18.4979 8.59315L18.4979 8.59315L18.984 7.71927ZM19.3502 7.923L19.8364 7.04912L19.8364 7.04912L19.3502 7.923ZM20.9947 10.7122L21.9947 10.7099V10.7099L20.9947 10.7122ZM20.996 11.2743L19.996 11.2766V11.2766L20.996 11.2743ZM19.347 14.0805L19.8317 14.9551V14.9551L19.347 14.0805ZM18.9855 14.2808L18.5008 13.4062V13.4062L18.9855 14.2808ZM17.8346 16.2725L18.8344 16.2557L17.8346 16.2725ZM17.8417 16.6972L16.8419 16.714L17.8417 16.6972ZM16.2485 19.5186L16.7505 20.3835H16.7505L16.2485 19.5186ZM15.7609 19.8016L15.2589 18.9367H15.2589L15.7609 19.8016ZM12.5076 19.7775L11.9928 20.6349L11.9928 20.6349L12.5076 19.7775ZM12.1515 19.5638L12.6662 18.7064L12.6662 18.7064L12.1515 19.5638ZM9.84955 19.5624L9.33582 18.7045L9.84955 19.5624ZM9.49572 19.7743L10.0094 20.6322L9.49572 19.7743ZM6.25408 19.8015L5.75479 20.6679L6.25408 19.8015ZM5.76037 19.517L6.25965 18.6506L5.76037 19.517ZM4.15881 16.6904L5.15866 16.7073L4.15881 16.6904ZM4.16569 16.2829L3.16583 16.266L4.16569 16.2829ZM3.00836 14.276L2.52221 15.1499H2.52221L3.00836 14.276ZM2.65002 14.0767L3.13616 13.2028H3.13616L2.65002 14.0767ZM1.00579 11.2876L2.00578 11.2854L1.00579 11.2876ZM1.00451 10.7255L0.00451273 10.7278L1.00451 10.7255ZM2.65344 7.91927L2.16872 7.0446L2.65344 7.91927ZM3.015 7.7189L3.49972 8.59358L3.015 7.7189ZM4.16546 5.7273L3.16561 5.74413L4.16546 5.7273ZM4.15832 5.30264L5.15818 5.28582V5.28582L4.15832 5.30264ZM5.75158 2.48119L5.24961 1.6163V1.6163L5.75158 2.48119ZM6.23924 2.19815L6.74121 3.06304L6.23924 2.19815ZM9.49279 2.2222L10.0075 1.36484V1.36484L9.49279 2.2222ZM9.84887 2.43597L9.33415 3.29333L9.84887 2.43597ZM12.1505 2.43736L11.6368 1.5794V1.5794L12.1505 2.43736ZM12.5043 2.2255L13.0181 3.08345V3.08345L12.5043 2.2255ZM15.7457 2.19827L15.2464 3.06471L15.7457 2.19827ZM16.2395 2.48283L16.7388 1.6164L16.7388 1.6164L16.2395 2.48283ZM17.8416 5.30924L16.8417 5.29241V5.29242L17.8416 5.30924ZM17.8346 5.72624L18.8344 5.74306V5.74306L17.8346 5.72624ZM17.8333 5.85638L18.8332 5.8411L17.8333 5.85638ZM18.1341 6.88317L19 6.38297L18.1341 6.88317ZM18.0699 6.77005L17.1884 7.24219L18.0699 6.77005ZM17.3461 3.23709L18.0923 2.57129V2.57129L17.3461 3.23709ZM17.7628 3.97269L18.7174 3.67466L17.7628 3.97269ZM13.6982 1.62772L13.9172 2.60343L13.6982 1.62772ZM14.5416 1.62076L14.3389 2.60001V2.60001L14.5416 1.62076ZM11.1305 2.75418L11.0985 1.7547L11.1305 2.75418ZM12.0382 2.50316L12.5241 3.37715L12.0382 2.50316ZM9.96093 2.50209L9.47404 3.37555L9.96093 2.50209ZM10.8707 2.75418L10.9029 1.7547L10.8707 2.75418ZM7.44707 1.61453L7.65153 2.59341L7.44707 1.61453ZM8.29406 1.62076L8.07514 2.5965L8.29406 1.62076ZM4.23689 3.97025L5.19172 4.26739L4.23689 3.97025ZM4.65148 3.23616L3.90391 2.57198L4.65148 3.23616ZM3.86633 6.88232L4.73224 7.38251L3.86633 6.88232ZM3.92953 6.77091L3.04823 6.29835L3.92953 6.77091ZM4.1668 5.85542L5.16669 5.87022L4.1668 5.85542ZM3.12638 7.65592L2.61423 6.79702L3.12638 7.65592ZM3.80139 6.99271L2.95173 6.46537H2.95173L3.80139 6.99271ZM1.10293 9.38712L2.05285 9.69963L1.10293 9.38712ZM1.53234 8.65669L2.26767 9.33441H2.26767L1.53234 8.65669ZM1.53674 13.3426L0.801559 14.0204H0.801559L1.53674 13.3426ZM1.10894 12.617L0.159872 12.9321L1.10894 12.617ZM3.86808 15.1256L4.73596 14.6289H4.73596L3.86808 15.1256ZM3.79797 15.0055L2.94765 15.5318L3.79797 15.0055ZM3.12938 14.3447L2.61352 15.2013L3.12938 14.3447ZM4.16681 16.1454L3.16696 16.1625L4.16681 16.1454ZM3.93553 15.2454L4.81976 14.7784L3.93553 15.2454ZM4.65441 18.7626L3.90827 19.4284L4.65441 18.7626ZM4.23738 18.027L5.19195 17.729L4.23738 18.027ZM8.30187 20.372L8.52091 21.3477L8.30187 20.372ZM7.45853 20.379L7.25586 21.3583L7.45853 20.379ZM10.8693 19.2456L10.8372 18.2461L10.8372 18.2461L10.8693 19.2456ZM9.96173 19.4966L10.4477 20.3706L9.96173 19.4966ZM12.0392 19.4976L12.5261 18.6241L12.0392 19.4976ZM11.1298 19.2456L11.162 18.2461H11.162L11.1298 19.2456ZM14.5528 20.3852L14.7573 21.3641L14.5528 20.3852ZM13.7064 20.3789L13.9253 19.4031L13.7064 20.3789ZM17.7633 18.0295L18.7181 18.3267L17.7633 18.0295ZM17.3487 18.7636L18.0963 19.4278L17.3487 18.7636ZM18.1336 15.1175L17.2677 14.6173L18.1336 15.1175ZM18.0704 15.2289L17.1891 14.7563L18.0704 15.2289ZM17.8333 16.1444L16.8334 16.1296L17.8333 16.1444ZM18.8737 14.3439L19.3858 15.2028L18.8737 14.3439ZM18.1989 15.007L19.0485 15.5343L18.1989 15.007ZM20.8971 12.6127L21.847 12.9252L20.8971 12.6127ZM20.468 13.3431L19.7326 12.6653L20.468 13.3431ZM20.4633 8.65716L21.1985 7.97928V7.97928L20.4633 8.65716ZM20.8912 9.38272L19.9422 9.69779L20.8912 9.38272ZM18.8712 7.65531L19.3851 6.79744L18.8712 7.65531ZM18.2002 6.99489L17.3507 7.52255L18.2002 6.99489ZM11.0001 13.9999C9.34326 13.9999 8.00012 12.6568 8.00012 10.9999H6.00012C6.00012 13.7613 8.23869 15.9999 11.0001 15.9999V13.9999ZM8.00012 10.9999C8.00012 9.34306 9.34326 7.99991 11.0001 7.99991V5.99991C8.23869 5.99991 6.00012 8.23849 6.00012 10.9999H8.00012ZM11.0001 7.99991C12.657 7.99991 14.0001 9.34306 14.0001 10.9999H16.0001C16.0001 8.23849 13.7615 5.99991 11.0001 5.99991V7.99991ZM14.0001 10.9999C14.0001 12.6568 12.657 13.9999 11.0001 13.9999V15.9999C13.7615 15.9999 16.0001 13.7613 16.0001 10.9999H14.0001ZM18.4979 8.59315L18.8641 8.79688L19.8364 7.04912L19.4701 6.84539L18.4979 8.59315ZM19.9947 10.7145L19.996 11.2766L21.996 11.272L21.9947 10.7099L19.9947 10.7145ZM18.8623 13.2058L18.5008 13.4062L19.4702 15.1555L19.8317 14.9551L18.8623 13.2058ZM16.8347 16.2893L16.8419 16.714L18.8416 16.6803L18.8344 16.2557L16.8347 16.2893ZM15.7465 18.6537L15.2589 18.9367L16.2628 20.6665L16.7505 20.3835L15.7465 18.6537ZM13.0223 18.9202L12.6662 18.7064L11.6368 20.4211L11.9928 20.6349L13.0223 18.9202ZM9.33582 18.7045L8.982 18.9163L10.0094 20.6322L10.3633 20.4204L9.33582 18.7045ZM6.75336 18.9351L6.25965 18.6506L5.26108 20.3834L5.75479 20.6679L6.75336 18.9351ZM5.15866 16.7073L5.16554 16.2997L3.16583 16.266L3.15895 16.6735L5.15866 16.7073ZM3.4945 13.4022L3.13616 13.2028L2.16387 14.9506L2.52221 15.1499L3.4945 13.4022ZM2.00578 11.2854L2.00451 10.7232L0.00451273 10.7278L0.00578952 11.2899L2.00578 11.2854ZM3.13815 8.79394L3.49972 8.59358L2.53029 6.84423L2.16872 7.0446L3.13815 8.79394ZM5.16532 5.71048L5.15818 5.28582L3.15846 5.31947L3.16561 5.74413L5.16532 5.71048ZM6.25355 3.34607L6.74121 3.06304L5.73727 1.33327L5.24961 1.6163L6.25355 3.34607ZM8.97808 3.07956L9.33415 3.29333L10.3636 1.57861L10.0075 1.36484L8.97808 3.07956ZM12.6642 3.29531L13.0181 3.08345L11.9906 1.36754L11.6368 1.5794L12.6642 3.29531ZM15.2464 3.06471L15.7402 3.34927L16.7388 1.6164L16.245 1.33184L15.2464 3.06471ZM16.8417 5.29242L16.8347 5.70942L18.8344 5.74306L18.8415 5.32606L16.8417 5.29242ZM16.8347 5.70941C16.8338 5.76495 16.8326 5.81913 16.8334 5.87167L18.8332 5.8411C18.833 5.82948 18.8332 5.81785 18.8344 5.74306L16.8347 5.70941ZM19 6.38297C18.9643 6.32115 18.9573 6.3088 18.9515 6.29792L17.1884 7.24219C17.2129 7.28788 17.2387 7.33226 17.2682 7.38336L19 6.38297ZM16.8334 5.87167C16.8407 6.35016 16.9623 6.82008 17.1884 7.24219L18.9515 6.29792C18.8762 6.15738 18.8356 6.00079 18.8332 5.8411L16.8334 5.87167ZM15.7402 3.34927C16.3949 3.72651 16.5183 3.81136 16.6 3.90289L18.0923 2.57129C17.7449 2.18202 17.2732 1.92432 16.7388 1.6164L15.7402 3.34927ZM18.8415 5.32606C18.8519 4.70872 18.8728 4.17251 18.7174 3.67466L16.8083 4.27072C16.8449 4.38798 16.8544 4.53769 16.8417 5.29241L18.8415 5.32606ZM16.6 3.90289C16.6946 4.00891 16.7657 4.13427 16.8083 4.27072L18.7174 3.67466C18.5901 3.26694 18.3772 2.89062 18.0923 2.57129L16.6 3.90289ZM13.0181 3.08345C13.6646 2.69633 13.7979 2.63023 13.9172 2.60343L13.4792 0.652002C12.9713 0.766005 12.5182 1.05165 11.9906 1.36754L13.0181 3.08345ZM16.245 1.33184C15.7115 1.02438 15.2538 0.746956 14.7443 0.641513L14.3389 2.60001C14.459 2.62485 14.5943 2.68891 15.2464 3.06471L16.245 1.33184ZM13.9172 2.60343C14.0557 2.57235 14.1995 2.57114 14.3389 2.60001L14.7443 0.641513C14.3269 0.555119 13.8956 0.558523 13.4792 0.652002L13.9172 2.60343ZM11.0006 3.75521C11.0597 3.75521 11.1108 3.75533 11.1626 3.75367L11.0985 1.7547C11.0861 1.75509 11.072 1.75521 11.0006 1.75521V3.75521ZM11.6368 1.5794C11.58 1.61339 11.5645 1.62237 11.5523 1.62916L12.5241 3.37715C12.568 3.35277 12.6091 3.32833 12.6642 3.29531L11.6368 1.5794ZM11.1626 3.75367C11.6401 3.73834 12.1068 3.60917 12.5241 3.37715L11.5523 1.62916C11.413 1.70658 11.2574 1.74959 11.0985 1.7547L11.1626 3.75367ZM9.33415 3.29333C9.38402 3.32327 9.42847 3.35015 9.47404 3.37555L10.4478 1.62862C10.4372 1.62271 10.4258 1.61599 10.3636 1.57861L9.33415 3.29333ZM11.0006 1.75521C10.929 1.75521 10.9152 1.7551 10.9029 1.7547L10.8386 3.75367C10.8905 3.75534 10.9415 3.75521 11.0006 3.75521V1.75521ZM9.47404 3.37555C9.89216 3.60862 10.3602 3.73828 10.8386 3.75367L10.9029 1.7547C10.7434 1.74957 10.5871 1.70627 10.4478 1.62862L9.47404 3.37555ZM6.74121 3.06304C7.39543 2.68333 7.53113 2.61856 7.65153 2.59341L7.24261 0.635659C6.7312 0.742478 6.27211 1.02285 5.73727 1.33327L6.74121 3.06304ZM10.0075 1.36484C9.47768 1.04676 9.02286 0.759415 8.51298 0.645018L8.07514 2.5965C8.19506 2.62341 8.32919 2.69 8.97808 3.07956L10.0075 1.36484ZM7.65153 2.59341C7.79136 2.5642 7.93595 2.56527 8.07514 2.5965L8.51298 0.645018C8.09503 0.551243 7.66171 0.548122 7.24261 0.635659L7.65153 2.59341ZM5.15818 5.28582C5.14553 4.53439 5.15527 4.38451 5.19172 4.26739L3.28206 3.6731C3.12759 4.16945 3.1481 4.70343 3.15846 5.31947L5.15818 5.28582ZM5.24961 1.6163C4.71717 1.92532 4.24925 2.18328 3.90391 2.57198L5.39905 3.90034C5.48045 3.80873 5.60312 3.72358 6.25355 3.34607L5.24961 1.6163ZM5.19172 4.26739C5.2339 4.13184 5.30458 4.00668 5.39905 3.90034L3.90391 2.57198C3.62086 2.89057 3.40877 3.26593 3.28206 3.6731L5.19172 4.26739ZM4.73224 7.38251C4.76135 7.33212 4.78669 7.28847 4.81083 7.24347L3.04823 6.29835C3.04248 6.30908 3.03562 6.32118 3.00041 6.38213L4.73224 7.38251ZM3.16561 5.74413C3.16687 5.81951 3.16707 5.82939 3.16691 5.84061L5.16669 5.87022C5.16746 5.81818 5.16622 5.76372 5.16532 5.71048L3.16561 5.74413ZM4.81083 7.24347C5.03741 6.8209 5.15958 6.35002 5.16669 5.87022L3.16691 5.84061C3.16454 6.0003 3.12388 6.15727 3.04823 6.29835L4.81083 7.24347ZM3.49972 8.59358C3.55314 8.56397 3.59531 8.54058 3.63853 8.51481L2.61423 6.79702C2.60308 6.80367 2.58944 6.81145 2.53029 6.84423L3.49972 8.59358ZM3.00041 6.38213C2.96542 6.44271 2.95822 6.45492 2.95173 6.46537L4.65104 7.52005C4.67793 7.47673 4.70287 7.43335 4.73224 7.38251L3.00041 6.38213ZM3.63853 8.51481C4.05086 8.26894 4.39803 7.9277 4.65104 7.52005L2.95173 6.46537C2.86729 6.60142 2.75151 6.71516 2.61423 6.79702L3.63853 8.51481ZM2.00451 10.7232C2.00279 9.96601 2.01442 9.81643 2.05285 9.69963L0.153021 9.0746C-0.0103552 9.5712 0.00310826 10.1095 0.00451273 10.7278L2.00451 10.7232ZM2.16872 7.0446C1.6276 7.34447 1.15126 7.59462 0.797017 7.97898L2.26767 9.33441C2.35105 9.24393 2.47614 9.16081 3.13815 8.79394L2.16872 7.0446ZM2.05285 9.69963C2.09734 9.5644 2.17057 9.43975 2.26767 9.33441L0.797017 7.97898C0.506963 8.29369 0.287055 8.6672 0.153021 9.0746L2.05285 9.69963ZM3.13616 13.2028C2.47895 12.8372 2.35479 12.7546 2.27191 12.6647L0.801559 14.0204C1.15383 14.4025 1.62707 14.6519 2.16387 14.9506L3.13616 13.2028ZM0.00578952 11.2899C0.00718373 11.9037 -0.00389481 12.4388 0.159872 12.9321L2.05801 12.3019C2.01952 12.186 2.00749 12.0379 2.00578 11.2854L0.00578952 11.2899ZM2.27191 12.6647C2.1756 12.5602 2.10271 12.4366 2.05801 12.3019L0.159872 12.9321C0.294102 13.3364 0.512892 13.7074 0.801559 14.0204L2.27191 12.6647ZM4.73596 14.6289C4.70455 14.574 4.67746 14.5264 4.64828 14.4793L2.94765 15.5318C2.95461 15.543 2.96223 15.5561 3.0002 15.6224L4.73596 14.6289ZM2.52221 15.1499C2.58973 15.1875 2.60237 15.1946 2.61352 15.2013L3.64524 13.488C3.59757 13.4593 3.54896 13.4325 3.4945 13.4022L2.52221 15.1499ZM4.64828 14.4793C4.39765 14.0743 4.05421 13.7343 3.64524 13.488L2.61352 15.2013C2.74919 15.283 2.8637 15.3962 2.94765 15.5318L4.64828 14.4793ZM5.16554 16.2997C5.16662 16.2362 5.16759 16.1829 5.16667 16.1284L3.16696 16.1625C3.16718 16.1758 3.16709 16.1916 3.16583 16.266L5.16554 16.2997ZM3.0002 15.6224C3.03993 15.6918 3.04561 15.7017 3.05129 15.7125L4.81976 14.7784C4.79375 14.7291 4.76476 14.6792 4.73596 14.6289L3.0002 15.6224ZM5.16667 16.1284C5.15863 15.6573 5.03972 15.1948 4.81976 14.7784L3.05129 15.7125C3.12468 15.8514 3.16428 16.0056 3.16696 16.1625L5.16667 16.1284ZM6.25965 18.6506C5.60602 18.2739 5.48242 18.1886 5.40055 18.0968L3.90827 19.4284C4.25546 19.8175 4.72568 20.0749 5.26108 20.3834L6.25965 18.6506ZM3.15895 16.6735C3.14853 17.2905 3.12735 17.8271 3.28281 18.325L5.19195 17.729C5.15537 17.6119 5.14592 17.4625 5.15866 16.7073L3.15895 16.6735ZM5.40055 18.0968C5.30539 17.9902 5.2343 17.8647 5.19195 17.729L3.28281 18.325C3.41035 18.7336 3.62387 19.1097 3.90827 19.4284L5.40055 18.0968ZM8.982 18.9163C8.33556 19.3034 8.20224 19.3695 8.08283 19.3963L8.52091 21.3477C9.02872 21.2337 9.48178 20.9482 10.0094 20.6322L8.982 18.9163ZM5.75479 20.6679C6.2887 20.9756 6.74649 21.2528 7.25586 21.3583L7.6612 19.3998C7.54109 19.3749 7.40515 19.3107 6.75336 18.9351L5.75479 20.6679ZM8.08283 19.3963C7.9442 19.4274 7.80051 19.4286 7.6612 19.3998L7.25586 21.3583C7.67344 21.4447 8.10466 21.4411 8.52091 21.3477L8.08283 19.3963ZM10.9992 18.2445C10.9401 18.2445 10.889 18.2444 10.8372 18.2461L10.9013 20.2451C10.9137 20.2447 10.9278 20.2445 10.9992 20.2445V18.2445ZM10.3633 20.4204C10.4212 20.3857 10.4359 20.3772 10.4477 20.3706L9.4758 18.6226C9.4315 18.6472 9.38982 18.6721 9.33582 18.7045L10.3633 20.4204ZM10.8372 18.2461C10.3596 18.2614 9.893 18.3907 9.4758 18.6226L10.4477 20.3706C10.587 20.2931 10.7425 20.2502 10.9013 20.2451L10.8372 18.2461ZM12.6662 18.7064C12.6144 18.6753 12.5712 18.6493 12.5261 18.6241L11.5523 20.3711C11.5634 20.3772 11.5764 20.3849 11.6368 20.4211L12.6662 18.7064ZM10.9992 20.2445C11.0708 20.2445 11.0853 20.2447 11.0977 20.2451L11.162 18.2461C11.1101 18.2444 11.0583 18.2445 10.9992 18.2445V20.2445ZM12.5261 18.6241C12.108 18.3911 11.6404 18.2615 11.162 18.2461L11.0977 20.2451C11.2571 20.2502 11.4129 20.2934 11.5523 20.3711L12.5261 18.6241ZM15.2589 18.9367C14.6048 19.3163 14.4688 19.3812 14.3484 19.4064L14.7573 21.3641C15.2687 21.2573 15.7278 20.977 16.2628 20.6665L15.2589 18.9367ZM11.9928 20.6349C12.5229 20.9531 12.9776 21.2402 13.4874 21.3546L13.9253 19.4031C13.8053 19.3762 13.6709 19.3096 13.0223 18.9202L11.9928 20.6349ZM14.3484 19.4064C14.2089 19.4355 14.0648 19.4344 13.9253 19.4031L13.4874 21.3546C13.9051 21.4483 14.3379 21.4517 14.7573 21.3641L14.3484 19.4064ZM16.8419 16.714C16.8545 17.4658 16.8449 17.6153 16.8085 17.7324L18.7181 18.3267C18.8726 17.8302 18.852 17.296 18.8416 16.6803L16.8419 16.714ZM16.7505 20.3835C17.2829 20.0745 17.7509 19.8165 18.0963 19.4278L16.6011 18.0994C16.5197 18.191 16.397 18.2762 15.7465 18.6537L16.7505 20.3835ZM16.8085 17.7324C16.7663 17.8679 16.6956 17.993 16.6011 18.0994L18.0963 19.4278C18.3793 19.1092 18.5914 18.7339 18.7181 18.3267L16.8085 17.7324ZM17.2677 14.6173C17.2386 14.6676 17.2133 14.7113 17.1891 14.7563L18.9517 15.7014C18.9575 15.6907 18.9644 15.6786 18.9995 15.6177L17.2677 14.6173ZM18.8344 16.2557C18.8332 16.1813 18.833 16.1706 18.8332 16.1592L16.8334 16.1296C16.8326 16.1815 16.8338 16.235 16.8347 16.2893L18.8344 16.2557ZM17.1891 14.7563C16.9624 15.1792 16.8405 15.6501 16.8334 16.1296L18.8332 16.1592C18.8356 15.9992 18.8762 15.8422 18.9517 15.7014L17.1891 14.7563ZM18.5008 13.4062C18.4506 13.4339 18.4056 13.4587 18.3615 13.485L19.3858 15.2028C19.3961 15.1967 19.4077 15.1901 19.4702 15.1555L18.5008 13.4062ZM18.9995 15.6177C19.0318 15.5618 19.0411 15.5463 19.0485 15.5343L17.3492 14.4797C17.3233 14.5214 17.2998 14.5617 17.2677 14.6173L18.9995 15.6177ZM18.3615 13.485C17.949 13.731 17.6021 14.0721 17.3492 14.4797L19.0485 15.5343C19.1331 15.3981 19.2487 15.2846 19.3858 15.2028L18.3615 13.485ZM19.996 11.2766C19.9977 12.0325 19.9857 12.1831 19.9472 12.3002L21.847 12.9252C22.0103 12.4289 21.9974 11.8917 21.996 11.272L19.996 11.2766ZM19.8317 14.9551C20.3731 14.6552 20.8491 14.4051 21.2033 14.0208L19.7326 12.6653C19.6492 12.7558 19.5241 12.8391 18.8623 13.2058L19.8317 14.9551ZM19.9472 12.3002C19.9025 12.4359 19.8294 12.5604 19.7326 12.6653L21.2033 14.0208C21.4937 13.7057 21.7131 13.3321 21.847 12.9252L19.9472 12.3002ZM18.8641 8.79688C19.521 9.16233 19.6452 9.24509 19.7281 9.33503L21.1985 7.97928C20.8463 7.59729 20.3735 7.34791 19.8364 7.04912L18.8641 8.79688ZM21.9947 10.7099C21.9933 10.0952 22.004 9.56076 21.8403 9.06766L19.9422 9.69779C19.9807 9.81393 19.993 9.96285 19.9947 10.7145L21.9947 10.7099ZM19.7281 9.33503C19.8246 9.43967 19.8975 9.56338 19.9422 9.69779L21.8403 9.06766C21.706 8.66307 21.487 8.29216 21.1985 7.97928L19.7281 9.33503ZM19.4701 6.84539C19.4088 6.81125 19.3959 6.80391 19.3851 6.79744L18.3573 8.51317C18.4015 8.53961 18.4455 8.56402 18.4979 8.59315L19.4701 6.84539ZM17.2682 7.38336C17.3013 7.44079 17.3247 7.48076 17.3507 7.52255L19.0496 6.46722C19.0418 6.4546 19.032 6.43833 19 6.38297L17.2682 7.38336ZM19.3851 6.79744C19.2487 6.71574 19.1337 6.60258 19.0496 6.46722L17.3507 7.52255C17.6026 7.92801 17.9475 8.2677 18.3573 8.51317L19.3851 6.79744Z" fill="#491475"/>
</svg>
