<svg width="20" height="20" viewBox="0 0 20 20" fill="none" xmlns="http://www.w3.org/2000/svg">
<path d="M10.2282 0.00260416C10.914 0.0182585 11.3835 0.657976 11.2831 1.33653C11.1826 2.01509 10.5489 2.47281 9.86303 2.48532C8.9466 2.50202 8.03735 2.6863 7.1812 3.03268C5.93957 3.53501 4.85473 4.36002 4.03895 5.42233C3.22318 6.48463 2.7061 7.74564 2.54123 9.07485C2.42755 9.99139 2.48417 10.9174 2.70455 11.8071C2.86947 12.4729 2.5908 13.2033 1.96117 13.4755C1.33153 13.7477 0.592306 13.4592 0.400194 12.8007C0.0198832 11.4971 -0.0921659 10.1253 0.076051 8.76908C0.29541 7.00056 0.983387 5.32278 2.06879 3.90937C3.15418 2.49597 4.59757 1.39829 6.24957 0.729931C7.51642 0.217397 8.87064 -0.0283856 10.2282 0.00260416Z" fill="white"/>
<path d="M9.77178 19.9974C9.086 19.9817 8.61646 19.342 8.71695 18.6635C8.81744 17.9849 9.45113 17.5272 10.137 17.5147C11.0534 17.498 11.9627 17.3137 12.8188 16.9673C14.0604 16.465 15.1453 15.64 15.9611 14.5777C16.7768 13.5154 17.2939 12.2544 17.4588 10.9251C17.5725 10.0086 17.5158 9.08261 17.2955 8.19291C17.1305 7.52708 17.4092 6.79672 18.0388 6.52451C18.6685 6.2523 19.4077 6.54083 19.5998 7.19934C19.9801 8.50293 20.0922 9.87471 19.924 11.2309C19.7046 12.9994 19.0166 14.6772 17.9312 16.0906C16.8458 17.504 15.4024 18.6017 13.7504 19.2701C12.4836 19.7826 11.1294 20.0284 9.77178 19.9974Z" fill="white"/>
</svg>
