<svg width="24" height="24" viewBox="0 0 24 24" fill="none" xmlns="http://www.w3.org/2000/svg">
<path d="M12 13C13.6569 13 15 11.6569 15 10C15 8.34315 13.6569 7 12 7C10.3431 7 9 8.34315 9 10C9 11.6569 10.3431 13 12 13Z" stroke="#491475" stroke-width="2" stroke-linecap="round" stroke-linejoin="round"/>
<path d="M6 20C6.62704 18.7785 7.5083 17.769 8.55907 17.0685C9.60984 16.3679 10.7948 16 12 16C13.2052 16 14.3902 16.3679 15.4409 17.0685C16.4917 17.769 17.373 18.7785 18 20" stroke="#491475" stroke-width="2" stroke-linecap="round" stroke-linejoin="round"/>
<path d="M12 22C17.5228 22 22 17.5228 22 12C22 6.47715 17.5228 2 12 2C6.47715 2 2 6.47715 2 12C2 17.5228 6.47715 22 12 22Z" stroke="#491475" stroke-width="2" stroke-linecap="round" stroke-linejoin="round"/>
</svg>
