<svg width="20" height="20" viewBox="0 0 20 20" fill="none" xmlns="http://www.w3.org/2000/svg">
<path d="M11.246 1.45879L10.5974 2.21991L10.5974 2.21991L11.246 1.45879ZM12.467 2.49929L11.8183 3.26041L11.8183 3.26041L12.467 2.49929ZM13.5596 2.95203L13.6392 1.9552L13.6392 1.9552L13.5596 2.95203ZM15.1586 3.07969L15.079 4.07652L15.079 4.07652L15.1586 3.07969ZM16.9208 4.84134L17.9177 4.76238L17.9176 4.76179L16.9208 4.84134ZM17.0474 6.44046L16.0506 6.51941L16.0506 6.52001L17.0474 6.44046ZM17.5005 7.53341L16.7393 8.18203L16.7395 8.18219L17.5005 7.53341ZM18.5414 8.75434L19.3025 8.10572L19.3024 8.10556L18.5414 8.75434ZM18.5409 11.2457L17.7798 10.5971L17.7797 10.5973L18.5409 11.2457ZM17.5009 12.4667L18.262 13.1154L18.2621 13.1152L17.5009 12.4667ZM17.0478 13.5597L18.0446 13.6394L18.0446 13.6392L17.0478 13.5597ZM16.9198 15.1587L15.923 15.079L15.923 15.0792L16.9198 15.1587ZM15.1591 16.9204L15.2386 17.9173L15.2386 17.9173L15.1591 16.9204ZM13.5595 17.0481L13.4799 16.0512L13.4799 16.0512L13.5595 17.0481ZM12.4667 17.5007L11.8181 16.7396L11.818 16.7397L12.4667 17.5007ZM11.246 18.5413L11.8946 19.3024L11.8947 19.3023L11.246 18.5413ZM8.75381 18.5413L8.1051 19.3024L8.10519 19.3024L8.75381 18.5413ZM7.53311 17.5008L8.18182 16.7397L8.18172 16.7397L7.53311 17.5008ZM6.44033 17.048L6.51988 16.0512L6.51983 16.0512L6.44033 17.048ZM4.84072 16.9205L4.76118 17.9173L4.76123 17.9173L4.84072 16.9205ZM3.07998 15.1587L4.07681 15.0792L4.0768 15.079L3.07998 15.1587ZM2.95205 13.5596L1.95522 13.6392L1.95524 13.6394L2.95205 13.5596ZM2.49893 12.4667L1.73768 13.1152L1.73781 13.1153L2.49893 12.4667ZM1.45889 11.2458L2.22014 10.5973L2.22 10.5972L1.45889 11.2458ZM1.4587 8.75433L0.697646 8.10563L0.697583 8.10571L1.4587 8.75433ZM2.49939 7.53338L3.26044 8.18207L3.2605 8.182L2.49939 7.53338ZM2.95163 6.44048L1.95482 6.36068L1.9548 6.36093L2.95163 6.44048ZM3.07966 4.84136L4.07647 4.92117L4.07649 4.92091L3.07966 4.84136ZM4.84168 3.07964L4.92123 4.07647L4.92125 4.07647L4.84168 3.07964ZM6.43982 2.95208L6.36027 1.95525L6.36025 1.95525L6.43982 2.95208ZM7.53326 2.49932L8.18188 3.26044L8.18194 3.26038L7.53326 2.49932ZM8.75407 1.45879L8.10545 0.697678L8.10539 0.697729L8.75407 1.45879ZM10.5974 2.21991L11.8183 3.26041L13.1156 1.73818L11.8946 0.697678L10.5974 2.21991ZM11.8183 3.26041C12.2859 3.65889 12.8672 3.89995 13.4801 3.94886L13.6392 1.9552C13.4463 1.9398 13.2632 1.86397 13.1156 1.73818L11.8183 3.26041ZM13.48 3.94886L15.079 4.07652L15.2382 2.08286L13.6392 1.9552L13.48 3.94886ZM15.079 4.07652C15.53 4.11251 15.888 4.47065 15.9239 4.92089L17.9176 4.76179C17.8035 3.33176 16.6674 2.19691 15.2381 2.08286L15.079 4.07652ZM15.9239 4.92029L16.0506 6.51941L18.0443 6.3615L17.9177 4.76238L15.9239 4.92029ZM16.0506 6.52001C16.0995 7.13314 16.341 7.71465 16.7393 8.18203L18.2616 6.8848C18.1356 6.73697 18.0596 6.55351 18.0443 6.36091L16.0506 6.52001ZM16.7395 8.18219L17.7804 9.40312L19.3024 8.10556L18.2614 6.88463L16.7395 8.18219ZM17.7803 9.40296C18.0732 9.74668 18.0733 10.2527 17.7798 10.5971L19.302 11.8944C20.232 10.8031 20.233 9.19765 19.3025 8.10572L17.7803 9.40296ZM17.7797 10.5973L16.7396 11.8183L18.2621 13.1152L19.3022 11.8942L17.7797 10.5973ZM16.7398 11.8181C16.3416 12.2854 16.0999 12.8668 16.0509 13.4801L18.0446 13.6392C18.0599 13.4468 18.1359 13.2633 18.262 13.1154L16.7398 11.8181ZM16.0509 13.4799L15.923 15.079L17.9166 15.2385L18.0446 13.6394L16.0509 13.4799ZM15.923 15.0792C15.887 15.5305 15.5295 15.8877 15.0795 15.9236L15.2386 17.9173C16.669 17.8031 17.8026 16.6672 17.9167 15.2383L15.923 15.0792ZM15.0795 15.9236L13.4799 16.0512L13.639 18.0449L15.2386 17.9173L15.0795 15.9236ZM13.4799 16.0512C12.8673 16.1001 12.2858 16.341 11.8181 16.7396L13.1153 18.2618C13.2628 18.1362 13.446 18.0603 13.639 18.0449L13.4799 16.0512ZM11.818 16.7397L10.5973 17.7803L11.8947 19.3023L13.1154 18.2618L11.818 16.7397ZM10.5974 17.7802C10.2533 18.0734 9.74647 18.0734 9.40243 17.7802L8.10519 19.3024C9.19679 20.2327 10.8031 20.2326 11.8946 19.3024L10.5974 17.7802ZM9.40252 17.7803L8.18182 16.7397L6.8844 18.2618L8.1051 19.3024L9.40252 17.7803ZM8.18172 16.7397C7.7141 16.3412 7.13271 16.1001 6.51988 16.0512L6.36079 18.0449C6.5537 18.0603 6.73691 18.1361 6.88449 18.2619L8.18172 16.7397ZM6.51983 16.0512L4.92022 15.9236L4.76123 17.9173L6.36084 18.0449L6.51983 16.0512ZM4.92027 15.9236C4.47033 15.8877 4.11283 15.5305 4.07681 15.0792L2.08315 15.2383C2.19718 16.6673 3.33086 17.8032 4.76118 17.9173L4.92027 15.9236ZM4.0768 15.079L3.94887 13.4799L1.95524 13.6394L2.08317 15.2385L4.0768 15.079ZM3.94888 13.4801C3.89994 12.8667 3.65822 12.2853 3.26004 11.8181L1.73781 13.1153C1.86392 13.2633 1.93987 13.4468 1.95522 13.6392L3.94888 13.4801ZM3.26018 11.8183L2.22014 10.5973L0.697637 11.8942L1.73768 13.1152L3.26018 11.8183ZM2.22 10.5972C1.92667 10.253 1.92672 9.74686 2.21981 9.40294L0.697583 8.10571C-0.232778 9.19743 -0.232341 10.803 0.697774 11.8944L2.22 10.5972ZM2.21975 9.40302L3.26044 8.18207L1.73833 6.88469L0.697646 8.10563L2.21975 9.40302ZM3.2605 8.182C3.6596 7.71368 3.89963 7.13195 3.94847 6.52003L1.9548 6.36093C1.93934 6.55475 1.86345 6.73787 1.73827 6.88476L3.2605 8.182ZM3.94845 6.52029L4.07647 4.92117L2.08285 4.76156L1.95482 6.36068L3.94845 6.52029ZM4.07649 4.92091C4.11244 4.47049 4.4704 4.11245 4.92123 4.07647L4.76213 2.08281C3.3327 2.19688 2.19693 3.33197 2.08283 4.76181L4.07649 4.92091ZM4.92125 4.07647L6.51939 3.94891L6.36025 1.95525L4.76211 2.08281L4.92125 4.07647ZM6.51937 3.94891C7.13174 3.90004 7.71392 3.65923 8.18188 3.26044L6.88465 1.73821C6.73741 1.86368 6.55363 1.93982 6.36027 1.95525L6.51937 3.94891ZM8.18194 3.26038L9.40275 2.21986L8.10539 0.697729L6.88459 1.73826L8.18194 3.26038ZM9.40269 2.21991C9.74675 1.9267 10.2533 1.9267 10.5974 2.21991L11.8946 0.697678C10.803 -0.232559 9.19703 -0.232559 8.10545 0.697678L9.40269 2.21991Z" fill="#280446"/>
</svg>
